STARTFONT 2.1
FONT -XiuZhenXiangSuTi-Regular-R-Regular--8-8-75-75-c-80-iso10646-1
SIZE 8 75 75
FONTBOUNDINGBOX 6 8 0 -1
STARTPROPERTIES 10
FAMILY_NAME "XiuZhenXiangSuTi"
WEIGHT_NAME "Regular"
FONT_VERSION "Version 1.0"
COPYRIGHT "Copyright (C) 2026 yzdnn, Copyright (C) 2000-2023 Num Kadoma"
FOUNDRY "Kadoma"
FONT_ASCENT 7
FONT_DESCENT 1
POINT_SIZE 8
X_HEIGHT 0
CAP_HEIGHT 0
ENDPROPERTIES
CHARS 11079
STARTCHAR U+0020
ENCODING 32
SWIDTH 500 0
DWIDTH 3 0
BBX 0 0 0 0
BITMAP
ENDCHAR
STARTCHAR U+0021
ENCODING 33
SWIDTH 500 0
DWIDTH 3 0
BBX 1 7 1 0
BITMAP
80
80
80
80
80
00
80
ENDCHAR
STARTCHAR U+0022
ENCODING 34
SWIDTH 500 0
DWIDTH 3 0
BBX 3 2 0 5
BITMAP
A0
A0
ENDCHAR
STARTCHAR U+0023
ENCODING 35
SWIDTH 500 0
DWIDTH 3 0
BBX 3 7 0 0
BITMAP
A0
E0
A0
A0
A0
E0
A0
ENDCHAR
STARTCHAR U+0024
ENCODING 36
SWIDTH 500 0
DWIDTH 3 0
BBX 3 7 0 0
BITMAP
40
E0
80
E0
20
E0
40
ENDCHAR
STARTCHAR U+0025
ENCODING 37
SWIDTH 500 0
DWIDTH 3 0
BBX 3 5 0 1
BITMAP
80
20
40
80
20
ENDCHAR
STARTCHAR U+0026
ENCODING 38
SWIDTH 500 0
DWIDTH 3 0
BBX 3 7 0 0
BITMAP
40
A0
A0
40
A0
80
60
ENDCHAR
STARTCHAR U+0027
ENCODING 39
SWIDTH 500 0
DWIDTH 3 0
BBX 1 2 1 5
BITMAP
80
80
ENDCHAR
STARTCHAR U+0028
ENCODING 40
SWIDTH 500 0
DWIDTH 3 0
BBX 2 7 1 0
BITMAP
40
80
80
80
80
80
40
ENDCHAR
STARTCHAR U+0029
ENCODING 41
SWIDTH 500 0
DWIDTH 3 0
BBX 2 7 0 0
BITMAP
80
40
40
40
40
40
80
ENDCHAR
STARTCHAR U+002A
ENCODING 42
SWIDTH 500 0
DWIDTH 3 0
BBX 3 5 0 1
BITMAP
A0
40
E0
40
A0
ENDCHAR
STARTCHAR U+002B
ENCODING 43
SWIDTH 500 0
DWIDTH 3 0
BBX 3 5 0 1
BITMAP
40
40
E0
40
40
ENDCHAR
STARTCHAR U+002C
ENCODING 44
SWIDTH 500 0
DWIDTH 3 0
BBX 2 2 0 0
BITMAP
40
80
ENDCHAR
STARTCHAR U+002D
ENCODING 45
SWIDTH 500 0
DWIDTH 3 0
BBX 3 1 0 3
BITMAP
E0
ENDCHAR
STARTCHAR U+002E
ENCODING 46
SWIDTH 500 0
DWIDTH 3 0
BBX 1 1 1 0
BITMAP
80
ENDCHAR
STARTCHAR U+002F
ENCODING 47
SWIDTH 500 0
DWIDTH 3 0
BBX 3 3 0 2
BITMAP
20
40
80
ENDCHAR
STARTCHAR U+0030
ENCODING 48
SWIDTH 500 0
DWIDTH 3 0
BBX 3 7 0 0
BITMAP
40
A0
A0
E0
A0
A0
40
ENDCHAR
STARTCHAR U+0031
ENCODING 49
SWIDTH 500 0
DWIDTH 3 0
BBX 3 7 0 0
BITMAP
40
C0
40
40
40
40
E0
ENDCHAR
STARTCHAR U+0032
ENCODING 50
SWIDTH 500 0
DWIDTH 3 0
BBX 3 7 0 0
BITMAP
40
A0
20
40
40
80
E0
ENDCHAR
STARTCHAR U+0033
ENCODING 51
SWIDTH 500 0
DWIDTH 3 0
BBX 3 7 0 0
BITMAP
40
A0
20
40
20
A0
40
ENDCHAR
STARTCHAR U+0034
ENCODING 52
SWIDTH 500 0
DWIDTH 3 0
BBX 3 7 0 0
BITMAP
20
60
A0
A0
E0
20
20
ENDCHAR
STARTCHAR U+0035
ENCODING 53
SWIDTH 500 0
DWIDTH 3 0
BBX 3 7 0 0
BITMAP
E0
80
C0
A0
20
A0
40
ENDCHAR
STARTCHAR U+0036
ENCODING 54
SWIDTH 500 0
DWIDTH 3 0
BBX 3 7 0 0
BITMAP
40
A0
80
C0
A0
A0
40
ENDCHAR
STARTCHAR U+0037
ENCODING 55
SWIDTH 500 0
DWIDTH 3 0
BBX 3 7 0 0
BITMAP
E0
A0
20
40
40
40
40
ENDCHAR
STARTCHAR U+0038
ENCODING 56
SWIDTH 500 0
DWIDTH 3 0
BBX 3 7 0 0
BITMAP
40
A0
A0
40
A0
A0
40
ENDCHAR
STARTCHAR U+0039
ENCODING 57
SWIDTH 500 0
DWIDTH 3 0
BBX 3 7 0 0
BITMAP
40
A0
A0
60
20
A0
40
ENDCHAR
STARTCHAR U+003A
ENCODING 58
SWIDTH 500 0
DWIDTH 3 0
BBX 1 4 1 1
BITMAP
80
00
00
80
ENDCHAR
STARTCHAR U+003B
ENCODING 59
SWIDTH 500 0
DWIDTH 3 0
BBX 2 5 0 0
BITMAP
40
00
00
40
80
ENDCHAR
STARTCHAR U+003C
ENCODING 60
SWIDTH 500 0
DWIDTH 3 0
BBX 3 5 0 1
BITMAP
20
40
80
40
20
ENDCHAR
STARTCHAR U+003D
ENCODING 61
SWIDTH 500 0
DWIDTH 3 0
BBX 3 3 0 2
BITMAP
E0
00
E0
ENDCHAR
STARTCHAR U+003E
ENCODING 62
SWIDTH 500 0
DWIDTH 3 0
BBX 3 5 0 1
BITMAP
80
40
20
40
80
ENDCHAR
STARTCHAR U+003F
ENCODING 63
SWIDTH 500 0
DWIDTH 3 0
BBX 3 7 0 0
BITMAP
40
A0
20
40
40
00
40
ENDCHAR
STARTCHAR U+0040
ENCODING 64
SWIDTH 500 0
DWIDTH 3 0
BBX 3 7 0 0
BITMAP
40
A0
E0
A0
C0
80
60
ENDCHAR
STARTCHAR U+0041
ENCODING 65
SWIDTH 500 0
DWIDTH 3 0
BBX 3 7 0 0
BITMAP
40
A0
A0
A0
E0
A0
A0
ENDCHAR
STARTCHAR U+0042
ENCODING 66
SWIDTH 500 0
DWIDTH 3 0
BBX 3 7 0 0
BITMAP
C0
A0
A0
C0
A0
A0
C0
ENDCHAR
STARTCHAR U+0043
ENCODING 67
SWIDTH 500 0
DWIDTH 3 0
BBX 3 7 0 0
BITMAP
40
A0
80
80
80
A0
40
ENDCHAR
STARTCHAR U+0044
ENCODING 68
SWIDTH 500 0
DWIDTH 3 0
BBX 3 7 0 0
BITMAP
C0
A0
A0
A0
A0
A0
C0
ENDCHAR
STARTCHAR U+0045
ENCODING 69
SWIDTH 500 0
DWIDTH 3 0
BBX 3 7 0 0
BITMAP
E0
80
80
C0
80
80
E0
ENDCHAR
STARTCHAR U+0046
ENCODING 70
SWIDTH 500 0
DWIDTH 3 0
BBX 3 7 0 0
BITMAP
E0
80
80
C0
80
80
80
ENDCHAR
STARTCHAR U+0047
ENCODING 71
SWIDTH 500 0
DWIDTH 3 0
BBX 3 7 0 0
BITMAP
40
A0
80
A0
A0
A0
60
ENDCHAR
STARTCHAR U+0048
ENCODING 72
SWIDTH 500 0
DWIDTH 3 0
BBX 3 7 0 0
BITMAP
A0
A0
A0
E0
A0
A0
A0
ENDCHAR
STARTCHAR U+0049
ENCODING 73
SWIDTH 500 0
DWIDTH 3 0
BBX 3 7 0 0
BITMAP
E0
40
40
40
40
40
E0
ENDCHAR
STARTCHAR U+004A
ENCODING 74
SWIDTH 500 0
DWIDTH 3 0
BBX 3 7 0 0
BITMAP
20
20
20
20
20
A0
40
ENDCHAR
STARTCHAR U+004B
ENCODING 75
SWIDTH 500 0
DWIDTH 3 0
BBX 3 7 0 0
BITMAP
A0
A0
C0
C0
A0
A0
A0
ENDCHAR
STARTCHAR U+004C
ENCODING 76
SWIDTH 500 0
DWIDTH 3 0
BBX 3 7 0 0
BITMAP
80
80
80
80
80
80
E0
ENDCHAR
STARTCHAR U+004D
ENCODING 77
SWIDTH 500 0
DWIDTH 3 0
BBX 3 7 0 0
BITMAP
A0
E0
E0
E0
A0
A0
A0
ENDCHAR
STARTCHAR U+004E
ENCODING 78
SWIDTH 500 0
DWIDTH 3 0
BBX 3 7 0 0
BITMAP
C0
A0
A0
A0
A0
A0
A0
ENDCHAR
STARTCHAR U+004F
ENCODING 79
SWIDTH 500 0
DWIDTH 3 0
BBX 3 7 0 0
BITMAP
40
A0
A0
A0
A0
A0
40
ENDCHAR
STARTCHAR U+0050
ENCODING 80
SWIDTH 500 0
DWIDTH 3 0
BBX 3 7 0 0
BITMAP
C0
A0
A0
C0
80
80
80
ENDCHAR
STARTCHAR U+0051
ENCODING 81
SWIDTH 500 0
DWIDTH 3 0
BBX 3 7 0 0
BITMAP
40
A0
A0
A0
E0
A0
60
ENDCHAR
STARTCHAR U+0052
ENCODING 82
SWIDTH 500 0
DWIDTH 3 0
BBX 3 7 0 0
BITMAP
C0
A0
A0
C0
A0
A0
A0
ENDCHAR
STARTCHAR U+0053
ENCODING 83
SWIDTH 500 0
DWIDTH 3 0
BBX 3 7 0 0
BITMAP
40
A0
80
40
20
A0
40
ENDCHAR
STARTCHAR U+0054
ENCODING 84
SWIDTH 500 0
DWIDTH 3 0
BBX 3 7 0 0
BITMAP
E0
40
40
40
40
40
40
ENDCHAR
STARTCHAR U+0055
ENCODING 85
SWIDTH 500 0
DWIDTH 3 0
BBX 3 7 0 0
BITMAP
A0
A0
A0
A0
A0
A0
E0
ENDCHAR
STARTCHAR U+0056
ENCODING 86
SWIDTH 500 0
DWIDTH 3 0
BBX 3 7 0 0
BITMAP
A0
A0
A0
A0
A0
40
40
ENDCHAR
STARTCHAR U+0057
ENCODING 87
SWIDTH 500 0
DWIDTH 3 0
BBX 3 7 0 0
BITMAP
A0
A0
A0
E0
E0
E0
A0
ENDCHAR
STARTCHAR U+0058
ENCODING 88
SWIDTH 500 0
DWIDTH 3 0
BBX 3 7 0 0
BITMAP
A0
A0
40
40
40
A0
A0
ENDCHAR
STARTCHAR U+0059
ENCODING 89
SWIDTH 500 0
DWIDTH 3 0
BBX 3 7 0 0
BITMAP
A0
A0
A0
40
40
40
40
ENDCHAR
STARTCHAR U+005A
ENCODING 90
SWIDTH 500 0
DWIDTH 3 0
BBX 3 7 0 0
BITMAP
E0
20
40
40
40
80
E0
ENDCHAR
STARTCHAR U+005B
ENCODING 91
SWIDTH 500 0
DWIDTH 3 0
BBX 2 7 1 0
BITMAP
C0
80
80
80
80
80
C0
ENDCHAR
STARTCHAR U+005C
ENCODING 92
SWIDTH 500 0
DWIDTH 3 0
BBX 3 3 0 2
BITMAP
80
40
20
ENDCHAR
STARTCHAR U+005D
ENCODING 93
SWIDTH 500 0
DWIDTH 3 0
BBX 2 7 0 0
BITMAP
C0
40
40
40
40
40
C0
ENDCHAR
STARTCHAR U+005E
ENCODING 94
SWIDTH 500 0
DWIDTH 3 0
BBX 3 2 0 5
BITMAP
40
A0
ENDCHAR
STARTCHAR U+005F
ENCODING 95
SWIDTH 500 0
DWIDTH 3 0
BBX 3 1 0 0
BITMAP
E0
ENDCHAR
STARTCHAR U+0060
ENCODING 96
SWIDTH 500 0
DWIDTH 3 0
BBX 2 2 1 5
BITMAP
80
40
ENDCHAR
STARTCHAR U+0061
ENCODING 97
SWIDTH 500 0
DWIDTH 3 0
BBX 3 5 0 0
BITMAP
C0
20
60
A0
60
ENDCHAR
STARTCHAR U+0062
ENCODING 98
SWIDTH 500 0
DWIDTH 3 0
BBX 3 7 0 0
BITMAP
80
80
C0
A0
A0
A0
C0
ENDCHAR
STARTCHAR U+0063
ENCODING 99
SWIDTH 500 0
DWIDTH 3 0
BBX 3 5 0 0
BITMAP
60
80
80
80
60
ENDCHAR
STARTCHAR U+0064
ENCODING 100
SWIDTH 500 0
DWIDTH 3 0
BBX 3 7 0 0
BITMAP
20
20
60
A0
A0
A0
60
ENDCHAR
STARTCHAR U+0065
ENCODING 101
SWIDTH 500 0
DWIDTH 3 0
BBX 3 5 0 0
BITMAP
40
A0
E0
80
60
ENDCHAR
STARTCHAR U+0066
ENCODING 102
SWIDTH 500 0
DWIDTH 3 0
BBX 3 7 0 0
BITMAP
60
40
E0
40
40
40
40
ENDCHAR
STARTCHAR U+0067
ENCODING 103
SWIDTH 500 0
DWIDTH 3 0
BBX 3 5 0 0
BITMAP
60
A0
60
20
C0
ENDCHAR
STARTCHAR U+0068
ENCODING 104
SWIDTH 500 0
DWIDTH 3 0
BBX 3 7 0 0
BITMAP
80
80
C0
A0
A0
A0
A0
ENDCHAR
STARTCHAR U+0069
ENCODING 105
SWIDTH 500 0
DWIDTH 3 0
BBX 1 7 1 0
BITMAP
80
00
80
80
80
80
80
ENDCHAR
STARTCHAR U+006A
ENCODING 106
SWIDTH 500 0
DWIDTH 3 0
BBX 3 7 0 0
BITMAP
20
00
20
20
20
A0
40
ENDCHAR
STARTCHAR U+006B
ENCODING 107
SWIDTH 500 0
DWIDTH 3 0
BBX 3 7 0 0
BITMAP
80
80
A0
A0
C0
A0
A0
ENDCHAR
STARTCHAR U+006C
ENCODING 108
SWIDTH 500 0
DWIDTH 3 0
BBX 2 7 0 0
BITMAP
C0
40
40
40
40
40
40
ENDCHAR
STARTCHAR U+006D
ENCODING 109
SWIDTH 500 0
DWIDTH 3 0
BBX 3 5 0 0
BITMAP
C0
E0
E0
E0
A0
ENDCHAR
STARTCHAR U+006E
ENCODING 110
SWIDTH 500 0
DWIDTH 3 0
BBX 3 5 0 0
BITMAP
C0
A0
A0
A0
A0
ENDCHAR
STARTCHAR U+006F
ENCODING 111
SWIDTH 500 0
DWIDTH 3 0
BBX 3 5 0 0
BITMAP
40
A0
A0
A0
40
ENDCHAR
STARTCHAR U+0070
ENCODING 112
SWIDTH 500 0
DWIDTH 3 0
BBX 3 5 0 0
BITMAP
C0
A0
A0
C0
80
ENDCHAR
STARTCHAR U+0071
ENCODING 113
SWIDTH 500 0
DWIDTH 3 0
BBX 3 5 0 0
BITMAP
60
A0
A0
60
20
ENDCHAR
STARTCHAR U+0072
ENCODING 114
SWIDTH 500 0
DWIDTH 3 0
BBX 3 5 0 0
BITMAP
A0
C0
80
80
80
ENDCHAR
STARTCHAR U+0073
ENCODING 115
SWIDTH 500 0
DWIDTH 3 0
BBX 3 5 0 0
BITMAP
60
80
40
20
C0
ENDCHAR
STARTCHAR U+0074
ENCODING 116
SWIDTH 500 0
DWIDTH 3 0
BBX 3 6 0 0
BITMAP
40
E0
40
40
40
60
ENDCHAR
STARTCHAR U+0075
ENCODING 117
SWIDTH 500 0
DWIDTH 3 0
BBX 3 5 0 0
BITMAP
A0
A0
A0
A0
E0
ENDCHAR
STARTCHAR U+0076
ENCODING 118
SWIDTH 500 0
DWIDTH 3 0
BBX 3 5 0 0
BITMAP
A0
A0
A0
40
40
ENDCHAR
STARTCHAR U+0077
ENCODING 119
SWIDTH 500 0
DWIDTH 3 0
BBX 3 5 0 0
BITMAP
A0
A0
E0
E0
A0
ENDCHAR
STARTCHAR U+0078
ENCODING 120
SWIDTH 500 0
DWIDTH 3 0
BBX 3 5 0 0
BITMAP
A0
A0
40
A0
A0
ENDCHAR
STARTCHAR U+0079
ENCODING 121
SWIDTH 500 0
DWIDTH 3 0
BBX 3 5 0 0
BITMAP
A0
A0
60
20
C0
ENDCHAR
STARTCHAR U+007A
ENCODING 122
SWIDTH 500 0
DWIDTH 3 0
BBX 3 5 0 0
BITMAP
E0
20
40
80
E0
ENDCHAR
STARTCHAR U+007B
ENCODING 123
SWIDTH 500 0
DWIDTH 3 0
BBX 3 7 0 0
BITMAP
20
40
40
80
40
40
20
ENDCHAR
STARTCHAR U+007C
ENCODING 124
SWIDTH 500 0
DWIDTH 3 0
BBX 1 7 1 0
BITMAP
80
80
80
80
80
80
80
ENDCHAR
STARTCHAR U+007D
ENCODING 125
SWIDTH 500 0
DWIDTH 3 0
BBX 3 7 0 0
BITMAP
80
40
40
20
40
40
80
ENDCHAR
STARTCHAR U+007E
ENCODING 126
SWIDTH 500 0
DWIDTH 3 0
BBX 3 2 0 3
BITMAP
C0
60
ENDCHAR
STARTCHAR U+00A2
ENCODING 162
SWIDTH 500 0
DWIDTH 3 0
BBX 3 7 0 0
BITMAP
40
40
E0
80
E0
40
40
ENDCHAR
STARTCHAR U+00A3
ENCODING 163
SWIDTH 500 0
DWIDTH 3 0
BBX 3 7 0 0
BITMAP
60
40
E0
40
40
80
E0
ENDCHAR
STARTCHAR U+00A4
ENCODING 164
SWIDTH 1000 0
DWIDTH 6 0
BBX 5 7 0 0
BITMAP
88
70
88
88
88
70
88
ENDCHAR
STARTCHAR U+00A5
ENCODING 165
SWIDTH 500 0
DWIDTH 3 0
BBX 3 7 0 0
BITMAP
A0
40
E0
40
E0
40
40
ENDCHAR
STARTCHAR U+00A6
ENCODING 166
SWIDTH 500 0
DWIDTH 3 0
BBX 1 7 1 0
BITMAP
80
80
80
00
80
80
80
ENDCHAR
STARTCHAR U+00A7
ENCODING 167
SWIDTH 1000 0
DWIDTH 6 0
BBX 4 7 1 0
BITMAP
70
80
60
90
60
10
E0
ENDCHAR
STARTCHAR U+00A8
ENCODING 168
SWIDTH 1000 0
DWIDTH 6 0
BBX 3 1 1 6
BITMAP
A0
ENDCHAR
STARTCHAR U+00AC
ENCODING 172
SWIDTH 500 0
DWIDTH 3 0
BBX 3 2 0 2
BITMAP
E0
20
ENDCHAR
STARTCHAR U+00AD
ENCODING 173
SWIDTH 1000 0
DWIDTH 6 0
BBX 2 1 2 3
BITMAP
C0
ENDCHAR
STARTCHAR U+00AF
ENCODING 175
SWIDTH 500 0
DWIDTH 3 0
BBX 3 1 0 6
BITMAP
E0
ENDCHAR
STARTCHAR U+00B0
ENCODING 176
SWIDTH 1000 0
DWIDTH 6 0
BBX 3 4 0 3
BITMAP
40
A0
A0
40
ENDCHAR
STARTCHAR U+00B1
ENCODING 177
SWIDTH 1000 0
DWIDTH 6 0
BBX 5 7 0 0
BITMAP
20
20
F8
20
20
00
F8
ENDCHAR
STARTCHAR U+00B4
ENCODING 180
SWIDTH 1000 0
DWIDTH 6 0
BBX 2 2 2 5
BITMAP
40
80
ENDCHAR
STARTCHAR U+00B6
ENCODING 182
SWIDTH 1000 0
DWIDTH 6 0
BBX 5 7 0 0
BITMAP
78
E8
E8
68
28
28
28
ENDCHAR
STARTCHAR U+00B7
ENCODING 183
SWIDTH 500 0
DWIDTH 3 0
BBX 1 1 1 3
BITMAP
80
ENDCHAR
STARTCHAR U+00D7
ENCODING 215
SWIDTH 1000 0
DWIDTH 6 0
BBX 5 5 0 1
BITMAP
88
50
20
50
88
ENDCHAR
STARTCHAR U+00E0
ENCODING 224
SWIDTH 500 0
DWIDTH 3 0
BBX 3 7 0 0
BITMAP
40
20
C0
20
60
A0
60
ENDCHAR
STARTCHAR U+00E1
ENCODING 225
SWIDTH 500 0
DWIDTH 3 0
BBX 3 7 0 0
BITMAP
40
80
C0
20
60
A0
60
ENDCHAR
STARTCHAR U+00E8
ENCODING 232
SWIDTH 500 0
DWIDTH 3 0
BBX 3 7 0 0
BITMAP
40
20
40
A0
E0
80
60
ENDCHAR
STARTCHAR U+00E9
ENCODING 233
SWIDTH 500 0
DWIDTH 3 0
BBX 3 7 0 0
BITMAP
40
80
40
A0
E0
80
60
ENDCHAR
STARTCHAR U+00EA
ENCODING 234
SWIDTH 500 0
DWIDTH 3 0
BBX 3 7 0 0
BITMAP
40
A0
40
A0
E0
80
60
ENDCHAR
STARTCHAR U+00EC
ENCODING 236
SWIDTH 500 0
DWIDTH 3 0
BBX 2 7 1 0
BITMAP
80
40
80
80
80
80
80
ENDCHAR
STARTCHAR U+00ED
ENCODING 237
SWIDTH 500 0
DWIDTH 3 0
BBX 2 7 0 0
BITMAP
40
80
40
40
40
40
40
ENDCHAR
STARTCHAR U+00F2
ENCODING 242
SWIDTH 500 0
DWIDTH 3 0
BBX 3 7 0 0
BITMAP
40
20
40
A0
A0
A0
40
ENDCHAR
STARTCHAR U+00F3
ENCODING 243
SWIDTH 500 0
DWIDTH 3 0
BBX 3 7 0 0
BITMAP
40
80
40
A0
A0
A0
40
ENDCHAR
STARTCHAR U+00F7
ENCODING 247
SWIDTH 1000 0
DWIDTH 6 0
BBX 5 5 0 1
BITMAP
20
00
F8
00
20
ENDCHAR
STARTCHAR U+00F9
ENCODING 249
SWIDTH 500 0
DWIDTH 3 0
BBX 3 7 0 0
BITMAP
80
40
A0
A0
A0
A0
E0
ENDCHAR
STARTCHAR U+00FA
ENCODING 250
SWIDTH 500 0
DWIDTH 3 0
BBX 3 7 0 0
BITMAP
20
40
A0
A0
A0
A0
E0
ENDCHAR
STARTCHAR U+00FC
ENCODING 252
SWIDTH 500 0
DWIDTH 3 0
BBX 3 7 0 0
BITMAP
A0
00
A0
A0
A0
A0
E0
ENDCHAR
STARTCHAR U+0101
ENCODING 257
SWIDTH 500 0
DWIDTH 3 0
BBX 3 7 0 0
BITMAP
E0
00
C0
20
60
A0
60
ENDCHAR
STARTCHAR U+0113
ENCODING 275
SWIDTH 500 0
DWIDTH 3 0
BBX 3 7 0 0
BITMAP
E0
00
40
A0
E0
80
60
ENDCHAR
STARTCHAR U+011B
ENCODING 283
SWIDTH 500 0
DWIDTH 3 0
BBX 3 7 0 0
BITMAP
A0
40
40
A0
E0
80
60
ENDCHAR
STARTCHAR U+012B
ENCODING 299
SWIDTH 500 0
DWIDTH 3 0
BBX 3 7 0 0
BITMAP
E0
00
40
40
40
40
40
ENDCHAR
STARTCHAR U+014D
ENCODING 333
SWIDTH 500 0
DWIDTH 3 0
BBX 3 7 0 0
BITMAP
E0
00
40
A0
A0
A0
40
ENDCHAR
STARTCHAR U+016B
ENCODING 363
SWIDTH 500 0
DWIDTH 3 0
BBX 3 7 0 0
BITMAP
E0
00
A0
A0
A0
A0
E0
ENDCHAR
STARTCHAR U+01CE
ENCODING 462
SWIDTH 500 0
DWIDTH 3 0
BBX 3 7 0 0
BITMAP
A0
40
C0
20
60
A0
60
ENDCHAR
STARTCHAR U+01D0
ENCODING 464
SWIDTH 500 0
DWIDTH 3 0
BBX 3 7 0 0
BITMAP
A0
40
00
40
40
40
40
ENDCHAR
STARTCHAR U+01D2
ENCODING 466
SWIDTH 500 0
DWIDTH 3 0
BBX 3 7 0 0
BITMAP
A0
40
40
A0
A0
A0
40
ENDCHAR
STARTCHAR U+01D4
ENCODING 468
SWIDTH 500 0
DWIDTH 3 0
BBX 3 7 0 0
BITMAP
A0
40
A0
A0
A0
A0
E0
ENDCHAR
STARTCHAR U+01D6
ENCODING 470
SWIDTH 500 0
DWIDTH 3 0
BBX 3 7 0 0
BITMAP
E0
00
A0
00
A0
A0
E0
ENDCHAR
STARTCHAR U+01D8
ENCODING 472
SWIDTH 500 0
DWIDTH 3 0
BBX 3 7 0 0
BITMAP
20
40
A0
00
A0
A0
E0
ENDCHAR
STARTCHAR U+01DA
ENCODING 474
SWIDTH 500 0
DWIDTH 3 0
BBX 3 7 0 0
BITMAP
A0
40
A0
00
A0
A0
E0
ENDCHAR
STARTCHAR U+01DC
ENCODING 476
SWIDTH 500 0
DWIDTH 3 0
BBX 3 7 0 0
BITMAP
80
40
A0
00
A0
A0
E0
ENDCHAR
STARTCHAR U+02C7
ENCODING 711
SWIDTH 1000 0
DWIDTH 6 0
BBX 3 2 1 5
BITMAP
A0
40
ENDCHAR
STARTCHAR U+02C9
ENCODING 713
SWIDTH 1000 0
DWIDTH 6 0
BBX 3 1 1 6
BITMAP
E0
ENDCHAR
STARTCHAR U+0391
ENCODING 913
SWIDTH 1000 0
DWIDTH 6 0
BBX 5 7 0 0
BITMAP
20
50
88
88
F8
88
88
ENDCHAR
STARTCHAR U+0392
ENCODING 914
SWIDTH 1000 0
DWIDTH 6 0
BBX 5 7 0 0
BITMAP
F0
88
88
F0
88
88
F0
ENDCHAR
STARTCHAR U+0393
ENCODING 915
SWIDTH 1000 0
DWIDTH 6 0
BBX 5 7 0 0
BITMAP
F8
80
80
80
80
80
80
ENDCHAR
STARTCHAR U+0394
ENCODING 916
SWIDTH 1000 0
DWIDTH 6 0
BBX 5 7 0 0
BITMAP
20
20
50
50
88
88
F8
ENDCHAR
STARTCHAR U+0395
ENCODING 917
SWIDTH 1000 0
DWIDTH 6 0
BBX 5 7 0 0
BITMAP
F8
80
80
F0
80
80
F8
ENDCHAR
STARTCHAR U+0396
ENCODING 918
SWIDTH 1000 0
DWIDTH 6 0
BBX 5 7 0 0
BITMAP
F8
08
10
20
40
80
F8
ENDCHAR
STARTCHAR U+0397
ENCODING 919
SWIDTH 1000 0
DWIDTH 6 0
BBX 5 7 0 0
BITMAP
88
88
88
F8
88
88
88
ENDCHAR
STARTCHAR U+0398
ENCODING 920
SWIDTH 1000 0
DWIDTH 6 0
BBX 5 7 0 0
BITMAP
70
88
D8
F8
D8
88
70
ENDCHAR
STARTCHAR U+0399
ENCODING 921
SWIDTH 1000 0
DWIDTH 6 0
BBX 3 7 1 0
BITMAP
E0
40
40
40
40
40
E0
ENDCHAR
STARTCHAR U+039A
ENCODING 922
SWIDTH 1000 0
DWIDTH 6 0
BBX 5 7 0 0
BITMAP
88
90
A0
C0
A0
90
88
ENDCHAR
STARTCHAR U+039B
ENCODING 923
SWIDTH 1000 0
DWIDTH 6 0
BBX 5 7 0 0
BITMAP
20
20
50
50
88
88
88
ENDCHAR
STARTCHAR U+039C
ENCODING 924
SWIDTH 1000 0
DWIDTH 6 0
BBX 5 7 0 0
BITMAP
88
D8
A8
A8
88
88
88
ENDCHAR
STARTCHAR U+039D
ENCODING 925
SWIDTH 1000 0
DWIDTH 6 0
BBX 5 7 0 0
BITMAP
88
88
C8
A8
98
88
88
ENDCHAR
STARTCHAR U+039E
ENCODING 926
SWIDTH 1000 0
DWIDTH 6 0
BBX 5 7 0 0
BITMAP
F8
00
00
70
00
00
F8
ENDCHAR
STARTCHAR U+039F
ENCODING 927
SWIDTH 1000 0
DWIDTH 6 0
BBX 5 7 0 0
BITMAP
70
88
88
88
88
88
70
ENDCHAR
STARTCHAR U+03A0
ENCODING 928
SWIDTH 1000 0
DWIDTH 6 0
BBX 5 7 0 0
BITMAP
F8
88
88
88
88
88
88
ENDCHAR
STARTCHAR U+03A1
ENCODING 929
SWIDTH 1000 0
DWIDTH 6 0
BBX 5 7 0 0
BITMAP
F0
88
88
F0
80
80
80
ENDCHAR
STARTCHAR U+03A3
ENCODING 931
SWIDTH 1000 0
DWIDTH 6 0
BBX 5 7 0 0
BITMAP
F8
80
40
20
40
80
F8
ENDCHAR
STARTCHAR U+03A4
ENCODING 932
SWIDTH 1000 0
DWIDTH 6 0
BBX 5 7 0 0
BITMAP
F8
20
20
20
20
20
20
ENDCHAR
STARTCHAR U+03A5
ENCODING 933
SWIDTH 1000 0
DWIDTH 6 0
BBX 5 7 0 0
BITMAP
88
88
50
20
20
20
20
ENDCHAR
STARTCHAR U+03A6
ENCODING 934
SWIDTH 1000 0
DWIDTH 6 0
BBX 5 7 0 0
BITMAP
20
70
A8
A8
A8
70
20
ENDCHAR
STARTCHAR U+03A7
ENCODING 935
SWIDTH 1000 0
DWIDTH 6 0
BBX 5 7 0 0
BITMAP
88
88
50
20
50
88
88
ENDCHAR
STARTCHAR U+03A8
ENCODING 936
SWIDTH 1000 0
DWIDTH 6 0
BBX 5 7 0 0
BITMAP
A8
A8
A8
70
20
20
20
ENDCHAR
STARTCHAR U+03A9
ENCODING 937
SWIDTH 1000 0
DWIDTH 6 0
BBX 5 7 0 0
BITMAP
70
88
88
88
50
50
D8
ENDCHAR
STARTCHAR U+03B1
ENCODING 945
SWIDTH 1000 0
DWIDTH 6 0
BBX 5 5 0 0
BITMAP
28
50
90
A0
58
ENDCHAR
STARTCHAR U+03B2
ENCODING 946
SWIDTH 1000 0
DWIDTH 6 0
BBX 5 7 0 0
BITMAP
30
48
50
88
C8
B0
80
ENDCHAR
STARTCHAR U+03B3
ENCODING 947
SWIDTH 1000 0
DWIDTH 6 0
BBX 5 5 0 0
BITMAP
C8
30
20
60
40
ENDCHAR
STARTCHAR U+03B4
ENCODING 948
SWIDTH 1000 0
DWIDTH 6 0
BBX 5 7 0 0
BITMAP
30
48
20
50
90
90
60
ENDCHAR
STARTCHAR U+03B5
ENCODING 949
SWIDTH 1000 0
DWIDTH 6 0
BBX 5 5 0 0
BITMAP
30
48
60
88
70
ENDCHAR
STARTCHAR U+03B6
ENCODING 950
SWIDTH 1000 0
DWIDTH 6 0
BBX 4 7 1 0
BITMAP
B0
40
80
80
40
20
C0
ENDCHAR
STARTCHAR U+03B7
ENCODING 951
SWIDTH 1000 0
DWIDTH 6 0
BBX 5 5 0 0
BITMAP
D0
28
48
50
10
ENDCHAR
STARTCHAR U+03B8
ENCODING 952
SWIDTH 1000 0
DWIDTH 6 0
BBX 5 7 0 0
BITMAP
30
48
48
F8
90
90
60
ENDCHAR
STARTCHAR U+03B9
ENCODING 953
SWIDTH 1000 0
DWIDTH 6 0
BBX 3 5 1 0
BITMAP
40
40
80
A0
40
ENDCHAR
STARTCHAR U+03BA
ENCODING 954
SWIDTH 1000 0
DWIDTH 6 0
BBX 5 5 0 0
BITMAP
48
50
60
A0
98
ENDCHAR
STARTCHAR U+03BB
ENCODING 955
SWIDTH 1000 0
DWIDTH 6 0
BBX 5 7 0 0
BITMAP
20
10
10
30
50
50
88
ENDCHAR
STARTCHAR U+03BC
ENCODING 956
SWIDTH 1000 0
DWIDTH 6 0
BBX 5 5 0 0
BITMAP
48
48
50
A8
80
ENDCHAR
STARTCHAR U+03BD
ENCODING 957
SWIDTH 1000 0
DWIDTH 6 0
BBX 5 5 0 0
BITMAP
88
48
50
60
40
ENDCHAR
STARTCHAR U+03BE
ENCODING 958
SWIDTH 1000 0
DWIDTH 6 0
BBX 5 7 0 0
BITMAP
38
40
78
80
60
10
60
ENDCHAR
STARTCHAR U+03BF
ENCODING 959
SWIDTH 1000 0
DWIDTH 6 0
BBX 5 5 0 0
BITMAP
30
48
88
90
60
ENDCHAR
STARTCHAR U+03C0
ENCODING 960
SWIDTH 1000 0
DWIDTH 6 0
BBX 5 5 0 0
BITMAP
F8
50
50
90
98
ENDCHAR
STARTCHAR U+03C1
ENCODING 961
SWIDTH 1000 0
DWIDTH 6 0
BBX 5 5 0 0
BITMAP
30
48
48
B0
80
ENDCHAR
STARTCHAR U+03C2
ENCODING 962
SWIDTH 1000 0
DWIDTH 6 0
BBX 4 7 1 0
BITMAP
30
40
80
80
40
20
C0
ENDCHAR
STARTCHAR U+03C3
ENCODING 963
SWIDTH 1000 0
DWIDTH 6 0
BBX 5 5 0 0
BITMAP
38
50
90
90
60
ENDCHAR
STARTCHAR U+03C4
ENCODING 964
SWIDTH 1000 0
DWIDTH 6 0
BBX 5 5 0 0
BITMAP
78
A0
20
28
10
ENDCHAR
STARTCHAR U+03C5
ENCODING 965
SWIDTH 1000 0
DWIDTH 6 0
BBX 5 5 0 0
BITMAP
68
A8
48
48
30
ENDCHAR
STARTCHAR U+03C6
ENCODING 966
SWIDTH 1000 0
DWIDTH 6 0
BBX 5 7 0 0
BITMAP
10
10
70
A8
A8
70
40
ENDCHAR
STARTCHAR U+03C7
ENCODING 967
SWIDTH 1000 0
DWIDTH 6 0
BBX 5 5 0 0
BITMAP
68
10
20
60
98
ENDCHAR
STARTCHAR U+03C8
ENCODING 968
SWIDTH 1000 0
DWIDTH 6 0
BBX 5 7 0 0
BITMAP
10
10
A0
A8
A8
70
40
ENDCHAR
STARTCHAR U+03C9
ENCODING 969
SWIDTH 1000 0
DWIDTH 6 0
BBX 5 5 0 0
BITMAP
48
88
A8
A8
50
ENDCHAR
STARTCHAR U+0401
ENCODING 1025
SWIDTH 1000 0
DWIDTH 6 0
BBX 5 7 0 0
BITMAP
50
F8
80
F0
80
80
F8
ENDCHAR
STARTCHAR U+0410
ENCODING 1040
SWIDTH 1000 0
DWIDTH 6 0
BBX 5 7 0 0
BITMAP
20
50
88
88
F8
88
88
ENDCHAR
STARTCHAR U+0411
ENCODING 1041
SWIDTH 1000 0
DWIDTH 6 0
BBX 5 7 0 0
BITMAP
F8
80
80
F0
88
88
F0
ENDCHAR
STARTCHAR U+0412
ENCODING 1042
SWIDTH 1000 0
DWIDTH 6 0
BBX 5 7 0 0
BITMAP
F0
88
88
F0
88
88
F0
ENDCHAR
STARTCHAR U+0413
ENCODING 1043
SWIDTH 1000 0
DWIDTH 6 0
BBX 5 7 0 0
BITMAP
F8
80
80
80
80
80
80
ENDCHAR
STARTCHAR U+0414
ENCODING 1044
SWIDTH 1000 0
DWIDTH 6 0
BBX 5 7 0 0
BITMAP
70
50
50
50
90
F8
88
ENDCHAR
STARTCHAR U+0415
ENCODING 1045
SWIDTH 1000 0
DWIDTH 6 0
BBX 5 7 0 0
BITMAP
F8
80
80
F0
80
80
F8
ENDCHAR
STARTCHAR U+0416
ENCODING 1046
SWIDTH 1000 0
DWIDTH 6 0
BBX 5 7 0 0
BITMAP
A8
A8
70
20
70
A8
A8
ENDCHAR
STARTCHAR U+0417
ENCODING 1047
SWIDTH 1000 0
DWIDTH 6 0
BBX 5 7 0 0
BITMAP
70
88
08
30
08
88
70
ENDCHAR
STARTCHAR U+0418
ENCODING 1048
SWIDTH 1000 0
DWIDTH 6 0
BBX 5 7 0 0
BITMAP
88
88
98
A8
C8
88
88
ENDCHAR
STARTCHAR U+0419
ENCODING 1049
SWIDTH 1000 0
DWIDTH 6 0
BBX 5 7 0 0
BITMAP
50
20
88
98
A8
C8
88
ENDCHAR
STARTCHAR U+041A
ENCODING 1050
SWIDTH 1000 0
DWIDTH 6 0
BBX 5 7 0 0
BITMAP
98
A0
A0
C0
A0
90
88
ENDCHAR
STARTCHAR U+041B
ENCODING 1051
SWIDTH 1000 0
DWIDTH 6 0
BBX 5 7 0 0
BITMAP
78
48
48
48
48
48
88
ENDCHAR
STARTCHAR U+041C
ENCODING 1052
SWIDTH 1000 0
DWIDTH 6 0
BBX 5 7 0 0
BITMAP
88
D8
A8
A8
88
88
88
ENDCHAR
STARTCHAR U+041D
ENCODING 1053
SWIDTH 1000 0
DWIDTH 6 0
BBX 5 7 0 0
BITMAP
88
88
88
F8
88
88
88
ENDCHAR
STARTCHAR U+041E
ENCODING 1054
SWIDTH 1000 0
DWIDTH 6 0
BBX 5 7 0 0
BITMAP
70
88
88
88
88
88
70
ENDCHAR
STARTCHAR U+041F
ENCODING 1055
SWIDTH 1000 0
DWIDTH 6 0
BBX 5 7 0 0
BITMAP
F8
88
88
88
88
88
88
ENDCHAR
STARTCHAR U+0420
ENCODING 1056
SWIDTH 1000 0
DWIDTH 6 0
BBX 5 7 0 0
BITMAP
F0
88
88
F0
80
80
80
ENDCHAR
STARTCHAR U+0421
ENCODING 1057
SWIDTH 1000 0
DWIDTH 6 0
BBX 5 7 0 0
BITMAP
70
88
80
80
80
88
70
ENDCHAR
STARTCHAR U+0422
ENCODING 1058
SWIDTH 1000 0
DWIDTH 6 0
BBX 5 7 0 0
BITMAP
F8
20
20
20
20
20
20
ENDCHAR
STARTCHAR U+0423
ENCODING 1059
SWIDTH 1000 0
DWIDTH 6 0
BBX 5 7 0 0
BITMAP
88
88
50
50
20
20
C0
ENDCHAR
STARTCHAR U+0424
ENCODING 1060
SWIDTH 1000 0
DWIDTH 6 0
BBX 5 7 0 0
BITMAP
20
70
A8
A8
A8
70
20
ENDCHAR
STARTCHAR U+0425
ENCODING 1061
SWIDTH 1000 0
DWIDTH 6 0
BBX 5 7 0 0
BITMAP
88
88
50
20
50
88
88
ENDCHAR
STARTCHAR U+0426
ENCODING 1062
SWIDTH 1000 0
DWIDTH 6 0
BBX 5 7 0 0
BITMAP
90
90
90
90
90
F8
08
ENDCHAR
STARTCHAR U+0427
ENCODING 1063
SWIDTH 1000 0
DWIDTH 6 0
BBX 5 7 0 0
BITMAP
88
88
88
88
78
08
08
ENDCHAR
STARTCHAR U+0428
ENCODING 1064
SWIDTH 1000 0
DWIDTH 6 0
BBX 5 7 0 0
BITMAP
A8
A8
A8
A8
A8
A8
F8
ENDCHAR
STARTCHAR U+0429
ENCODING 1065
SWIDTH 1000 0
DWIDTH 6 0
BBX 5 7 0 0
BITMAP
A8
A8
A8
A8
A8
F8
08
ENDCHAR
STARTCHAR U+042A
ENCODING 1066
SWIDTH 1000 0
DWIDTH 6 0
BBX 5 7 0 0
BITMAP
C0
40
40
70
48
48
70
ENDCHAR
STARTCHAR U+042B
ENCODING 1067
SWIDTH 1000 0
DWIDTH 6 0
BBX 5 7 0 0
BITMAP
88
88
88
E8
98
98
E8
ENDCHAR
STARTCHAR U+042C
ENCODING 1068
SWIDTH 1000 0
DWIDTH 6 0
BBX 5 7 0 0
BITMAP
80
80
80
F0
88
88
F0
ENDCHAR
STARTCHAR U+042D
ENCODING 1069
SWIDTH 1000 0
DWIDTH 6 0
BBX 5 7 0 0
BITMAP
70
88
08
78
08
88
70
ENDCHAR
STARTCHAR U+042E
ENCODING 1070
SWIDTH 1000 0
DWIDTH 6 0
BBX 5 7 0 0
BITMAP
90
A8
A8
E8
A8
A8
90
ENDCHAR
STARTCHAR U+042F
ENCODING 1071
SWIDTH 1000 0
DWIDTH 6 0
BBX 5 7 0 0
BITMAP
78
88
88
78
48
48
88
ENDCHAR
STARTCHAR U+0430
ENCODING 1072
SWIDTH 1000 0
DWIDTH 6 0
BBX 5 5 0 0
BITMAP
70
08
78
88
78
ENDCHAR
STARTCHAR U+0431
ENCODING 1073
SWIDTH 1000 0
DWIDTH 6 0
BBX 5 7 0 0
BITMAP
30
40
F0
88
88
88
70
ENDCHAR
STARTCHAR U+0432
ENCODING 1074
SWIDTH 1000 0
DWIDTH 6 0
BBX 5 5 0 0
BITMAP
F0
88
F0
88
F0
ENDCHAR
STARTCHAR U+0433
ENCODING 1075
SWIDTH 1000 0
DWIDTH 6 0
BBX 5 5 0 0
BITMAP
F8
80
80
80
80
ENDCHAR
STARTCHAR U+0434
ENCODING 1076
SWIDTH 1000 0
DWIDTH 6 0
BBX 5 5 0 0
BITMAP
70
50
90
F8
88
ENDCHAR
STARTCHAR U+0435
ENCODING 1077
SWIDTH 1000 0
DWIDTH 6 0
BBX 5 5 0 0
BITMAP
70
88
F8
80
70
ENDCHAR
STARTCHAR U+0436
ENCODING 1078
SWIDTH 1000 0
DWIDTH 6 0
BBX 5 5 0 0
BITMAP
A8
A8
70
A8
A8
ENDCHAR
STARTCHAR U+0437
ENCODING 1079
SWIDTH 1000 0
DWIDTH 6 0
BBX 5 5 0 0
BITMAP
70
88
30
88
70
ENDCHAR
STARTCHAR U+0438
ENCODING 1080
SWIDTH 1000 0
DWIDTH 6 0
BBX 5 5 0 0
BITMAP
88
98
A8
C8
88
ENDCHAR
STARTCHAR U+0439
ENCODING 1081
SWIDTH 1000 0
DWIDTH 6 0
BBX 5 6 0 0
BITMAP
50
20
98
A8
C8
88
ENDCHAR
STARTCHAR U+043A
ENCODING 1082
SWIDTH 1000 0
DWIDTH 6 0
BBX 5 5 0 0
BITMAP
98
A0
E0
90
88
ENDCHAR
STARTCHAR U+043B
ENCODING 1083
SWIDTH 1000 0
DWIDTH 6 0
BBX 5 5 0 0
BITMAP
78
48
48
48
88
ENDCHAR
STARTCHAR U+043C
ENCODING 1084
SWIDTH 1000 0
DWIDTH 6 0
BBX 5 5 0 0
BITMAP
88
D8
A8
A8
88
ENDCHAR
STARTCHAR U+043D
ENCODING 1085
SWIDTH 1000 0
DWIDTH 6 0
BBX 5 5 0 0
BITMAP
88
88
F8
88
88
ENDCHAR
STARTCHAR U+043E
ENCODING 1086
SWIDTH 1000 0
DWIDTH 6 0
BBX 5 5 0 0
BITMAP
70
88
88
88
70
ENDCHAR
STARTCHAR U+043F
ENCODING 1087
SWIDTH 1000 0
DWIDTH 6 0
BBX 5 5 0 0
BITMAP
F8
88
88
88
88
ENDCHAR
STARTCHAR U+0440
ENCODING 1088
SWIDTH 1000 0
DWIDTH 6 0
BBX 5 5 0 0
BITMAP
F0
88
88
F0
80
ENDCHAR
STARTCHAR U+0441
ENCODING 1089
SWIDTH 1000 0
DWIDTH 6 0
BBX 5 5 0 0
BITMAP
70
80
80
88
70
ENDCHAR
STARTCHAR U+0442
ENCODING 1090
SWIDTH 1000 0
DWIDTH 6 0
BBX 5 5 0 0
BITMAP
F8
20
20
20
20
ENDCHAR
STARTCHAR U+0443
ENCODING 1091
SWIDTH 1000 0
DWIDTH 6 0
BBX 5 5 0 0
BITMAP
88
88
78
08
70
ENDCHAR
STARTCHAR U+0444
ENCODING 1092
SWIDTH 1000 0
DWIDTH 6 0
BBX 5 7 0 0
BITMAP
20
20
70
A8
A8
70
20
ENDCHAR
STARTCHAR U+0445
ENCODING 1093
SWIDTH 1000 0
DWIDTH 6 0
BBX 5 5 0 0
BITMAP
88
50
20
50
88
ENDCHAR
STARTCHAR U+0446
ENCODING 1094
SWIDTH 1000 0
DWIDTH 6 0
BBX 5 5 0 0
BITMAP
90
90
90
F8
08
ENDCHAR
STARTCHAR U+0447
ENCODING 1095
SWIDTH 1000 0
DWIDTH 6 0
BBX 5 5 0 0
BITMAP
88
88
88
78
08
ENDCHAR
STARTCHAR U+0448
ENCODING 1096
SWIDTH 1000 0
DWIDTH 6 0
BBX 5 5 0 0
BITMAP
A8
A8
A8
A8
F8
ENDCHAR
STARTCHAR U+0449
ENCODING 1097
SWIDTH 1000 0
DWIDTH 6 0
BBX 5 5 0 0
BITMAP
A8
A8
A8
F8
08
ENDCHAR
STARTCHAR U+044A
ENCODING 1098
SWIDTH 1000 0
DWIDTH 6 0
BBX 5 5 0 0
BITMAP
C0
40
70
48
70
ENDCHAR
STARTCHAR U+044B
ENCODING 1099
SWIDTH 1000 0
DWIDTH 6 0
BBX 5 5 0 0
BITMAP
88
88
E8
98
E8
ENDCHAR
STARTCHAR U+044C
ENCODING 1100
SWIDTH 1000 0
DWIDTH 6 0
BBX 5 5 0 0
BITMAP
80
80
F0
88
F0
ENDCHAR
STARTCHAR U+044D
ENCODING 1101
SWIDTH 1000 0
DWIDTH 6 0
BBX 5 5 0 0
BITMAP
70
88
38
88
70
ENDCHAR
STARTCHAR U+044E
ENCODING 1102
SWIDTH 1000 0
DWIDTH 6 0
BBX 5 5 0 0
BITMAP
90
A8
E8
A8
90
ENDCHAR
STARTCHAR U+044F
ENCODING 1103
SWIDTH 1000 0
DWIDTH 6 0
BBX 5 5 0 0
BITMAP
78
88
78
48
88
ENDCHAR
STARTCHAR U+0451
ENCODING 1105
SWIDTH 1000 0
DWIDTH 6 0
BBX 5 7 0 0
BITMAP
50
00
70
88
F8
80
70
ENDCHAR
STARTCHAR U+2010
ENCODING 8208
SWIDTH 1000 0
DWIDTH 6 0
BBX 3 1 1 3
BITMAP
E0
ENDCHAR
STARTCHAR U+2011
ENCODING 8209
SWIDTH 500 0
DWIDTH 3 0
BBX 2 1 0 3
BITMAP
C0
ENDCHAR
STARTCHAR U+2012
ENCODING 8210
SWIDTH 500 0
DWIDTH 3 0
BBX 3 1 0 3
BITMAP
E0
ENDCHAR
STARTCHAR U+2013
ENCODING 8211
SWIDTH 1000 0
DWIDTH 6 0
BBX 3 1 1 3
BITMAP
E0
ENDCHAR
STARTCHAR U+2014
ENCODING 8212
SWIDTH 1000 0
DWIDTH 6 0
BBX 5 1 0 3
BITMAP
F8
ENDCHAR
STARTCHAR U+2015
ENCODING 8213
SWIDTH 1000 0
DWIDTH 6 0
BBX 6 1 0 3
BITMAP
FC
ENDCHAR
STARTCHAR U+2016
ENCODING 8214
SWIDTH 1000 0
DWIDTH 6 0
BBX 3 7 1 0
BITMAP
A0
A0
A0
A0
A0
A0
A0
ENDCHAR
STARTCHAR U+2018
ENCODING 8216
SWIDTH 1000 0
DWIDTH 6 0
BBX 2 3 2 4
BITMAP
40
80
C0
ENDCHAR
STARTCHAR U+2019
ENCODING 8217
SWIDTH 1000 0
DWIDTH 6 0
BBX 2 3 1 4
BITMAP
C0
40
80
ENDCHAR
STARTCHAR U+201C
ENCODING 8220
SWIDTH 1000 0
DWIDTH 6 0
BBX 5 3 0 4
BITMAP
48
90
D8
ENDCHAR
STARTCHAR U+201D
ENCODING 8221
SWIDTH 1000 0
DWIDTH 6 0
BBX 5 3 0 4
BITMAP
D8
48
90
ENDCHAR
STARTCHAR U+2020
ENCODING 8224
SWIDTH 1000 0
DWIDTH 6 0
BBX 3 7 1 0
BITMAP
40
E0
40
40
40
40
40
ENDCHAR
STARTCHAR U+2021
ENCODING 8225
SWIDTH 1000 0
DWIDTH 6 0
BBX 3 7 1 0
BITMAP
40
E0
40
40
40
E0
40
ENDCHAR
STARTCHAR U+2025
ENCODING 8229
SWIDTH 1000 0
DWIDTH 6 0
BBX 4 1 0 3
BITMAP
90
ENDCHAR
STARTCHAR U+2026
ENCODING 8230
SWIDTH 1000 0
DWIDTH 6 0
BBX 5 1 0 3
BITMAP
A8
ENDCHAR
STARTCHAR U+2030
ENCODING 8240
SWIDTH 1000 0
DWIDTH 6 0
BBX 5 7 0 0
BITMAP
C8
D0
20
40
80
D8
D8
ENDCHAR
STARTCHAR U+2032
ENCODING 8242
SWIDTH 1000 0
DWIDTH 6 0
BBX 2 3 0 4
BITMAP
40
40
80
ENDCHAR
STARTCHAR U+2033
ENCODING 8243
SWIDTH 1000 0
DWIDTH 6 0
BBX 4 3 0 4
BITMAP
50
50
A0
ENDCHAR
STARTCHAR U+203B
ENCODING 8251
SWIDTH 1000 0
DWIDTH 6 0
BBX 5 7 0 0
BITMAP
20
88
50
A8
50
88
20
ENDCHAR
STARTCHAR U+203E
ENCODING 8254
SWIDTH 1000 0
DWIDTH 6 0
BBX 5 1 0 6
BITMAP
F8
ENDCHAR
STARTCHAR U+2103
ENCODING 8451
SWIDTH 1000 0
DWIDTH 6 0
BBX 5 7 0 0
BITMAP
40
B0
68
20
20
28
10
ENDCHAR
STARTCHAR U+2116
ENCODING 8470
SWIDTH 1000 0
DWIDTH 6 0
BBX 5 7 0 0
BITMAP
D0
A8
A8
B0
A0
B8
A0
ENDCHAR
STARTCHAR U+212B
ENCODING 8491
SWIDTH 1000 0
DWIDTH 6 0
BBX 5 7 0 0
BITMAP
20
50
20
50
88
F8
88
ENDCHAR
STARTCHAR U+2160
ENCODING 8544
SWIDTH 1000 0
DWIDTH 6 0
BBX 3 7 1 0
BITMAP
E0
40
40
40
40
40
E0
ENDCHAR
STARTCHAR U+2161
ENCODING 8545
SWIDTH 1000 0
DWIDTH 6 0
BBX 5 7 0 0
BITMAP
F8
50
50
50
50
50
F8
ENDCHAR
STARTCHAR U+2162
ENCODING 8546
SWIDTH 1000 0
DWIDTH 6 0
BBX 5 7 0 0
BITMAP
F8
A8
A8
A8
A8
A8
F8
ENDCHAR
STARTCHAR U+2163
ENCODING 8547
SWIDTH 1000 0
DWIDTH 6 0
BBX 5 7 0 0
BITMAP
F8
A8
A8
A8
90
90
F8
ENDCHAR
STARTCHAR U+2164
ENCODING 8548
SWIDTH 1000 0
DWIDTH 6 0
BBX 5 7 0 0
BITMAP
F8
50
50
50
20
20
F8
ENDCHAR
STARTCHAR U+2165
ENCODING 8549
SWIDTH 1000 0
DWIDTH 6 0
BBX 5 7 0 0
BITMAP
F8
A8
A8
A8
48
48
F8
ENDCHAR
STARTCHAR U+2166
ENCODING 8550
SWIDTH 1000 0
DWIDTH 6 0
BBX 5 7 0 0
BITMAP
F8
A8
A8
A8
68
68
F8
ENDCHAR
STARTCHAR U+2167
ENCODING 8551
SWIDTH 1000 0
DWIDTH 6 0
BBX 5 7 0 0
BITMAP
F8
B8
B8
B8
78
78
F8
ENDCHAR
STARTCHAR U+2168
ENCODING 8552
SWIDTH 1000 0
DWIDTH 6 0
BBX 5 7 0 0
BITMAP
F8
A8
A8
90
A8
A8
F8
ENDCHAR
STARTCHAR U+2169
ENCODING 8553
SWIDTH 1000 0
DWIDTH 6 0
BBX 5 7 0 0
BITMAP
F8
50
50
20
50
50
F8
ENDCHAR
STARTCHAR U+216A
ENCODING 8554
SWIDTH 1000 0
DWIDTH 6 0
BBX 5 7 0 0
BITMAP
F8
A8
A8
48
A8
A8
F8
ENDCHAR
STARTCHAR U+216B
ENCODING 8555
SWIDTH 1000 0
DWIDTH 6 0
BBX 5 7 0 0
BITMAP
F8
A8
A8
68
A8
A8
F8
ENDCHAR
STARTCHAR U+216C
ENCODING 8556
SWIDTH 1000 0
DWIDTH 6 0
BBX 5 7 0 0
BITMAP
E0
40
40
40
40
48
F8
ENDCHAR
STARTCHAR U+216D
ENCODING 8557
SWIDTH 1000 0
DWIDTH 6 0
BBX 5 7 0 0
BITMAP
68
98
80
80
80
88
70
ENDCHAR
STARTCHAR U+216E
ENCODING 8558
SWIDTH 1000 0
DWIDTH 6 0
BBX 5 7 0 0
BITMAP
E0
50
48
48
48
50
E0
ENDCHAR
STARTCHAR U+216F
ENCODING 8559
SWIDTH 1000 0
DWIDTH 6 0
BBX 5 7 0 0
BITMAP
88
D8
A8
A8
88
88
D8
ENDCHAR
STARTCHAR U+2170
ENCODING 8560
SWIDTH 1000 0
DWIDTH 6 0
BBX 3 7 1 0
BITMAP
40
00
40
C0
40
40
E0
ENDCHAR
STARTCHAR U+2171
ENCODING 8561
SWIDTH 1000 0
DWIDTH 6 0
BBX 5 7 0 0
BITMAP
48
00
48
D8
48
48
F8
ENDCHAR
STARTCHAR U+2172
ENCODING 8562
SWIDTH 1000 0
DWIDTH 6 0
BBX 5 7 0 0
BITMAP
A8
00
A8
F8
A8
A8
F8
ENDCHAR
STARTCHAR U+2173
ENCODING 8563
SWIDTH 1000 0
DWIDTH 6 0
BBX 5 7 0 0
BITMAP
80
00
A8
A8
A8
90
F8
ENDCHAR
STARTCHAR U+2174
ENCODING 8564
SWIDTH 1000 0
DWIDTH 6 0
BBX 5 5 0 0
BITMAP
D8
50
50
20
F8
ENDCHAR
STARTCHAR U+2175
ENCODING 8565
SWIDTH 1000 0
DWIDTH 6 0
BBX 5 7 0 0
BITMAP
08
00
A8
B8
A8
48
F8
ENDCHAR
STARTCHAR U+2176
ENCODING 8566
SWIDTH 1000 0
DWIDTH 6 0
BBX 5 7 0 0
BITMAP
28
00
A8
B8
A8
68
F8
ENDCHAR
STARTCHAR U+2177
ENCODING 8567
SWIDTH 1000 0
DWIDTH 6 0
BBX 5 7 0 0
BITMAP
38
00
B8
B8
B8
78
F8
ENDCHAR
STARTCHAR U+2178
ENCODING 8568
SWIDTH 1000 0
DWIDTH 6 0
BBX 5 7 0 0
BITMAP
80
00
A8
A8
90
A8
F8
ENDCHAR
STARTCHAR U+2179
ENCODING 8569
SWIDTH 1000 0
DWIDTH 6 0
BBX 5 5 0 0
BITMAP
D8
50
20
50
F8
ENDCHAR
STARTCHAR U+217A
ENCODING 8570
SWIDTH 1000 0
DWIDTH 6 0
BBX 5 7 0 0
BITMAP
08
00
A8
B8
48
A8
F8
ENDCHAR
STARTCHAR U+217B
ENCODING 8571
SWIDTH 1000 0
DWIDTH 6 0
BBX 5 7 0 0
BITMAP
28
00
A8
B8
68
A8
F8
ENDCHAR
STARTCHAR U+2190
ENCODING 8592
SWIDTH 1000 0
DWIDTH 6 0
BBX 5 5 0 1
BITMAP
20
40
F8
40
20
ENDCHAR
STARTCHAR U+2191
ENCODING 8593
SWIDTH 1000 0
DWIDTH 6 0
BBX 5 7 0 0
BITMAP
20
70
A8
20
20
20
20
ENDCHAR
STARTCHAR U+2192
ENCODING 8594
SWIDTH 1000 0
DWIDTH 6 0
BBX 5 5 0 1
BITMAP
20
10
F8
10
20
ENDCHAR
STARTCHAR U+2193
ENCODING 8595
SWIDTH 1000 0
DWIDTH 6 0
BBX 5 7 0 0
BITMAP
20
20
20
20
A8
70
20
ENDCHAR
STARTCHAR U+2194
ENCODING 8596
SWIDTH 1000 0
DWIDTH 6 0
BBX 5 3 0 2
BITMAP
50
F8
50
ENDCHAR
STARTCHAR U+2195
ENCODING 8597
SWIDTH 1000 0
DWIDTH 6 0
BBX 5 7 0 0
BITMAP
20
70
A8
20
A8
70
20
ENDCHAR
STARTCHAR U+2196
ENCODING 8598
SWIDTH 1000 0
DWIDTH 6 0
BBX 5 5 0 1
BITMAP
F0
C0
A0
90
08
ENDCHAR
STARTCHAR U+2197
ENCODING 8599
SWIDTH 1000 0
DWIDTH 6 0
BBX 5 5 0 1
BITMAP
78
18
28
48
80
ENDCHAR
STARTCHAR U+2198
ENCODING 8600
SWIDTH 1000 0
DWIDTH 6 0
BBX 5 5 0 1
BITMAP
80
48
28
18
78
ENDCHAR
STARTCHAR U+2199
ENCODING 8601
SWIDTH 1000 0
DWIDTH 6 0
BBX 5 5 0 1
BITMAP
08
90
A0
C0
F0
ENDCHAR
STARTCHAR U+21D2
ENCODING 8658
SWIDTH 1000 0
DWIDTH 6 0
BBX 5 5 0 1
BITMAP
20
F0
08
F0
20
ENDCHAR
STARTCHAR U+21D4
ENCODING 8660
SWIDTH 1000 0
DWIDTH 6 0
BBX 5 5 0 1
BITMAP
50
70
88
70
50
ENDCHAR
STARTCHAR U+2200
ENCODING 8704
SWIDTH 1000 0
DWIDTH 6 0
BBX 5 7 0 0
BITMAP
88
88
70
50
50
20
20
ENDCHAR
STARTCHAR U+2202
ENCODING 8706
SWIDTH 1000 0
DWIDTH 6 0
BBX 5 7 0 0
BITMAP
30
48
08
68
90
90
60
ENDCHAR
STARTCHAR U+2203
ENCODING 8707
SWIDTH 1000 0
DWIDTH 6 0
BBX 5 7 0 0
BITMAP
F8
08
08
F8
08
08
F8
ENDCHAR
STARTCHAR U+2207
ENCODING 8711
SWIDTH 1000 0
DWIDTH 6 0
BBX 5 7 0 0
BITMAP
F8
88
50
50
50
20
20
ENDCHAR
STARTCHAR U+2208
ENCODING 8712
SWIDTH 1000 0
DWIDTH 6 0
BBX 5 5 0 1
BITMAP
78
80
F8
80
78
ENDCHAR
STARTCHAR U+220B
ENCODING 8715
SWIDTH 1000 0
DWIDTH 6 0
BBX 5 5 0 1
BITMAP
F0
08
F8
08
F0
ENDCHAR
STARTCHAR U+220F
ENCODING 8719
SWIDTH 1000 0
DWIDTH 6 0
BBX 5 7 0 0
BITMAP
F8
88
88
88
88
88
88
ENDCHAR
STARTCHAR U+2211
ENCODING 8721
SWIDTH 1000 0
DWIDTH 6 0
BBX 5 7 0 0
BITMAP
F8
80
40
20
40
80
F8
ENDCHAR
STARTCHAR U+2212
ENCODING 8722
SWIDTH 500 0
DWIDTH 3 0
BBX 3 1 0 3
BITMAP
E0
ENDCHAR
STARTCHAR U+221A
ENCODING 8730
SWIDTH 1000 0
DWIDTH 6 0
BBX 5 7 0 0
BITMAP
38
20
20
20
A0
60
20
ENDCHAR
STARTCHAR U+221D
ENCODING 8733
SWIDTH 1000 0
DWIDTH 6 0
BBX 5 5 0 1
BITMAP
50
A8
A0
A8
50
ENDCHAR
STARTCHAR U+221E
ENCODING 8734
SWIDTH 1000 0
DWIDTH 6 0
BBX 5 5 0 1
BITMAP
50
A8
A8
A8
50
ENDCHAR
STARTCHAR U+2220
ENCODING 8736
SWIDTH 1000 0
DWIDTH 6 0
BBX 5 5 0 1
BITMAP
08
10
20
40
F8
ENDCHAR
STARTCHAR U+2225
ENCODING 8741
SWIDTH 1000 0
DWIDTH 6 0
BBX 5 7 0 0
BITMAP
20
28
48
50
90
A0
20
ENDCHAR
STARTCHAR U+2227
ENCODING 8743
SWIDTH 1000 0
DWIDTH 6 0
BBX 5 6 0 1
BITMAP
20
20
50
50
88
88
ENDCHAR
STARTCHAR U+2228
ENCODING 8744
SWIDTH 1000 0
DWIDTH 6 0
BBX 5 6 0 0
BITMAP
88
88
50
50
20
20
ENDCHAR
STARTCHAR U+2229
ENCODING 8745
SWIDTH 1000 0
DWIDTH 6 0
BBX 5 5 0 1
BITMAP
70
88
88
88
88
ENDCHAR
STARTCHAR U+222A
ENCODING 8746
SWIDTH 1000 0
DWIDTH 6 0
BBX 5 5 0 1
BITMAP
88
88
88
88
70
ENDCHAR
STARTCHAR U+222B
ENCODING 8747
SWIDTH 1000 0
DWIDTH 6 0
BBX 5 7 0 0
BITMAP
10
28
20
20
20
A0
40
ENDCHAR
STARTCHAR U+222C
ENCODING 8748
SWIDTH 1000 0
DWIDTH 6 0
BBX 5 7 0 0
BITMAP
28
50
50
50
50
50
A0
ENDCHAR
STARTCHAR U+222E
ENCODING 8750
SWIDTH 1000 0
DWIDTH 6 0
BBX 5 7 0 0
BITMAP
10
28
70
A8
70
A0
40
ENDCHAR
STARTCHAR U+2234
ENCODING 8756
SWIDTH 1000 0
DWIDTH 6 0
BBX 5 5 0 1
BITMAP
20
00
00
00
88
ENDCHAR
STARTCHAR U+2235
ENCODING 8757
SWIDTH 1000 0
DWIDTH 6 0
BBX 5 5 0 1
BITMAP
88
00
00
00
20
ENDCHAR
STARTCHAR U+2236
ENCODING 8758
SWIDTH 1000 0
DWIDTH 6 0
BBX 1 5 2 1
BITMAP
80
00
00
00
80
ENDCHAR
STARTCHAR U+2237
ENCODING 8759
SWIDTH 1000 0
DWIDTH 6 0
BBX 5 5 0 1
BITMAP
88
00
00
00
88
ENDCHAR
STARTCHAR U+223D
ENCODING 8765
SWIDTH 1000 0
DWIDTH 6 0
BBX 5 5 0 1
BITMAP
10
A8
A8
A8
40
ENDCHAR
STARTCHAR U+2248
ENCODING 8776
SWIDTH 1000 0
DWIDTH 6 0
BBX 5 6 0 0
BITMAP
40
A8
10
40
A8
10
ENDCHAR
STARTCHAR U+224C
ENCODING 8780
SWIDTH 1000 0
DWIDTH 6 0
BBX 5 7 0 0
BITMAP
10
A8
40
00
F8
00
F8
ENDCHAR
STARTCHAR U+2252
ENCODING 8786
SWIDTH 1000 0
DWIDTH 6 0
BBX 5 7 0 0
BITMAP
40
00
F8
00
F8
00
10
ENDCHAR
STARTCHAR U+2260
ENCODING 8800
SWIDTH 1000 0
DWIDTH 6 0
BBX 5 5 0 1
BITMAP
10
F8
20
F8
40
ENDCHAR
STARTCHAR U+2261
ENCODING 8801
SWIDTH 1000 0
DWIDTH 6 0
BBX 5 5 0 1
BITMAP
F8
00
F8
00
F8
ENDCHAR
STARTCHAR U+2264
ENCODING 8804
SWIDTH 1000 0
DWIDTH 6 0
BBX 5 7 0 0
BITMAP
18
60
80
60
18
00
F8
ENDCHAR
STARTCHAR U+2265
ENCODING 8805
SWIDTH 1000 0
DWIDTH 6 0
BBX 5 7 0 0
BITMAP
C0
30
08
30
C0
00
F8
ENDCHAR
STARTCHAR U+2266
ENCODING 8806
SWIDTH 1000 0
DWIDTH 6 0
BBX 5 7 0 0
BITMAP
18
60
80
60
18
00
F8
ENDCHAR
STARTCHAR U+2267
ENCODING 8807
SWIDTH 1000 0
DWIDTH 6 0
BBX 5 7 0 0
BITMAP
C0
30
08
30
C0
00
F8
ENDCHAR
STARTCHAR U+226A
ENCODING 8810
SWIDTH 1000 0
DWIDTH 6 0
BBX 5 5 0 1
BITMAP
28
50
A0
50
28
ENDCHAR
STARTCHAR U+226B
ENCODING 8811
SWIDTH 1000 0
DWIDTH 6 0
BBX 5 5 0 1
BITMAP
A0
50
28
50
A0
ENDCHAR
STARTCHAR U+226E
ENCODING 8814
SWIDTH 1000 0
DWIDTH 6 0
BBX 5 7 0 0
BITMAP
10
18
60
A0
60
58
40
ENDCHAR
STARTCHAR U+226F
ENCODING 8815
SWIDTH 1000 0
DWIDTH 6 0
BBX 5 7 0 0
BITMAP
40
C0
30
28
30
D0
10
ENDCHAR
STARTCHAR U+2282
ENCODING 8834
SWIDTH 1000 0
DWIDTH 6 0
BBX 5 5 0 1
BITMAP
78
80
80
80
78
ENDCHAR
STARTCHAR U+2283
ENCODING 8835
SWIDTH 1000 0
DWIDTH 6 0
BBX 5 5 0 1
BITMAP
F0
08
08
08
F0
ENDCHAR
STARTCHAR U+2286
ENCODING 8838
SWIDTH 1000 0
DWIDTH 6 0
BBX 5 7 0 0
BITMAP
78
80
80
80
78
00
F8
ENDCHAR
STARTCHAR U+2287
ENCODING 8839
SWIDTH 1000 0
DWIDTH 6 0
BBX 5 7 0 0
BITMAP
F0
08
08
08
F0
00
F8
ENDCHAR
STARTCHAR U+2299
ENCODING 8857
SWIDTH 1000 0
DWIDTH 6 0
BBX 5 5 0 1
BITMAP
70
88
A8
88
70
ENDCHAR
STARTCHAR U+22A5
ENCODING 8869
SWIDTH 1000 0
DWIDTH 6 0
BBX 5 5 0 1
BITMAP
20
20
20
20
F8
ENDCHAR
STARTCHAR U+2312
ENCODING 8978
SWIDTH 1000 0
DWIDTH 6 0
BBX 5 2 0 5
BITMAP
70
88
ENDCHAR
STARTCHAR U+2423
ENCODING 9251
SWIDTH 500 0
DWIDTH 3 0
BBX 3 2 0 0
BITMAP
A0
E0
ENDCHAR
STARTCHAR U+2460
ENCODING 9312
SWIDTH 1000 0
DWIDTH 6 0
BBX 5 7 0 0
BITMAP
70
88
A8
A8
A8
88
70
ENDCHAR
STARTCHAR U+2461
ENCODING 9313
SWIDTH 1000 0
DWIDTH 6 0
BBX 5 7 0 0
BITMAP
70
88
E8
A8
B8
88
70
ENDCHAR
STARTCHAR U+2462
ENCODING 9314
SWIDTH 1000 0
DWIDTH 6 0
BBX 5 7 0 0
BITMAP
70
88
E8
B8
F8
88
70
ENDCHAR
STARTCHAR U+2463
ENCODING 9315
SWIDTH 1000 0
DWIDTH 6 0
BBX 5 7 0 0
BITMAP
70
88
D8
F8
98
88
70
ENDCHAR
STARTCHAR U+2464
ENCODING 9316
SWIDTH 1000 0
DWIDTH 6 0
BBX 5 7 0 0
BITMAP
70
88
B8
A8
E8
88
70
ENDCHAR
STARTCHAR U+2465
ENCODING 9317
SWIDTH 1000 0
DWIDTH 6 0
BBX 5 7 0 0
BITMAP
70
88
A8
B8
B8
88
70
ENDCHAR
STARTCHAR U+2466
ENCODING 9318
SWIDTH 1000 0
DWIDTH 6 0
BBX 5 7 0 0
BITMAP
70
88
F8
98
A8
88
70
ENDCHAR
STARTCHAR U+2467
ENCODING 9319
SWIDTH 1000 0
DWIDTH 6 0
BBX 5 7 0 0
BITMAP
70
88
E8
F8
B8
88
70
ENDCHAR
STARTCHAR U+2468
ENCODING 9320
SWIDTH 1000 0
DWIDTH 6 0
BBX 5 7 0 0
BITMAP
70
88
E8
E8
A8
88
70
ENDCHAR
STARTCHAR U+2469
ENCODING 9321
SWIDTH 1000 0
DWIDTH 6 0
BBX 5 7 0 0
BITMAP
70
88
D8
E8
D8
88
70
ENDCHAR
STARTCHAR U+246A
ENCODING 9322
SWIDTH 1000 0
DWIDTH 6 0
BBX 5 7 0 0
BITMAP
70
88
D8
D8
D8
88
70
ENDCHAR
STARTCHAR U+246B
ENCODING 9323
SWIDTH 1000 0
DWIDTH 6 0
BBX 5 7 0 0
BITMAP
70
A8
D8
E8
F8
88
70
ENDCHAR
STARTCHAR U+246C
ENCODING 9324
SWIDTH 1000 0
DWIDTH 6 0
BBX 5 7 0 0
BITMAP
70
A8
D8
E8
D8
A8
70
ENDCHAR
STARTCHAR U+246D
ENCODING 9325
SWIDTH 1000 0
DWIDTH 6 0
BBX 5 7 0 0
BITMAP
70
88
E8
F8
D8
88
70
ENDCHAR
STARTCHAR U+246E
ENCODING 9326
SWIDTH 1000 0
DWIDTH 6 0
BBX 5 7 0 0
BITMAP
70
88
F8
E8
D8
A8
70
ENDCHAR
STARTCHAR U+246F
ENCODING 9327
SWIDTH 1000 0
DWIDTH 6 0
BBX 5 7 0 0
BITMAP
70
98
E8
F8
F8
88
70
ENDCHAR
STARTCHAR U+2470
ENCODING 9328
SWIDTH 1000 0
DWIDTH 6 0
BBX 5 7 0 0
BITMAP
70
88
F8
D8
E8
88
70
ENDCHAR
STARTCHAR U+2471
ENCODING 9329
SWIDTH 1000 0
DWIDTH 6 0
BBX 5 7 0 0
BITMAP
70
98
E8
D8
E8
98
70
ENDCHAR
STARTCHAR U+2472
ENCODING 9330
SWIDTH 1000 0
DWIDTH 6 0
BBX 5 7 0 0
BITMAP
70
88
F8
F8
D8
A8
70
ENDCHAR
STARTCHAR U+2473
ENCODING 9331
SWIDTH 1000 0
DWIDTH 6 0
BBX 5 7 0 0
BITMAP
70
C8
B8
D8
F8
88
70
ENDCHAR
STARTCHAR U+2474
ENCODING 9332
SWIDTH 1000 0
DWIDTH 6 0
BBX 5 7 0 0
BITMAP
50
88
A8
A8
A8
88
50
ENDCHAR
STARTCHAR U+2475
ENCODING 9333
SWIDTH 1000 0
DWIDTH 6 0
BBX 5 7 0 0
BITMAP
50
88
E8
A8
B8
88
50
ENDCHAR
STARTCHAR U+2476
ENCODING 9334
SWIDTH 1000 0
DWIDTH 6 0
BBX 5 7 0 0
BITMAP
50
88
E8
B8
F8
88
50
ENDCHAR
STARTCHAR U+2477
ENCODING 9335
SWIDTH 1000 0
DWIDTH 6 0
BBX 5 7 0 0
BITMAP
50
88
D8
F8
98
88
50
ENDCHAR
STARTCHAR U+2478
ENCODING 9336
SWIDTH 1000 0
DWIDTH 6 0
BBX 5 7 0 0
BITMAP
50
88
B8
A8
E8
88
50
ENDCHAR
STARTCHAR U+2479
ENCODING 9337
SWIDTH 1000 0
DWIDTH 6 0
BBX 5 7 0 0
BITMAP
50
88
A8
B8
B8
88
50
ENDCHAR
STARTCHAR U+247A
ENCODING 9338
SWIDTH 1000 0
DWIDTH 6 0
BBX 5 7 0 0
BITMAP
50
88
F8
98
A8
88
50
ENDCHAR
STARTCHAR U+247B
ENCODING 9339
SWIDTH 1000 0
DWIDTH 6 0
BBX 5 7 0 0
BITMAP
50
88
E8
F8
B8
88
50
ENDCHAR
STARTCHAR U+247C
ENCODING 9340
SWIDTH 1000 0
DWIDTH 6 0
BBX 5 7 0 0
BITMAP
50
88
E8
E8
A8
88
50
ENDCHAR
STARTCHAR U+247D
ENCODING 9341
SWIDTH 1000 0
DWIDTH 6 0
BBX 5 7 0 0
BITMAP
50
88
D8
E8
D8
88
50
ENDCHAR
STARTCHAR U+247E
ENCODING 9342
SWIDTH 1000 0
DWIDTH 6 0
BBX 5 7 0 0
BITMAP
50
88
D8
D8
D8
88
50
ENDCHAR
STARTCHAR U+247F
ENCODING 9343
SWIDTH 1000 0
DWIDTH 6 0
BBX 5 7 0 0
BITMAP
50
A8
D8
E8
F8
88
50
ENDCHAR
STARTCHAR U+2480
ENCODING 9344
SWIDTH 1000 0
DWIDTH 6 0
BBX 5 7 0 0
BITMAP
50
A8
D8
E8
D8
A8
50
ENDCHAR
STARTCHAR U+2481
ENCODING 9345
SWIDTH 1000 0
DWIDTH 6 0
BBX 5 7 0 0
BITMAP
50
88
E8
F8
D8
88
50
ENDCHAR
STARTCHAR U+2482
ENCODING 9346
SWIDTH 1000 0
DWIDTH 6 0
BBX 5 7 0 0
BITMAP
50
88
F8
E8
D8
A8
50
ENDCHAR
STARTCHAR U+2483
ENCODING 9347
SWIDTH 1000 0
DWIDTH 6 0
BBX 5 7 0 0
BITMAP
50
98
E8
F8
F8
88
50
ENDCHAR
STARTCHAR U+2484
ENCODING 9348
SWIDTH 1000 0
DWIDTH 6 0
BBX 5 7 0 0
BITMAP
50
88
F8
D8
E8
88
50
ENDCHAR
STARTCHAR U+2485
ENCODING 9349
SWIDTH 1000 0
DWIDTH 6 0
BBX 5 7 0 0
BITMAP
50
98
E8
D8
E8
98
50
ENDCHAR
STARTCHAR U+2486
ENCODING 9350
SWIDTH 1000 0
DWIDTH 6 0
BBX 5 7 0 0
BITMAP
50
88
F8
F8
D8
A8
50
ENDCHAR
STARTCHAR U+2487
ENCODING 9351
SWIDTH 1000 0
DWIDTH 6 0
BBX 5 7 0 0
BITMAP
50
C8
B8
D8
F8
88
50
ENDCHAR
STARTCHAR U+2488
ENCODING 9352
SWIDTH 1000 0
DWIDTH 6 0
BBX 5 7 0 0
BITMAP
40
C0
40
40
40
40
E8
ENDCHAR
STARTCHAR U+2489
ENCODING 9353
SWIDTH 1000 0
DWIDTH 6 0
BBX 5 7 0 0
BITMAP
40
A0
20
40
40
80
E8
ENDCHAR
STARTCHAR U+248A
ENCODING 9354
SWIDTH 1000 0
DWIDTH 6 0
BBX 5 7 0 0
BITMAP
40
A0
20
40
20
A0
48
ENDCHAR
STARTCHAR U+248B
ENCODING 9355
SWIDTH 1000 0
DWIDTH 6 0
BBX 5 7 0 0
BITMAP
20
60
A0
A0
E0
20
28
ENDCHAR
STARTCHAR U+248C
ENCODING 9356
SWIDTH 1000 0
DWIDTH 6 0
BBX 5 7 0 0
BITMAP
E0
80
C0
A0
20
A0
48
ENDCHAR
STARTCHAR U+248D
ENCODING 9357
SWIDTH 1000 0
DWIDTH 6 0
BBX 5 7 0 0
BITMAP
40
A0
80
C0
A0
A0
48
ENDCHAR
STARTCHAR U+248E
ENCODING 9358
SWIDTH 1000 0
DWIDTH 6 0
BBX 5 7 0 0
BITMAP
E0
A0
20
40
40
40
48
ENDCHAR
STARTCHAR U+248F
ENCODING 9359
SWIDTH 1000 0
DWIDTH 6 0
BBX 5 7 0 0
BITMAP
40
A0
A0
40
A0
A0
48
ENDCHAR
STARTCHAR U+2490
ENCODING 9360
SWIDTH 1000 0
DWIDTH 6 0
BBX 5 7 0 0
BITMAP
40
A0
A0
60
20
A0
48
ENDCHAR
STARTCHAR U+2491
ENCODING 9361
SWIDTH 1000 0
DWIDTH 6 0
BBX 5 6 0 0
BITMAP
90
A8
B8
A8
90
08
ENDCHAR
STARTCHAR U+2492
ENCODING 9362
SWIDTH 1000 0
DWIDTH 6 0
BBX 5 6 0 0
BITMAP
A0
A0
A0
A0
A0
08
ENDCHAR
STARTCHAR U+2493
ENCODING 9363
SWIDTH 1000 0
DWIDTH 6 0
BBX 5 6 0 0
BITMAP
A0
90
90
A0
B0
08
ENDCHAR
STARTCHAR U+2494
ENCODING 9364
SWIDTH 1000 0
DWIDTH 6 0
BBX 5 6 0 0
BITMAP
A0
90
A0
90
A0
08
ENDCHAR
STARTCHAR U+2495
ENCODING 9365
SWIDTH 1000 0
DWIDTH 6 0
BBX 5 6 0 0
BITMAP
90
B0
D0
F0
90
08
ENDCHAR
STARTCHAR U+2496
ENCODING 9366
SWIDTH 1000 0
DWIDTH 6 0
BBX 5 6 0 0
BITMAP
B0
A0
B0
90
A0
08
ENDCHAR
STARTCHAR U+2497
ENCODING 9367
SWIDTH 1000 0
DWIDTH 6 0
BBX 5 6 0 0
BITMAP
90
A0
B0
A8
90
08
ENDCHAR
STARTCHAR U+2498
ENCODING 9368
SWIDTH 1000 0
DWIDTH 6 0
BBX 5 6 0 0
BITMAP
B8
88
90
90
90
08
ENDCHAR
STARTCHAR U+2499
ENCODING 9369
SWIDTH 1000 0
DWIDTH 6 0
BBX 5 6 0 0
BITMAP
90
A8
90
A8
90
08
ENDCHAR
STARTCHAR U+249A
ENCODING 9370
SWIDTH 1000 0
DWIDTH 6 0
BBX 5 6 0 0
BITMAP
90
A8
98
88
B0
08
ENDCHAR
STARTCHAR U+249B
ENCODING 9371
SWIDTH 1000 0
DWIDTH 6 0
BBX 5 6 0 0
BITMAP
90
68
78
A8
D0
08
ENDCHAR
STARTCHAR U+24EA
ENCODING 9450
SWIDTH 1000 0
DWIDTH 6 0
BBX 5 7 0 0
BITMAP
70
88
A8
D8
A8
88
70
ENDCHAR
STARTCHAR U+2500
ENCODING 9472
SWIDTH 1000 0
DWIDTH 6 0
BBX 6 1 0 3
BITMAP
FC
ENDCHAR
STARTCHAR U+2501
ENCODING 9473
SWIDTH 1000 0
DWIDTH 6 0
BBX 6 2 0 2
BITMAP
FC
FC
ENDCHAR
STARTCHAR U+2502
ENCODING 9474
SWIDTH 1000 0
DWIDTH 6 0
BBX 1 8 2 -1
BITMAP
80
80
80
80
80
80
80
80
ENDCHAR
STARTCHAR U+2503
ENCODING 9475
SWIDTH 1000 0
DWIDTH 6 0
BBX 2 8 2 -1
BITMAP
C0
C0
C0
C0
C0
C0
C0
C0
ENDCHAR
STARTCHAR U+2504
ENCODING 9476
SWIDTH 1000 0
DWIDTH 6 0
BBX 5 1 0 3
BITMAP
A8
ENDCHAR
STARTCHAR U+2505
ENCODING 9477
SWIDTH 1000 0
DWIDTH 6 0
BBX 5 2 0 3
BITMAP
A8
A8
ENDCHAR
STARTCHAR U+2506
ENCODING 9478
SWIDTH 1000 0
DWIDTH 6 0
BBX 1 8 2 -1
BITMAP
80
80
00
80
80
00
80
80
ENDCHAR
STARTCHAR U+2507
ENCODING 9479
SWIDTH 1000 0
DWIDTH 6 0
BBX 2 8 2 -1
BITMAP
C0
C0
00
C0
C0
00
C0
C0
ENDCHAR
STARTCHAR U+2508
ENCODING 9480
SWIDTH 1000 0
DWIDTH 6 0
BBX 6 1 0 3
BITMAP
B4
ENDCHAR
STARTCHAR U+2509
ENCODING 9481
SWIDTH 1000 0
DWIDTH 6 0
BBX 6 2 0 2
BITMAP
B4
B4
ENDCHAR
STARTCHAR U+250A
ENCODING 9482
SWIDTH 1000 0
DWIDTH 6 0
BBX 1 7 2 0
BITMAP
80
00
80
00
80
00
80
ENDCHAR
STARTCHAR U+250B
ENCODING 9483
SWIDTH 1000 0
DWIDTH 6 0
BBX 2 7 2 0
BITMAP
C0
00
C0
00
C0
00
C0
ENDCHAR
STARTCHAR U+250C
ENCODING 9484
SWIDTH 1000 0
DWIDTH 6 0
BBX 4 5 2 -1
BITMAP
F0
80
80
80
80
ENDCHAR
STARTCHAR U+250D
ENCODING 9485
SWIDTH 1000 0
DWIDTH 6 0
BBX 4 5 2 -1
BITMAP
F0
F0
80
80
80
ENDCHAR
STARTCHAR U+250E
ENCODING 9486
SWIDTH 1000 0
DWIDTH 6 0
BBX 4 5 2 -1
BITMAP
F0
C0
C0
C0
C0
ENDCHAR
STARTCHAR U+250F
ENCODING 9487
SWIDTH 1000 0
DWIDTH 6 0
BBX 4 5 2 -1
BITMAP
F0
F0
C0
C0
C0
ENDCHAR
STARTCHAR U+2510
ENCODING 9488
SWIDTH 1000 0
DWIDTH 6 0
BBX 3 5 0 -1
BITMAP
E0
20
20
20
20
ENDCHAR
STARTCHAR U+2511
ENCODING 9489
SWIDTH 1000 0
DWIDTH 6 0
BBX 3 5 0 -1
BITMAP
E0
E0
20
20
20
ENDCHAR
STARTCHAR U+2512
ENCODING 9490
SWIDTH 1000 0
DWIDTH 6 0
BBX 4 5 0 -1
BITMAP
F0
30
30
30
30
ENDCHAR
STARTCHAR U+2513
ENCODING 9491
SWIDTH 1000 0
DWIDTH 6 0
BBX 4 5 0 -1
BITMAP
F0
F0
30
30
30
ENDCHAR
STARTCHAR U+2514
ENCODING 9492
SWIDTH 1000 0
DWIDTH 6 0
BBX 4 4 2 3
BITMAP
80
80
80
F0
ENDCHAR
STARTCHAR U+2515
ENCODING 9493
SWIDTH 1000 0
DWIDTH 6 0
BBX 4 5 2 2
BITMAP
80
80
80
F0
F0
ENDCHAR
STARTCHAR U+2516
ENCODING 9494
SWIDTH 1000 0
DWIDTH 6 0
BBX 4 4 2 3
BITMAP
C0
C0
C0
F0
ENDCHAR
STARTCHAR U+2517
ENCODING 9495
SWIDTH 1000 0
DWIDTH 6 0
BBX 4 5 2 2
BITMAP
C0
C0
C0
F0
F0
ENDCHAR
STARTCHAR U+2518
ENCODING 9496
SWIDTH 1000 0
DWIDTH 6 0
BBX 3 4 0 3
BITMAP
20
20
20
E0
ENDCHAR
STARTCHAR U+2519
ENCODING 9497
SWIDTH 1000 0
DWIDTH 6 0
BBX 3 5 0 2
BITMAP
20
20
20
E0
E0
ENDCHAR
STARTCHAR U+251A
ENCODING 9498
SWIDTH 1000 0
DWIDTH 6 0
BBX 4 4 0 3
BITMAP
30
30
30
F0
ENDCHAR
STARTCHAR U+251B
ENCODING 9499
SWIDTH 1000 0
DWIDTH 6 0
BBX 4 5 0 2
BITMAP
30
30
30
F0
F0
ENDCHAR
STARTCHAR U+251C
ENCODING 9500
SWIDTH 1000 0
DWIDTH 6 0
BBX 4 8 2 -1
BITMAP
80
80
80
F0
80
80
80
80
ENDCHAR
STARTCHAR U+251D
ENCODING 9501
SWIDTH 1000 0
DWIDTH 6 0
BBX 4 8 2 -1
BITMAP
80
80
80
F0
F0
80
80
80
ENDCHAR
STARTCHAR U+251E
ENCODING 9502
SWIDTH 1000 0
DWIDTH 6 0
BBX 4 8 2 -1
BITMAP
C0
C0
C0
F0
80
80
80
80
ENDCHAR
STARTCHAR U+251F
ENCODING 9503
SWIDTH 1000 0
DWIDTH 6 0
BBX 4 8 2 -1
BITMAP
80
80
80
F0
C0
C0
C0
C0
ENDCHAR
STARTCHAR U+2520
ENCODING 9504
SWIDTH 1000 0
DWIDTH 6 0
BBX 4 8 2 -1
BITMAP
C0
C0
C0
F0
C0
C0
C0
C0
ENDCHAR
STARTCHAR U+2521
ENCODING 9505
SWIDTH 1000 0
DWIDTH 6 0
BBX 4 8 2 -1
BITMAP
C0
C0
C0
F0
F0
80
80
80
ENDCHAR
STARTCHAR U+2522
ENCODING 9506
SWIDTH 1000 0
DWIDTH 6 0
BBX 4 8 2 -1
BITMAP
80
80
80
F0
F0
C0
C0
C0
ENDCHAR
STARTCHAR U+2523
ENCODING 9507
SWIDTH 1000 0
DWIDTH 6 0
BBX 4 8 2 -1
BITMAP
C0
C0
C0
F0
F0
C0
C0
C0
ENDCHAR
STARTCHAR U+2524
ENCODING 9508
SWIDTH 1000 0
DWIDTH 6 0
BBX 3 8 0 -1
BITMAP
20
20
20
E0
20
20
20
20
ENDCHAR
STARTCHAR U+2525
ENCODING 9509
SWIDTH 1000 0
DWIDTH 6 0
BBX 3 8 0 -1
BITMAP
20
20
20
E0
E0
20
20
20
ENDCHAR
STARTCHAR U+2526
ENCODING 9510
SWIDTH 1000 0
DWIDTH 6 0
BBX 4 8 0 -1
BITMAP
30
30
30
F0
20
20
20
20
ENDCHAR
STARTCHAR U+2527
ENCODING 9511
SWIDTH 1000 0
DWIDTH 6 0
BBX 4 8 0 -1
BITMAP
20
20
20
F0
30
30
30
30
ENDCHAR
STARTCHAR U+2528
ENCODING 9512
SWIDTH 1000 0
DWIDTH 6 0
BBX 4 8 0 -1
BITMAP
30
30
30
F0
30
30
30
30
ENDCHAR
STARTCHAR U+2529
ENCODING 9513
SWIDTH 1000 0
DWIDTH 6 0
BBX 4 8 0 -1
BITMAP
30
30
30
F0
F0
20
20
20
ENDCHAR
STARTCHAR U+252A
ENCODING 9514
SWIDTH 1000 0
DWIDTH 6 0
BBX 4 8 0 -1
BITMAP
20
20
20
F0
F0
30
30
30
ENDCHAR
STARTCHAR U+252B
ENCODING 9515
SWIDTH 1000 0
DWIDTH 6 0
BBX 4 8 0 -1
BITMAP
30
30
30
F0
F0
30
30
30
ENDCHAR
STARTCHAR U+252C
ENCODING 9516
SWIDTH 1000 0
DWIDTH 6 0
BBX 6 5 0 -1
BITMAP
FC
20
20
20
20
ENDCHAR
STARTCHAR U+252D
ENCODING 9517
SWIDTH 1000 0
DWIDTH 6 0
BBX 6 5 0 -1
BITMAP
FC
E0
20
20
20
ENDCHAR
STARTCHAR U+252E
ENCODING 9518
SWIDTH 1000 0
DWIDTH 6 0
BBX 6 5 0 -1
BITMAP
FC
3C
20
20
20
ENDCHAR
STARTCHAR U+252F
ENCODING 9519
SWIDTH 1000 0
DWIDTH 6 0
BBX 6 5 0 -1
BITMAP
FC
FC
20
20
20
ENDCHAR
STARTCHAR U+2530
ENCODING 9520
SWIDTH 1000 0
DWIDTH 6 0
BBX 6 5 0 -1
BITMAP
FC
30
30
30
30
ENDCHAR
STARTCHAR U+2531
ENCODING 9521
SWIDTH 1000 0
DWIDTH 6 0
BBX 6 5 0 -1
BITMAP
FC
F0
30
30
30
ENDCHAR
STARTCHAR U+2532
ENCODING 9522
SWIDTH 1000 0
DWIDTH 6 0
BBX 6 5 0 -1
BITMAP
FC
3C
30
30
30
ENDCHAR
STARTCHAR U+2533
ENCODING 9523
SWIDTH 1000 0
DWIDTH 6 0
BBX 6 5 0 -1
BITMAP
FC
FC
30
30
30
ENDCHAR
STARTCHAR U+2534
ENCODING 9524
SWIDTH 1000 0
DWIDTH 6 0
BBX 6 4 0 3
BITMAP
20
20
20
FC
ENDCHAR
STARTCHAR U+2535
ENCODING 9525
SWIDTH 1000 0
DWIDTH 6 0
BBX 6 5 0 2
BITMAP
20
20
20
FC
E0
ENDCHAR
STARTCHAR U+2536
ENCODING 9526
SWIDTH 1000 0
DWIDTH 6 0
BBX 6 5 0 2
BITMAP
20
20
20
FC
3C
ENDCHAR
STARTCHAR U+2537
ENCODING 9527
SWIDTH 1000 0
DWIDTH 6 0
BBX 6 5 0 2
BITMAP
20
20
20
FC
FC
ENDCHAR
STARTCHAR U+2538
ENCODING 9528
SWIDTH 1000 0
DWIDTH 6 0
BBX 6 4 0 3
BITMAP
30
30
30
FC
ENDCHAR
STARTCHAR U+2539
ENCODING 9529
SWIDTH 1000 0
DWIDTH 6 0
BBX 6 5 0 2
BITMAP
30
30
30
FC
F0
ENDCHAR
STARTCHAR U+253A
ENCODING 9530
SWIDTH 1000 0
DWIDTH 6 0
BBX 6 5 0 2
BITMAP
30
30
30
FC
3C
ENDCHAR
STARTCHAR U+253B
ENCODING 9531
SWIDTH 1000 0
DWIDTH 6 0
BBX 6 5 0 2
BITMAP
30
30
30
FC
FC
ENDCHAR
STARTCHAR U+253C
ENCODING 9532
SWIDTH 1000 0
DWIDTH 6 0
BBX 6 8 0 -1
BITMAP
20
20
20
FC
20
20
20
20
ENDCHAR
STARTCHAR U+253D
ENCODING 9533
SWIDTH 1000 0
DWIDTH 6 0
BBX 6 8 0 -1
BITMAP
20
20
20
FC
E0
20
20
20
ENDCHAR
STARTCHAR U+253E
ENCODING 9534
SWIDTH 1000 0
DWIDTH 6 0
BBX 6 8 0 -1
BITMAP
20
20
20
FC
3C
20
20
20
ENDCHAR
STARTCHAR U+253F
ENCODING 9535
SWIDTH 1000 0
DWIDTH 6 0
BBX 6 8 0 -1
BITMAP
20
20
20
FC
FC
20
20
20
ENDCHAR
STARTCHAR U+2540
ENCODING 9536
SWIDTH 1000 0
DWIDTH 6 0
BBX 6 8 0 -1
BITMAP
30
30
30
FC
20
20
20
20
ENDCHAR
STARTCHAR U+2541
ENCODING 9537
SWIDTH 1000 0
DWIDTH 6 0
BBX 6 8 0 -1
BITMAP
20
20
20
FC
30
30
30
30
ENDCHAR
STARTCHAR U+2542
ENCODING 9538
SWIDTH 1000 0
DWIDTH 6 0
BBX 6 8 0 -1
BITMAP
30
30
30
FC
30
30
30
30
ENDCHAR
STARTCHAR U+2543
ENCODING 9539
SWIDTH 1000 0
DWIDTH 6 0
BBX 6 8 0 -1
BITMAP
30
30
30
FC
F0
20
20
20
ENDCHAR
STARTCHAR U+2544
ENCODING 9540
SWIDTH 1000 0
DWIDTH 6 0
BBX 6 8 0 -1
BITMAP
30
30
30
FC
3C
20
20
20
ENDCHAR
STARTCHAR U+2545
ENCODING 9541
SWIDTH 1000 0
DWIDTH 6 0
BBX 6 8 0 -1
BITMAP
20
20
20
FC
F0
30
30
30
ENDCHAR
STARTCHAR U+2546
ENCODING 9542
SWIDTH 1000 0
DWIDTH 6 0
BBX 6 8 0 -1
BITMAP
20
20
20
FC
3C
30
30
30
ENDCHAR
STARTCHAR U+2547
ENCODING 9543
SWIDTH 1000 0
DWIDTH 6 0
BBX 6 8 0 -1
BITMAP
30
30
30
FC
FC
20
20
20
ENDCHAR
STARTCHAR U+2548
ENCODING 9544
SWIDTH 1000 0
DWIDTH 6 0
BBX 6 8 0 -1
BITMAP
20
20
20
FC
FC
30
30
30
ENDCHAR
STARTCHAR U+2549
ENCODING 9545
SWIDTH 1000 0
DWIDTH 6 0
BBX 6 8 0 -1
BITMAP
30
30
30
FC
F0
30
30
30
ENDCHAR
STARTCHAR U+254A
ENCODING 9546
SWIDTH 1000 0
DWIDTH 6 0
BBX 6 8 0 -1
BITMAP
30
30
30
FC
3C
30
30
30
ENDCHAR
STARTCHAR U+254B
ENCODING 9547
SWIDTH 1000 0
DWIDTH 6 0
BBX 6 8 0 -1
BITMAP
30
30
30
FC
FC
30
30
30
ENDCHAR
STARTCHAR U+2550
ENCODING 9552
SWIDTH 1000 0
DWIDTH 6 0
BBX 6 3 0 2
BITMAP
FC
00
FC
ENDCHAR
STARTCHAR U+255E
ENCODING 9566
SWIDTH 1000 0
DWIDTH 6 0
BBX 4 8 2 -1
BITMAP
80
80
F0
80
F0
80
80
80
ENDCHAR
STARTCHAR U+2561
ENCODING 9569
SWIDTH 1000 0
DWIDTH 6 0
BBX 3 8 0 -1
BITMAP
20
20
E0
20
E0
20
20
20
ENDCHAR
STARTCHAR U+256A
ENCODING 9578
SWIDTH 1000 0
DWIDTH 6 0
BBX 6 8 0 -1
BITMAP
20
20
FC
20
FC
20
20
20
ENDCHAR
STARTCHAR U+256D
ENCODING 9581
SWIDTH 1000 0
DWIDTH 6 0
BBX 4 5 2 -1
BITMAP
30
40
80
80
80
ENDCHAR
STARTCHAR U+256E
ENCODING 9582
SWIDTH 1000 0
DWIDTH 6 0
BBX 3 5 0 -1
BITMAP
80
40
20
20
20
ENDCHAR
STARTCHAR U+256F
ENCODING 9583
SWIDTH 1000 0
DWIDTH 6 0
BBX 3 4 0 3
BITMAP
20
20
40
80
ENDCHAR
STARTCHAR U+2570
ENCODING 9584
SWIDTH 1000 0
DWIDTH 6 0
BBX 4 4 2 3
BITMAP
80
80
40
30
ENDCHAR
STARTCHAR U+2571
ENCODING 9585
SWIDTH 1000 0
DWIDTH 6 0
BBX 6 8 0 -1
BITMAP
04
08
08
10
20
40
40
80
ENDCHAR
STARTCHAR U+2572
ENCODING 9586
SWIDTH 1000 0
DWIDTH 6 0
BBX 6 8 0 -1
BITMAP
80
40
40
20
10
08
08
04
ENDCHAR
STARTCHAR U+2573
ENCODING 9587
SWIDTH 1000 0
DWIDTH 6 0
BBX 6 8 0 -1
BITMAP
84
48
48
30
30
48
48
84
ENDCHAR
STARTCHAR U+2581
ENCODING 9601
SWIDTH 1000 0
DWIDTH 6 0
BBX 6 1 0 -1
BITMAP
FC
ENDCHAR
STARTCHAR U+2582
ENCODING 9602
SWIDTH 1000 0
DWIDTH 6 0
BBX 6 2 0 -1
BITMAP
FC
FC
ENDCHAR
STARTCHAR U+2583
ENCODING 9603
SWIDTH 1000 0
DWIDTH 6 0
BBX 6 3 0 -1
BITMAP
FC
FC
FC
ENDCHAR
STARTCHAR U+2584
ENCODING 9604
SWIDTH 1000 0
DWIDTH 6 0
BBX 6 4 0 -1
BITMAP
FC
FC
FC
FC
ENDCHAR
STARTCHAR U+2585
ENCODING 9605
SWIDTH 1000 0
DWIDTH 6 0
BBX 6 5 0 -1
BITMAP
FC
FC
FC
FC
FC
ENDCHAR
STARTCHAR U+2586
ENCODING 9606
SWIDTH 1000 0
DWIDTH 6 0
BBX 6 6 0 -1
BITMAP
FC
FC
FC
FC
FC
FC
ENDCHAR
STARTCHAR U+2587
ENCODING 9607
SWIDTH 1000 0
DWIDTH 6 0
BBX 6 7 0 -1
BITMAP
FC
FC
FC
FC
FC
FC
FC
ENDCHAR
STARTCHAR U+2588
ENCODING 9608
SWIDTH 1000 0
DWIDTH 6 0
BBX 6 8 0 -1
BITMAP
FC
FC
FC
FC
FC
FC
FC
FC
ENDCHAR
STARTCHAR U+2589
ENCODING 9609
SWIDTH 1000 0
DWIDTH 6 0
BBX 5 8 0 -1
BITMAP
F8
F8
F8
F8
F8
F8
F8
F8
ENDCHAR
STARTCHAR U+258A
ENCODING 9610
SWIDTH 1000 0
DWIDTH 6 0
BBX 4 8 0 -1
BITMAP
F0
F0
F0
F0
F0
F0
F0
F0
ENDCHAR
STARTCHAR U+258B
ENCODING 9611
SWIDTH 1000 0
DWIDTH 6 0
BBX 4 8 0 -1
BITMAP
F0
F0
F0
F0
F0
F0
F0
F0
ENDCHAR
STARTCHAR U+258C
ENCODING 9612
SWIDTH 1000 0
DWIDTH 6 0
BBX 3 8 0 -1
BITMAP
E0
E0
E0
E0
E0
E0
E0
E0
ENDCHAR
STARTCHAR U+258D
ENCODING 9613
SWIDTH 1000 0
DWIDTH 6 0
BBX 2 8 0 -1
BITMAP
C0
C0
C0
C0
C0
C0
C0
C0
ENDCHAR
STARTCHAR U+258E
ENCODING 9614
SWIDTH 1000 0
DWIDTH 6 0
BBX 2 8 0 -1
BITMAP
C0
C0
C0
C0
C0
C0
C0
C0
ENDCHAR
STARTCHAR U+258F
ENCODING 9615
SWIDTH 1000 0
DWIDTH 6 0
BBX 1 8 0 -1
BITMAP
80
80
80
80
80
80
80
80
ENDCHAR
STARTCHAR U+2594
ENCODING 9620
SWIDTH 1000 0
DWIDTH 6 0
BBX 6 1 0 6
BITMAP
FC
ENDCHAR
STARTCHAR U+2595
ENCODING 9621
SWIDTH 1000 0
DWIDTH 6 0
BBX 1 8 5 -1
BITMAP
80
80
80
80
80
80
80
80
ENDCHAR
STARTCHAR U+25A0
ENCODING 9632
SWIDTH 1000 0
DWIDTH 6 0
BBX 5 5 0 1
BITMAP
F8
F8
F8
F8
F8
ENDCHAR
STARTCHAR U+25A1
ENCODING 9633
SWIDTH 1000 0
DWIDTH 6 0
BBX 5 5 0 1
BITMAP
F8
88
88
88
F8
ENDCHAR
STARTCHAR U+25B2
ENCODING 9650
SWIDTH 1000 0
DWIDTH 6 0
BBX 5 6 0 1
BITMAP
20
20
70
70
F8
F8
ENDCHAR
STARTCHAR U+25B3
ENCODING 9651
SWIDTH 1000 0
DWIDTH 6 0
BBX 5 6 0 1
BITMAP
20
20
50
50
88
F8
ENDCHAR
STARTCHAR U+25BC
ENCODING 9660
SWIDTH 1000 0
DWIDTH 6 0
BBX 5 6 0 0
BITMAP
F8
F8
70
70
20
20
ENDCHAR
STARTCHAR U+25BD
ENCODING 9661
SWIDTH 1000 0
DWIDTH 6 0
BBX 5 6 0 0
BITMAP
F8
88
50
50
20
20
ENDCHAR
STARTCHAR U+25C6
ENCODING 9670
SWIDTH 1000 0
DWIDTH 6 0
BBX 5 5 0 1
BITMAP
20
70
F8
70
20
ENDCHAR
STARTCHAR U+25C7
ENCODING 9671
SWIDTH 1000 0
DWIDTH 6 0
BBX 5 5 0 1
BITMAP
20
50
88
50
20
ENDCHAR
STARTCHAR U+25CB
ENCODING 9675
SWIDTH 1000 0
DWIDTH 6 0
BBX 5 5 0 1
BITMAP
70
88
88
88
70
ENDCHAR
STARTCHAR U+25CE
ENCODING 9678
SWIDTH 1000 0
DWIDTH 6 0
BBX 5 5 0 1
BITMAP
70
A8
D8
A8
70
ENDCHAR
STARTCHAR U+25CF
ENCODING 9679
SWIDTH 1000 0
DWIDTH 6 0
BBX 5 5 0 1
BITMAP
70
F8
F8
F8
70
ENDCHAR
STARTCHAR U+25E2
ENCODING 9698
SWIDTH 1000 0
DWIDTH 6 0
BBX 6 8 0 -1
BITMAP
04
0C
0C
1C
3C
7C
7C
FC
ENDCHAR
STARTCHAR U+25E3
ENCODING 9699
SWIDTH 1000 0
DWIDTH 6 0
BBX 6 8 0 -1
BITMAP
80
C0
C0
E0
F0
F8
F8
FC
ENDCHAR
STARTCHAR U+25E4
ENCODING 9700
SWIDTH 1000 0
DWIDTH 6 0
BBX 6 8 0 -1
BITMAP
FC
F8
F0
F0
E0
C0
C0
80
ENDCHAR
STARTCHAR U+25E5
ENCODING 9701
SWIDTH 1000 0
DWIDTH 6 0
BBX 6 8 0 -1
BITMAP
FC
7C
3C
3C
1C
0C
0C
04
ENDCHAR
STARTCHAR U+25EF
ENCODING 9711
SWIDTH 1000 0
DWIDTH 6 0
BBX 5 7 0 0
BITMAP
70
88
88
88
88
88
70
ENDCHAR
STARTCHAR U+2605
ENCODING 9733
SWIDTH 1000 0
DWIDTH 6 0
BBX 5 7 0 0
BITMAP
20
20
F8
70
70
D8
88
ENDCHAR
STARTCHAR U+2606
ENCODING 9734
SWIDTH 1000 0
DWIDTH 6 0
BBX 5 7 0 0
BITMAP
20
20
F8
50
70
D8
88
ENDCHAR
STARTCHAR U+262F
ENCODING 9775
SWIDTH 1000 0
DWIDTH 6 0
BBX 5 7 0 0
BITMAP
70
88
C8
98
E8
F8
70
ENDCHAR
STARTCHAR U+2640
ENCODING 9792
SWIDTH 1000 0
DWIDTH 6 0
BBX 5 7 0 0
BITMAP
70
88
88
70
20
F8
20
ENDCHAR
STARTCHAR U+2642
ENCODING 9794
SWIDTH 1000 0
DWIDTH 6 0
BBX 5 7 0 0
BITMAP
38
18
28
60
90
90
60
ENDCHAR
STARTCHAR U+2660
ENCODING 9824
SWIDTH 1000 0
DWIDTH 6 0
BBX 5 7 0 0
BITMAP
20
70
F8
F8
F8
20
70
ENDCHAR
STARTCHAR U+2661
ENCODING 9825
SWIDTH 1000 0
DWIDTH 6 0
BBX 5 6 0 0
BITMAP
D8
A8
88
88
50
20
ENDCHAR
STARTCHAR U+2662
ENCODING 9826
SWIDTH 1000 0
DWIDTH 6 0
BBX 5 7 0 0
BITMAP
20
50
88
88
88
50
20
ENDCHAR
STARTCHAR U+2663
ENCODING 9827
SWIDTH 1000 0
DWIDTH 6 0
BBX 5 7 0 0
BITMAP
70
70
70
F8
F8
20
70
ENDCHAR
STARTCHAR U+2664
ENCODING 9828
SWIDTH 1000 0
DWIDTH 6 0
BBX 5 7 0 0
BITMAP
20
50
88
88
F8
20
70
ENDCHAR
STARTCHAR U+2665
ENCODING 9829
SWIDTH 1000 0
DWIDTH 6 0
BBX 5 6 0 0
BITMAP
D8
F8
F8
F8
70
20
ENDCHAR
STARTCHAR U+2666
ENCODING 9830
SWIDTH 1000 0
DWIDTH 6 0
BBX 5 7 0 0
BITMAP
20
70
F8
F8
F8
70
20
ENDCHAR
STARTCHAR U+2667
ENCODING 9831
SWIDTH 1000 0
DWIDTH 6 0
BBX 5 7 0 0
BITMAP
70
50
70
A8
F8
20
70
ENDCHAR
STARTCHAR U+266A
ENCODING 9834
SWIDTH 1000 0
DWIDTH 6 0
BBX 5 7 0 0
BITMAP
20
30
38
28
28
E0
C0
ENDCHAR
STARTCHAR U+266D
ENCODING 9837
SWIDTH 1000 0
DWIDTH 6 0
BBX 4 7 1 0
BITMAP
80
80
A0
D0
90
A0
C0
ENDCHAR
STARTCHAR U+266F
ENCODING 9839
SWIDTH 1000 0
DWIDTH 6 0
BBX 5 7 0 0
BITMAP
10
58
70
D8
70
D0
40
ENDCHAR
STARTCHAR U+26E9
ENCODING 9961
SWIDTH 1000 0
DWIDTH 6 0
BBX 5 7 0 0
BITMAP
F8
50
70
50
50
50
50
ENDCHAR
STARTCHAR U+2BE8
ENCODING 11240
SWIDTH 1000 0
DWIDTH 6 0
BBX 3 7 0 0
BITMAP
20
20
E0
60
60
C0
80
ENDCHAR
STARTCHAR U+2BE9
ENCODING 11241
SWIDTH 1000 0
DWIDTH 6 0
BBX 3 7 2 0
BITMAP
80
80
E0
C0
C0
60
20
ENDCHAR
STARTCHAR U+2E80
ENCODING 11904
SWIDTH 1000 0
DWIDTH 6 0
BBX 4 6 0 0
BITMAP
C0
20
10
C0
20
10
ENDCHAR
STARTCHAR U+2E81
ENCODING 11905
SWIDTH 1000 0
DWIDTH 6 0
BBX 5 7 0 0
BITMAP
08
70
40
40
40
40
80
ENDCHAR
STARTCHAR U+2E82
ENCODING 11906
SWIDTH 1000 0
DWIDTH 6 0
BBX 5 3 0 4
BITMAP
F8
08
10
ENDCHAR
STARTCHAR U+2E83
ENCODING 11907
SWIDTH 1000 0
DWIDTH 6 0
BBX 5 7 0 0
BITMAP
80
80
80
80
80
88
78
ENDCHAR
STARTCHAR U+2E84
ENCODING 11908
SWIDTH 1000 0
DWIDTH 6 0
BBX 5 7 0 0
BITMAP
E0
20
20
20
20
10
08
ENDCHAR
STARTCHAR U+2E85
ENCODING 11909
SWIDTH 1000 0
DWIDTH 6 0
BBX 2 7 1 0
BITMAP
40
40
C0
C0
40
40
40
ENDCHAR
STARTCHAR U+2E86
ENCODING 11910
SWIDTH 1000 0
DWIDTH 6 0
BBX 5 7 0 0
BITMAP
78
48
48
48
48
48
98
ENDCHAR
STARTCHAR U+2E87
ENCODING 11911
SWIDTH 1000 0
DWIDTH 6 0
BBX 5 7 0 0
BITMAP
F0
90
90
90
90
90
98
ENDCHAR
STARTCHAR U+2E88
ENCODING 11912
SWIDTH 1000 0
DWIDTH 6 0
BBX 4 2 0 5
BITMAP
30
D0
ENDCHAR
STARTCHAR U+2E89
ENCODING 11913
SWIDTH 1000 0
DWIDTH 6 0
BBX 3 7 1 0
BITMAP
20
A0
A0
A0
20
20
60
ENDCHAR
STARTCHAR U+2E8A
ENCODING 11914
SWIDTH 1000 0
DWIDTH 6 0
BBX 3 7 1 0
BITMAP
80
80
C0
A0
80
80
80
ENDCHAR
STARTCHAR U+2E8B
ENCODING 11915
SWIDTH 1000 0
DWIDTH 6 0
BBX 5 5 0 0
BITMAP
F0
90
B0
88
78
ENDCHAR
STARTCHAR U+2E8C
ENCODING 11916
SWIDTH 1000 0
DWIDTH 6 0
BBX 5 3 0 4
BITMAP
20
A8
20
ENDCHAR
STARTCHAR U+2E8D
ENCODING 11917
SWIDTH 1000 0
DWIDTH 6 0
BBX 5 2 0 5
BITMAP
A8
10
ENDCHAR
STARTCHAR U+2E8E
ENCODING 11918
SWIDTH 1000 0
DWIDTH 6 0
BBX 5 7 0 0
BITMAP
F8
50
50
50
50
50
98
ENDCHAR
STARTCHAR U+2E8F
ENCODING 11919
SWIDTH 1000 0
DWIDTH 6 0
BBX 5 7 0 0
BITMAP
50
88
00
50
50
50
98
ENDCHAR
STARTCHAR U+2E90
ENCODING 11920
SWIDTH 1000 0
DWIDTH 6 0
BBX 5 7 0 0
BITMAP
20
F8
20
30
30
50
98
ENDCHAR
STARTCHAR U+2E91
ENCODING 11921
SWIDTH 1000 0
DWIDTH 6 0
BBX 5 7 0 0
BITMAP
50
88
70
50
50
50
98
ENDCHAR
STARTCHAR U+2E92
ENCODING 11922
SWIDTH 1000 0
DWIDTH 6 0
BBX 5 7 0 0
BITMAP
F0
90
90
F0
80
88
78
ENDCHAR
STARTCHAR U+2E93
ENCODING 11923
SWIDTH 1000 0
DWIDTH 6 0
BBX 5 7 0 0
BITMAP
20
20
48
F0
20
50
E8
ENDCHAR
STARTCHAR U+2E94
ENCODING 11924
SWIDTH 1000 0
DWIDTH 6 0
BBX 5 7 0 0
BITMAP
20
30
50
50
60
20
F8
ENDCHAR
STARTCHAR U+2E95
ENCODING 11925
SWIDTH 1000 0
DWIDTH 6 0
BBX 5 7 0 0
BITMAP
F8
08
08
78
08
08
F8
ENDCHAR
STARTCHAR U+2E96
ENCODING 11926
SWIDTH 1000 0
DWIDTH 6 0
BBX 4 7 0 0
BITMAP
20
60
70
A0
20
20
20
ENDCHAR
STARTCHAR U+2E97
ENCODING 11927
SWIDTH 1000 0
DWIDTH 6 0
BBX 5 4 0 0
BITMAP
40
C0
E8
40
ENDCHAR
STARTCHAR U+2E98
ENCODING 11928
SWIDTH 1000 0
DWIDTH 6 0
BBX 3 7 1 0
BITMAP
40
E0
40
60
C0
40
C0
ENDCHAR
STARTCHAR U+2E99
ENCODING 11929
SWIDTH 1000 0
DWIDTH 6 0
BBX 5 7 0 0
BITMAP
40
78
50
D0
20
50
88
ENDCHAR
STARTCHAR U+2E9B
ENCODING 11931
SWIDTH 1000 0
DWIDTH 6 0
BBX 5 7 0 0
BITMAP
F0
20
A0
F8
20
68
B8
ENDCHAR
STARTCHAR U+2E9C
ENCODING 11932
SWIDTH 1000 0
DWIDTH 6 0
BBX 5 5 0 2
BITMAP
F8
88
B8
88
B8
ENDCHAR
STARTCHAR U+2E9D
ENCODING 11933
SWIDTH 1000 0
DWIDTH 6 0
BBX 4 7 1 0
BITMAP
F0
90
F0
90
F0
90
B0
ENDCHAR
STARTCHAR U+2E9E
ENCODING 11934
SWIDTH 1000 0
DWIDTH 6 0
BBX 5 7 0 0
BITMAP
38
20
38
48
B0
20
C0
ENDCHAR
STARTCHAR U+2E9F
ENCODING 11935
SWIDTH 1000 0
DWIDTH 6 0
BBX 5 7 0 0
BITMAP
70
50
50
F8
B0
F8
10
ENDCHAR
STARTCHAR U+2EA0
ENCODING 11936
SWIDTH 1000 0
DWIDTH 6 0
BBX 5 7 0 0
BITMAP
F0
90
F0
A0
F8
90
C8
ENDCHAR
STARTCHAR U+2EA1
ENCODING 11937
SWIDTH 1000 0
DWIDTH 6 0
BBX 2 7 2 0
BITMAP
80
00
80
00
40
80
80
ENDCHAR
STARTCHAR U+2EA2
ENCODING 11938
SWIDTH 1000 0
DWIDTH 6 0
BBX 5 7 0 0
BITMAP
20
A8
30
60
B0
28
60
ENDCHAR
STARTCHAR U+2EA3
ENCODING 11939
SWIDTH 1000 0
DWIDTH 6 0
BBX 5 1 0 0
BITMAP
A8
ENDCHAR
STARTCHAR U+2EA4
ENCODING 11940
SWIDTH 1000 0
DWIDTH 6 0
BBX 5 4 0 3
BITMAP
08
F0
A8
50
ENDCHAR
STARTCHAR U+2EA5
ENCODING 11941
SWIDTH 1000 0
DWIDTH 6 0
BBX 5 3 0 4
BITMAP
08
70
A8
ENDCHAR
STARTCHAR U+2EA6
ENCODING 11942
SWIDTH 1000 0
DWIDTH 6 0
BBX 3 7 1 0
BITMAP
20
A0
60
20
60
A0
20
ENDCHAR
STARTCHAR U+2EA7
ENCODING 11943
SWIDTH 1000 0
DWIDTH 6 0
BBX 5 4 0 3
BITMAP
60
78
A0
F8
ENDCHAR
STARTCHAR U+2EA8
ENCODING 11944
SWIDTH 1000 0
DWIDTH 6 0
BBX 3 7 1 0
BITMAP
A0
40
A0
60
A0
20
60
ENDCHAR
STARTCHAR U+2EA9
ENCODING 11945
SWIDTH 1000 0
DWIDTH 6 0
BBX 3 7 1 0
BITMAP
E0
40
40
E0
40
60
80
ENDCHAR
STARTCHAR U+2EAA
ENCODING 11946
SWIDTH 1000 0
DWIDTH 6 0
BBX 5 7 0 0
BITMAP
78
08
10
58
50
58
E0
ENDCHAR
STARTCHAR U+2EAB
ENCODING 11947
SWIDTH 1000 0
DWIDTH 6 0
BBX 5 3 0 4
BITMAP
F8
A8
F8
ENDCHAR
STARTCHAR U+2EAC
ENCODING 11948
SWIDTH 1000 0
DWIDTH 6 0
BBX 3 7 1 0
BITMAP
E0
00
E0
40
E0
E0
40
ENDCHAR
STARTCHAR U+2EAD
ENCODING 11949
SWIDTH 1000 0
DWIDTH 6 0
BBX 3 7 1 0
BITMAP
40
E0
20
40
E0
40
40
ENDCHAR
STARTCHAR U+2EAE
ENCODING 11950
SWIDTH 1000 0
DWIDTH 6 0
BBX 5 3 0 4
BITMAP
90
D8
48
ENDCHAR
STARTCHAR U+2EAF
ENCODING 11951
SWIDTH 1000 0
DWIDTH 6 0
BBX 3 7 1 0
BITMAP
40
80
40
A0
40
E0
40
ENDCHAR
STARTCHAR U+2EB0
ENCODING 11952
SWIDTH 1000 0
DWIDTH 6 0
BBX 4 7 1 0
BITMAP
20
50
E0
30
C0
30
C0
ENDCHAR
STARTCHAR U+2EB1
ENCODING 11953
SWIDTH 1000 0
DWIDTH 6 0
BBX 5 4 0 3
BITMAP
F8
D8
A8
50
ENDCHAR
STARTCHAR U+2EB2
ENCODING 11954
SWIDTH 1000 0
DWIDTH 6 0
BBX 5 4 0 3
BITMAP
F8
D8
A8
70
ENDCHAR
STARTCHAR U+2EB3
ENCODING 11955
SWIDTH 1000 0
DWIDTH 6 0
BBX 5 4 0 3
BITMAP
F8
88
50
88
ENDCHAR
STARTCHAR U+2EB4
ENCODING 11956
SWIDTH 1000 0
DWIDTH 6 0
BBX 5 7 0 0
BITMAP
F8
D8
50
50
50
50
98
ENDCHAR
STARTCHAR U+2EB5
ENCODING 11957
SWIDTH 1000 0
DWIDTH 6 0
BBX 5 7 0 0
BITMAP
F8
D8
D8
D8
D8
D8
88
ENDCHAR
STARTCHAR U+2EB6
ENCODING 11958
SWIDTH 1000 0
DWIDTH 6 0
BBX 5 7 0 0
BITMAP
50
F8
70
20
F8
40
80
ENDCHAR
STARTCHAR U+2EB7
ENCODING 11959
SWIDTH 1000 0
DWIDTH 6 0
BBX 5 6 0 1
BITMAP
50
F8
20
70
20
F8
ENDCHAR
STARTCHAR U+2EB8
ENCODING 11960
SWIDTH 1000 0
DWIDTH 6 0
BBX 5 7 0 0
BITMAP
50
D8
50
F8
20
F8
20
ENDCHAR
STARTCHAR U+2EB9
ENCODING 11961
SWIDTH 1000 0
DWIDTH 6 0
BBX 5 6 0 1
BITMAP
28
70
20
F8
40
80
ENDCHAR
STARTCHAR U+2EBA
ENCODING 11962
SWIDTH 1000 0
DWIDTH 6 0
BBX 5 7 0 0
BITMAP
40
F0
50
F8
50
F0
40
ENDCHAR
STARTCHAR U+2EBB
ENCODING 11963
SWIDTH 1000 0
DWIDTH 6 0
BBX 5 7 0 0
BITMAP
20
70
30
F8
70
20
F8
ENDCHAR
STARTCHAR U+2EBC
ENCODING 11964
SWIDTH 1000 0
DWIDTH 6 0
BBX 5 7 0 0
BITMAP
78
68
58
68
58
48
98
ENDCHAR
STARTCHAR U+2EBD
ENCODING 11965
SWIDTH 1000 0
DWIDTH 6 0
BBX 5 7 0 0
BITMAP
40
98
88
D8
88
88
D8
ENDCHAR
STARTCHAR U+2EBE
ENCODING 11966
SWIDTH 1000 0
DWIDTH 6 0
BBX 5 3 0 4
BITMAP
50
F8
50
ENDCHAR
STARTCHAR U+2EBF
ENCODING 11967
SWIDTH 1000 0
DWIDTH 6 0
BBX 5 3 0 4
BITMAP
50
D8
50
ENDCHAR
STARTCHAR U+2EC0
ENCODING 11968
SWIDTH 1000 0
DWIDTH 6 0
BBX 5 7 0 0
BITMAP
50
50
50
D8
50
50
50
ENDCHAR
STARTCHAR U+2EC1
ENCODING 11969
SWIDTH 1000 0
DWIDTH 6 0
BBX 5 7 0 0
BITMAP
20
38
E0
B8
80
B0
D8
ENDCHAR
STARTCHAR U+2EC2
ENCODING 11970
SWIDTH 1000 0
DWIDTH 6 0
BBX 4 7 1 0
BITMAP
40
E0
20
50
E0
50
40
ENDCHAR
STARTCHAR U+2EC3
ENCODING 11971
SWIDTH 1000 0
DWIDTH 6 0
BBX 5 5 0 2
BITMAP
F8
50
F8
D8
F8
ENDCHAR
STARTCHAR U+2EC4
ENCODING 11972
SWIDTH 1000 0
DWIDTH 6 0
BBX 5 7 0 0
BITMAP
F8
50
F8
D8
D8
88
F8
ENDCHAR
STARTCHAR U+2EC5
ENCODING 11973
SWIDTH 1000 0
DWIDTH 6 0
BBX 5 7 0 0
BITMAP
F8
88
A8
A8
A8
50
98
ENDCHAR
STARTCHAR U+2EC6
ENCODING 11974
SWIDTH 1000 0
DWIDTH 6 0
BBX 5 7 0 0
BITMAP
30
D0
78
68
78
A8
98
ENDCHAR
STARTCHAR U+2EC7
ENCODING 11975
SWIDTH 1000 0
DWIDTH 6 0
BBX 5 7 0 0
BITMAP
30
D0
78
A8
D8
A8
D8
ENDCHAR
STARTCHAR U+2EC8
ENCODING 11976
SWIDTH 1000 0
DWIDTH 6 0
BBX 3 7 1 0
BITMAP
40
20
00
C0
40
40
60
ENDCHAR
STARTCHAR U+2EC9
ENCODING 11977
SWIDTH 1000 0
DWIDTH 6 0
BBX 5 7 0 0
BITMAP
F8
88
A8
A8
A8
20
C8
ENDCHAR
STARTCHAR U+2ECA
ENCODING 11978
SWIDTH 1000 0
DWIDTH 6 0
BBX 3 7 1 0
BITMAP
E0
A0
E0
40
E0
C0
E0
ENDCHAR
STARTCHAR U+2ECB
ENCODING 11979
SWIDTH 1000 0
DWIDTH 6 0
BBX 5 7 0 0
BITMAP
40
F8
60
70
20
F8
20
ENDCHAR
STARTCHAR U+2ECC
ENCODING 11980
SWIDTH 1000 0
DWIDTH 6 0
BBX 5 7 0 0
BITMAP
80
40
00
C0
40
40
B8
ENDCHAR
STARTCHAR U+2ECD
ENCODING 11981
SWIDTH 1000 0
DWIDTH 6 0
BBX 5 7 0 0
BITMAP
40
00
80
00
C0
40
B8
ENDCHAR
STARTCHAR U+2ECE
ENCODING 11982
SWIDTH 1000 0
DWIDTH 6 0
BBX 5 7 0 0
BITMAP
80
00
C0
40
80
40
B8
ENDCHAR
STARTCHAR U+2ECF
ENCODING 11983
SWIDTH 1000 0
DWIDTH 6 0
BBX 2 7 2 0
BITMAP
C0
C0
80
C0
C0
80
80
ENDCHAR
STARTCHAR U+2ED0
ENCODING 11984
SWIDTH 1000 0
DWIDTH 6 0
BBX 3 7 1 0
BITMAP
60
80
E0
40
E0
40
60
ENDCHAR
STARTCHAR U+2ED1
ENCODING 11985
SWIDTH 1000 0
DWIDTH 6 0
BBX 5 7 0 0
BITMAP
70
40
70
40
F8
50
68
ENDCHAR
STARTCHAR U+2ED2
ENCODING 11986
SWIDTH 1000 0
DWIDTH 6 0
BBX 5 7 0 0
BITMAP
70
40
70
40
F8
50
E8
ENDCHAR
STARTCHAR U+2ED3
ENCODING 11987
SWIDTH 1000 0
DWIDTH 6 0
BBX 5 7 0 0
BITMAP
48
50
40
F8
50
50
68
ENDCHAR
STARTCHAR U+2ED4
ENCODING 11988
SWIDTH 1000 0
DWIDTH 6 0
BBX 5 7 0 0
BITMAP
B8
08
88
88
88
88
98
ENDCHAR
STARTCHAR U+2ED5
ENCODING 11989
SWIDTH 1000 0
DWIDTH 6 0
BBX 4 7 1 0
BITMAP
40
E0
A0
F0
90
F0
F0
ENDCHAR
STARTCHAR U+2ED6
ENCODING 11990
SWIDTH 1000 0
DWIDTH 6 0
BBX 2 7 2 0
BITMAP
C0
C0
80
C0
C0
80
80
ENDCHAR
STARTCHAR U+2ED7
ENCODING 11991
SWIDTH 1000 0
DWIDTH 6 0
BBX 5 3 0 4
BITMAP
70
F8
A8
ENDCHAR
STARTCHAR U+2ED8
ENCODING 11992
SWIDTH 1000 0
DWIDTH 6 0
BBX 5 7 0 0
BITMAP
20
70
20
F8
50
70
50
ENDCHAR
STARTCHAR U+2ED9
ENCODING 11993
SWIDTH 1000 0
DWIDTH 6 0
BBX 5 7 0 0
BITMAP
20
F8
20
70
20
F8
28
ENDCHAR
STARTCHAR U+2EDA
ENCODING 11994
SWIDTH 1000 0
DWIDTH 6 0
BBX 5 7 0 0
BITMAP
F8
20
F8
88
A8
20
C8
ENDCHAR
STARTCHAR U+2EDB
ENCODING 11995
SWIDTH 1000 0
DWIDTH 6 0
BBX 5 7 0 0
BITMAP
F0
90
B0
F0
B0
D0
98
ENDCHAR
STARTCHAR U+2EDC
ENCODING 11996
SWIDTH 1000 0
DWIDTH 6 0
BBX 5 7 0 0
BITMAP
E0
28
30
28
20
10
08
ENDCHAR
STARTCHAR U+2EDD
ENCODING 11997
SWIDTH 1000 0
DWIDTH 6 0
BBX 5 7 0 0
BITMAP
20
50
A8
60
68
50
68
ENDCHAR
STARTCHAR U+2EDE
ENCODING 11998
SWIDTH 1000 0
DWIDTH 6 0
BBX 3 7 1 0
BITMAP
40
A0
C0
C0
80
C0
80
ENDCHAR
STARTCHAR U+2EDF
ENCODING 11999
SWIDTH 1000 0
DWIDTH 6 0
BBX 3 7 1 0
BITMAP
40
A0
40
E0
E0
80
E0
ENDCHAR
STARTCHAR U+2EE0
ENCODING 12000
SWIDTH 1000 0
DWIDTH 6 0
BBX 3 7 1 0
BITMAP
40
60
A0
40
40
40
60
ENDCHAR
STARTCHAR U+2EE1
ENCODING 12001
SWIDTH 1000 0
DWIDTH 6 0
BBX 5 7 0 0
BITMAP
48
90
48
F8
70
50
70
ENDCHAR
STARTCHAR U+2EE2
ENCODING 12002
SWIDTH 1000 0
DWIDTH 6 0
BBX 5 7 0 0
BITMAP
F0
10
50
78
08
E8
18
ENDCHAR
STARTCHAR U+2EE3
ENCODING 12003
SWIDTH 1000 0
DWIDTH 6 0
BBX 5 7 0 0
BITMAP
70
50
F8
88
70
70
50
ENDCHAR
STARTCHAR U+2EE4
ENCODING 12004
SWIDTH 1000 0
DWIDTH 6 0
BBX 5 7 0 0
BITMAP
40
F8
A8
F8
A8
70
98
ENDCHAR
STARTCHAR U+2EE5
ENCODING 12005
SWIDTH 1000 0
DWIDTH 6 0
BBX 5 7 0 0
BITMAP
30
D0
78
68
78
00
F8
ENDCHAR
STARTCHAR U+2EE6
ENCODING 12006
SWIDTH 1000 0
DWIDTH 6 0
BBX 5 7 0 0
BITMAP
20
78
68
40
78
E8
18
ENDCHAR
STARTCHAR U+2EE7
ENCODING 12007
SWIDTH 1000 0
DWIDTH 6 0
BBX 5 7 0 0
BITMAP
20
38
F0
D8
A8
D8
F8
ENDCHAR
STARTCHAR U+2EE8
ENCODING 12008
SWIDTH 1000 0
DWIDTH 6 0
BBX 5 7 0 0
BITMAP
20
70
20
F8
50
A0
58
ENDCHAR
STARTCHAR U+2EE9
ENCODING 12009
SWIDTH 1000 0
DWIDTH 6 0
BBX 5 7 0 0
BITMAP
50
F8
50
F8
70
70
88
ENDCHAR
STARTCHAR U+2EEA
ENCODING 12010
SWIDTH 1000 0
DWIDTH 6 0
BBX 5 7 0 0
BITMAP
70
50
F8
A8
F8
20
38
ENDCHAR
STARTCHAR U+2EEB
ENCODING 12011
SWIDTH 1000 0
DWIDTH 6 0
BBX 5 7 0 0
BITMAP
20
F8
50
20
D8
70
90
ENDCHAR
STARTCHAR U+2EEC
ENCODING 12012
SWIDTH 1000 0
DWIDTH 6 0
BBX 5 7 0 0
BITMAP
20
F8
50
20
D8
50
90
ENDCHAR
STARTCHAR U+2EED
ENCODING 12013
SWIDTH 1000 0
DWIDTH 6 0
BBX 5 7 0 0
BITMAP
10
58
F0
68
78
68
78
ENDCHAR
STARTCHAR U+2EEE
ENCODING 12014
SWIDTH 1000 0
DWIDTH 6 0
BBX 5 7 0 0
BITMAP
18
50
F8
00
A8
D8
F8
ENDCHAR
STARTCHAR U+2EEF
ENCODING 12015
SWIDTH 1000 0
DWIDTH 6 0
BBX 5 7 0 0
BITMAP
20
F8
50
F8
70
70
18
ENDCHAR
STARTCHAR U+2EF0
ENCODING 12016
SWIDTH 1000 0
DWIDTH 6 0
BBX 5 7 0 0
BITMAP
28
20
F8
50
58
B0
18
ENDCHAR
STARTCHAR U+2EF1
ENCODING 12017
SWIDTH 1000 0
DWIDTH 6 0
BBX 5 7 0 0
BITMAP
30
D0
70
D8
58
D0
78
ENDCHAR
STARTCHAR U+2EF2
ENCODING 12018
SWIDTH 1000 0
DWIDTH 6 0
BBX 5 7 0 0
BITMAP
70
90
70
F8
A8
F0
18
ENDCHAR
STARTCHAR U+2EF3
ENCODING 12019
SWIDTH 1000 0
DWIDTH 6 0
BBX 5 7 0 0
BITMAP
30
D0
78
68
78
20
38
ENDCHAR
STARTCHAR U+2F00
ENCODING 12032
SWIDTH 1000 0
DWIDTH 6 0
BBX 5 2 0 3
BITMAP
10
F8
ENDCHAR
STARTCHAR U+2F01
ENCODING 12033
SWIDTH 1000 0
DWIDTH 6 0
BBX 1 7 2 0
BITMAP
80
80
80
80
80
80
80
ENDCHAR
STARTCHAR U+2F02
ENCODING 12034
SWIDTH 1000 0
DWIDTH 6 0
BBX 3 4 1 2
BITMAP
80
40
20
20
ENDCHAR
STARTCHAR U+2F03
ENCODING 12035
SWIDTH 1000 0
DWIDTH 6 0
BBX 3 7 1 0
BITMAP
20
20
20
20
20
40
80
ENDCHAR
STARTCHAR U+2F04
ENCODING 12036
SWIDTH 1000 0
DWIDTH 6 0
BBX 5 7 0 0
BITMAP
70
10
20
40
80
88
78
ENDCHAR
STARTCHAR U+2F05
ENCODING 12037
SWIDTH 1000 0
DWIDTH 6 0
BBX 2 7 1 0
BITMAP
40
40
40
40
40
40
C0
ENDCHAR
STARTCHAR U+2F06
ENCODING 12038
SWIDTH 1000 0
DWIDTH 6 0
BBX 5 6 0 0
BITMAP
70
00
00
00
08
F8
ENDCHAR
STARTCHAR U+2F07
ENCODING 12039
SWIDTH 1000 0
DWIDTH 6 0
BBX 5 3 0 4
BITMAP
20
20
F8
ENDCHAR
STARTCHAR U+2F08
ENCODING 12040
SWIDTH 1000 0
DWIDTH 6 0
BBX 5 7 0 0
BITMAP
20
20
20
20
50
50
88
ENDCHAR
STARTCHAR U+2F09
ENCODING 12041
SWIDTH 1000 0
DWIDTH 6 0
BBX 5 7 0 0
BITMAP
50
50
50
50
50
50
98
ENDCHAR
STARTCHAR U+2F0A
ENCODING 12042
SWIDTH 1000 0
DWIDTH 6 0
BBX 5 7 0 0
BITMAP
60
20
20
20
50
50
88
ENDCHAR
STARTCHAR U+2F0B
ENCODING 12043
SWIDTH 1000 0
DWIDTH 6 0
BBX 5 7 0 0
BITMAP
50
50
50
50
50
50
88
ENDCHAR
STARTCHAR U+2F0C
ENCODING 12044
SWIDTH 1000 0
DWIDTH 6 0
BBX 5 7 0 0
BITMAP
F8
88
88
88
88
88
98
ENDCHAR
STARTCHAR U+2F0D
ENCODING 12045
SWIDTH 1000 0
DWIDTH 6 0
BBX 5 2 0 5
BITMAP
F8
88
ENDCHAR
STARTCHAR U+2F0E
ENCODING 12046
SWIDTH 1000 0
DWIDTH 6 0
BBX 2 7 2 0
BITMAP
80
40
00
00
40
80
80
ENDCHAR
STARTCHAR U+2F0F
ENCODING 12047
SWIDTH 1000 0
DWIDTH 6 0
BBX 5 7 0 0
BITMAP
70
50
50
50
50
50
98
ENDCHAR
STARTCHAR U+2F10
ENCODING 12048
SWIDTH 1000 0
DWIDTH 6 0
BBX 5 7 0 0
BITMAP
88
88
88
88
88
88
F8
ENDCHAR
STARTCHAR U+2F11
ENCODING 12049
SWIDTH 1000 0
DWIDTH 6 0
BBX 5 7 0 0
BITMAP
F8
28
28
28
48
48
98
ENDCHAR
STARTCHAR U+2F12
ENCODING 12050
SWIDTH 1000 0
DWIDTH 6 0
BBX 5 7 0 0
BITMAP
20
F8
28
28
28
48
98
ENDCHAR
STARTCHAR U+2F13
ENCODING 12051
SWIDTH 1000 0
DWIDTH 6 0
BBX 5 7 0 0
BITMAP
40
78
88
08
08
08
18
ENDCHAR
STARTCHAR U+2F14
ENCODING 12052
SWIDTH 1000 0
DWIDTH 6 0
BBX 5 7 0 0
BITMAP
80
88
90
E0
80
88
78
ENDCHAR
STARTCHAR U+2F15
ENCODING 12053
SWIDTH 1000 0
DWIDTH 6 0
BBX 5 7 0 0
BITMAP
F8
80
80
80
80
80
F8
ENDCHAR
STARTCHAR U+2F16
ENCODING 12054
SWIDTH 1000 0
DWIDTH 6 0
BBX 5 7 0 0
BITMAP
F8
40
40
40
40
40
38
ENDCHAR
STARTCHAR U+2F17
ENCODING 12055
SWIDTH 1000 0
DWIDTH 6 0
BBX 5 7 0 0
BITMAP
20
20
F8
20
20
20
20
ENDCHAR
STARTCHAR U+2F18
ENCODING 12056
SWIDTH 1000 0
DWIDTH 6 0
BBX 3 7 1 0
BITMAP
80
80
C0
A0
80
80
80
ENDCHAR
STARTCHAR U+2F19
ENCODING 12057
SWIDTH 1000 0
DWIDTH 6 0
BBX 4 7 1 0
BITMAP
F0
90
90
90
B0
80
80
ENDCHAR
STARTCHAR U+2F1A
ENCODING 12058
SWIDTH 1000 0
DWIDTH 6 0
BBX 5 7 0 0
BITMAP
78
40
40
40
40
40
80
ENDCHAR
STARTCHAR U+2F1B
ENCODING 12059
SWIDTH 1000 0
DWIDTH 6 0
BBX 5 7 0 0
BITMAP
20
20
20
20
40
50
E8
ENDCHAR
STARTCHAR U+2F1C
ENCODING 12060
SWIDTH 1000 0
DWIDTH 6 0
BBX 5 7 0 0
BITMAP
F8
08
50
50
20
50
88
ENDCHAR
STARTCHAR U+2F1D
ENCODING 12061
SWIDTH 1000 0
DWIDTH 6 0
BBX 5 6 0 0
BITMAP
F8
88
88
88
F8
88
ENDCHAR
STARTCHAR U+2F1E
ENCODING 12062
SWIDTH 1000 0
DWIDTH 6 0
BBX 5 7 0 0
BITMAP
F8
88
88
88
88
88
F8
ENDCHAR
STARTCHAR U+2F1F
ENCODING 12063
SWIDTH 1000 0
DWIDTH 6 0
BBX 5 7 0 0
BITMAP
20
20
70
20
20
20
F8
ENDCHAR
STARTCHAR U+2F20
ENCODING 12064
SWIDTH 1000 0
DWIDTH 6 0
BBX 5 7 0 0
BITMAP
20
20
F8
20
20
20
70
ENDCHAR
STARTCHAR U+2F21
ENCODING 12065
SWIDTH 1000 0
DWIDTH 6 0
BBX 5 7 0 0
BITMAP
40
70
50
D0
20
50
88
ENDCHAR
STARTCHAR U+2F22
ENCODING 12066
SWIDTH 1000 0
DWIDTH 6 0
BBX 5 7 0 0
BITMAP
20
B0
50
D0
20
50
88
ENDCHAR
STARTCHAR U+2F23
ENCODING 12067
SWIDTH 1000 0
DWIDTH 6 0
BBX 5 7 0 0
BITMAP
40
78
48
A8
10
20
C0
ENDCHAR
STARTCHAR U+2F24
ENCODING 12068
SWIDTH 1000 0
DWIDTH 6 0
BBX 5 7 0 0
BITMAP
20
20
F8
20
20
50
88
ENDCHAR
STARTCHAR U+2F25
ENCODING 12069
SWIDTH 1000 0
DWIDTH 6 0
BBX 5 7 0 0
BITMAP
20
20
F8
50
60
30
C8
ENDCHAR
STARTCHAR U+2F26
ENCODING 12070
SWIDTH 1000 0
DWIDTH 6 0
BBX 5 7 0 0
BITMAP
70
10
20
F8
20
20
60
ENDCHAR
STARTCHAR U+2F27
ENCODING 12071
SWIDTH 1000 0
DWIDTH 6 0
BBX 5 3 0 4
BITMAP
20
F8
88
ENDCHAR
STARTCHAR U+2F28
ENCODING 12072
SWIDTH 1000 0
DWIDTH 6 0
BBX 5 7 0 0
BITMAP
10
F8
10
50
30
10
30
ENDCHAR
STARTCHAR U+2F29
ENCODING 12073
SWIDTH 1000 0
DWIDTH 6 0
BBX 5 7 0 0
BITMAP
20
20
70
68
A8
20
60
ENDCHAR
STARTCHAR U+2F2A
ENCODING 12074
SWIDTH 1000 0
DWIDTH 6 0
BBX 5 7 0 0
BITMAP
20
F8
20
30
30
50
98
ENDCHAR
STARTCHAR U+2F2B
ENCODING 12075
SWIDTH 1000 0
DWIDTH 6 0
BBX 5 7 0 0
BITMAP
78
48
78
40
40
40
80
ENDCHAR
STARTCHAR U+2F2C
ENCODING 12076
SWIDTH 1000 0
DWIDTH 6 0
BBX 5 7 0 0
BITMAP
20
A8
A8
A8
F8
20
20
ENDCHAR
STARTCHAR U+2F2D
ENCODING 12077
SWIDTH 1000 0
DWIDTH 6 0
BBX 5 7 0 0
BITMAP
20
20
A8
A8
A8
A8
F8
ENDCHAR
STARTCHAR U+2F2E
ENCODING 12078
SWIDTH 1000 0
DWIDTH 6 0
BBX 5 7 0 0
BITMAP
28
28
50
A0
50
28
28
ENDCHAR
STARTCHAR U+2F2F
ENCODING 12079
SWIDTH 1000 0
DWIDTH 6 0
BBX 5 6 0 0
BITMAP
70
20
20
20
20
F8
ENDCHAR
STARTCHAR U+2F30
ENCODING 12080
SWIDTH 1000 0
DWIDTH 6 0
BBX 5 7 0 0
BITMAP
F0
10
10
F0
80
88
78
ENDCHAR
STARTCHAR U+2F31
ENCODING 12081
SWIDTH 1000 0
DWIDTH 6 0
BBX 5 7 0 0
BITMAP
20
F8
A8
A8
A8
20
20
ENDCHAR
STARTCHAR U+2F32
ENCODING 12082
SWIDTH 1000 0
DWIDTH 6 0
BBX 5 7 0 0
BITMAP
70
20
20
F8
20
20
20
ENDCHAR
STARTCHAR U+2F33
ENCODING 12083
SWIDTH 1000 0
DWIDTH 6 0
BBX 5 7 0 0
BITMAP
20
20
48
F0
20
50
E8
ENDCHAR
STARTCHAR U+2F34
ENCODING 12084
SWIDTH 1000 0
DWIDTH 6 0
BBX 5 7 0 0
BITMAP
10
78
40
40
40
40
80
ENDCHAR
STARTCHAR U+2F35
ENCODING 12085
SWIDTH 1000 0
DWIDTH 6 0
BBX 5 7 0 0
BITMAP
C0
40
80
40
C0
40
B8
ENDCHAR
STARTCHAR U+2F36
ENCODING 12086
SWIDTH 1000 0
DWIDTH 6 0
BBX 5 7 0 0
BITMAP
50
50
50
F8
50
50
90
ENDCHAR
STARTCHAR U+2F37
ENCODING 12087
SWIDTH 1000 0
DWIDTH 6 0
BBX 5 7 0 0
BITMAP
28
20
F8
20
20
10
08
ENDCHAR
STARTCHAR U+2F38
ENCODING 12088
SWIDTH 1000 0
DWIDTH 6 0
BBX 5 7 0 0
BITMAP
F0
10
F0
80
F8
08
18
ENDCHAR
STARTCHAR U+2F39
ENCODING 12089
SWIDTH 1000 0
DWIDTH 6 0
BBX 5 7 0 0
BITMAP
F8
08
08
78
08
08
F8
ENDCHAR
STARTCHAR U+2F3A
ENCODING 12090
SWIDTH 1000 0
DWIDTH 6 0
BBX 5 7 0 0
BITMAP
10
20
D0
20
C8
30
C0
ENDCHAR
STARTCHAR U+2F3B
ENCODING 12091
SWIDTH 1000 0
DWIDTH 6 0
BBX 3 7 1 0
BITMAP
20
C0
20
40
C0
40
40
ENDCHAR
STARTCHAR U+2F3C
ENCODING 12092
SWIDTH 1000 0
DWIDTH 6 0
BBX 5 7 0 0
BITMAP
40
20
40
50
C8
50
70
ENDCHAR
STARTCHAR U+2F3D
ENCODING 12093
SWIDTH 1000 0
DWIDTH 6 0
BBX 5 7 0 0
BITMAP
28
F8
20
28
18
10
68
ENDCHAR
STARTCHAR U+2F3E
ENCODING 12094
SWIDTH 1000 0
DWIDTH 6 0
BBX 5 7 0 0
BITMAP
30
40
78
48
78
40
80
ENDCHAR
STARTCHAR U+2F3F
ENCODING 12095
SWIDTH 1000 0
DWIDTH 6 0
BBX 5 7 0 0
BITMAP
70
20
F8
20
F8
20
60
ENDCHAR
STARTCHAR U+2F40
ENCODING 12096
SWIDTH 1000 0
DWIDTH 6 0
BBX 5 7 0 0
BITMAP
20
F8
20
70
50
20
D8
ENDCHAR
STARTCHAR U+2F41
ENCODING 12097
SWIDTH 1000 0
DWIDTH 6 0
BBX 5 7 0 0
BITMAP
20
38
20
70
50
20
D8
ENDCHAR
STARTCHAR U+2F42
ENCODING 12098
SWIDTH 1000 0
DWIDTH 6 0
BBX 5 7 0 0
BITMAP
20
F8
50
50
20
50
88
ENDCHAR
STARTCHAR U+2F43
ENCODING 12099
SWIDTH 1000 0
DWIDTH 6 0
BBX 5 7 0 0
BITMAP
10
50
10
50
18
F0
10
ENDCHAR
STARTCHAR U+2F44
ENCODING 12100
SWIDTH 1000 0
DWIDTH 6 0
BBX 5 7 0 0
BITMAP
10
60
40
78
50
50
90
ENDCHAR
STARTCHAR U+2F45
ENCODING 12101
SWIDTH 1000 0
DWIDTH 6 0
BBX 5 7 0 0
BITMAP
20
F8
40
78
48
48
98
ENDCHAR
STARTCHAR U+2F46
ENCODING 12102
SWIDTH 1000 0
DWIDTH 6 0
BBX 5 7 0 0
BITMAP
70
20
20
F8
20
68
B8
ENDCHAR
STARTCHAR U+2F47
ENCODING 12103
SWIDTH 1000 0
DWIDTH 6 0
BBX 5 7 0 0
BITMAP
F8
88
88
F8
88
88
F8
ENDCHAR
STARTCHAR U+2F48
ENCODING 12104
SWIDTH 1000 0
DWIDTH 6 0
BBX 5 7 0 0
BITMAP
F8
88
88
E8
88
88
F8
ENDCHAR
STARTCHAR U+2F49
ENCODING 12105
SWIDTH 1000 0
DWIDTH 6 0
BBX 5 7 0 0
BITMAP
78
48
78
48
78
48
98
ENDCHAR
STARTCHAR U+2F4A
ENCODING 12106
SWIDTH 1000 0
DWIDTH 6 0
BBX 5 7 0 0
BITMAP
20
F8
20
70
70
A8
20
ENDCHAR
STARTCHAR U+2F4B
ENCODING 12107
SWIDTH 1000 0
DWIDTH 6 0
BBX 5 7 0 0
BITMAP
40
78
A8
20
20
50
88
ENDCHAR
STARTCHAR U+2F4C
ENCODING 12108
SWIDTH 1000 0
DWIDTH 6 0
BBX 5 7 0 0
BITMAP
10
10
58
50
50
50
F8
ENDCHAR
STARTCHAR U+2F4D
ENCODING 12109
SWIDTH 1000 0
DWIDTH 6 0
BBX 5 7 0 0
BITMAP
F8
20
38
48
30
20
C0
ENDCHAR
STARTCHAR U+2F4E
ENCODING 12110
SWIDTH 1000 0
DWIDTH 6 0
BBX 5 7 0 0
BITMAP
70
50
98
70
50
20
D8
ENDCHAR
STARTCHAR U+2F4F
ENCODING 12111
SWIDTH 1000 0
DWIDTH 6 0
BBX 5 7 0 0
BITMAP
70
50
50
F8
B0
F8
50
ENDCHAR
STARTCHAR U+2F50
ENCODING 12112
SWIDTH 1000 0
DWIDTH 6 0
BBX 5 7 0 0
BITMAP
50
50
78
50
50
70
D8
ENDCHAR
STARTCHAR U+2F51
ENCODING 12113
SWIDTH 1000 0
DWIDTH 6 0
BBX 5 7 0 0
BITMAP
10
60
38
E0
38
E0
38
ENDCHAR
STARTCHAR U+2F52
ENCODING 12114
SWIDTH 1000 0
DWIDTH 6 0
BBX 5 7 0 0
BITMAP
10
E0
A0
F8
A0
90
C8
ENDCHAR
STARTCHAR U+2F53
ENCODING 12115
SWIDTH 1000 0
DWIDTH 6 0
BBX 5 7 0 0
BITMAP
80
F8
60
F0
10
10
08
ENDCHAR
STARTCHAR U+2F54
ENCODING 12116
SWIDTH 1000 0
DWIDTH 6 0
BBX 5 7 0 0
BITMAP
20
28
F0
60
B0
28
60
ENDCHAR
STARTCHAR U+2F55
ENCODING 12117
SWIDTH 1000 0
DWIDTH 6 0
BBX 5 7 0 0
BITMAP
20
A8
B0
A0
20
50
88
ENDCHAR
STARTCHAR U+2F56
ENCODING 12118
SWIDTH 1000 0
DWIDTH 6 0
BBX 5 7 0 0
BITMAP
08
F0
A8
A8
A8
A8
A8
ENDCHAR
STARTCHAR U+2F57
ENCODING 12119
SWIDTH 1000 0
DWIDTH 6 0
BBX 5 7 0 0
BITMAP
50
88
50
50
20
50
88
ENDCHAR
STARTCHAR U+2F58
ENCODING 12120
SWIDTH 1000 0
DWIDTH 6 0
BBX 5 7 0 0
BITMAP
C8
30
C8
50
50
20
D8
ENDCHAR
STARTCHAR U+2F59
ENCODING 12121
SWIDTH 1000 0
DWIDTH 6 0
BBX 4 7 0 0
BITMAP
50
50
70
10
F0
50
90
ENDCHAR
STARTCHAR U+2F5A
ENCODING 12122
SWIDTH 1000 0
DWIDTH 6 0
BBX 5 7 0 0
BITMAP
50
50
78
40
78
48
88
ENDCHAR
STARTCHAR U+2F5B
ENCODING 12123
SWIDTH 1000 0
DWIDTH 6 0
BBX 5 7 0 0
BITMAP
F8
50
90
F8
30
D0
30
ENDCHAR
STARTCHAR U+2F5C
ENCODING 12124
SWIDTH 1000 0
DWIDTH 6 0
BBX 5 7 0 0
BITMAP
60
78
A0
20
F8
20
20
ENDCHAR
STARTCHAR U+2F5D
ENCODING 12125
SWIDTH 1000 0
DWIDTH 6 0
BBX 5 7 0 0
BITMAP
28
20
F8
20
20
50
88
ENDCHAR
STARTCHAR U+2F5E
ENCODING 12126
SWIDTH 1000 0
DWIDTH 6 0
BBX 5 7 0 0
BITMAP
20
F8
40
D0
20
50
E8
ENDCHAR
STARTCHAR U+2F5F
ENCODING 12127
SWIDTH 1000 0
DWIDTH 6 0
BBX 5 7 0 0
BITMAP
F8
20
20
70
28
20
F8
ENDCHAR
STARTCHAR U+2F60
ENCODING 12128
SWIDTH 1000 0
DWIDTH 6 0
BBX 5 7 0 0
BITMAP
18
E0
A8
A8
A8
F8
88
ENDCHAR
STARTCHAR U+2F61
ENCODING 12129
SWIDTH 1000 0
DWIDTH 6 0
BBX 5 7 0 0
BITMAP
F8
40
70
50
B0
90
D8
ENDCHAR
STARTCHAR U+2F62
ENCODING 12130
SWIDTH 1000 0
DWIDTH 6 0
BBX 5 7 0 0
BITMAP
50
F8
50
70
50
50
70
ENDCHAR
STARTCHAR U+2F63
ENCODING 12131
SWIDTH 1000 0
DWIDTH 6 0
BBX 5 7 0 0
BITMAP
60
78
A0
20
70
20
F8
ENDCHAR
STARTCHAR U+2F64
ENCODING 12132
SWIDTH 1000 0
DWIDTH 6 0
BBX 5 7 0 0
BITMAP
F8
A8
F8
A8
F8
A8
A8
ENDCHAR
STARTCHAR U+2F65
ENCODING 12133
SWIDTH 1000 0
DWIDTH 6 0
BBX 5 7 0 0
BITMAP
F8
A8
A8
F8
A8
A8
F8
ENDCHAR
STARTCHAR U+2F66
ENCODING 12134
SWIDTH 1000 0
DWIDTH 6 0
BBX 5 7 0 0
BITMAP
F8
28
20
78
60
60
B8
ENDCHAR
STARTCHAR U+2F67
ENCODING 12135
SWIDTH 1000 0
DWIDTH 6 0
BBX 5 7 0 0
BITMAP
10
78
C0
40
C0
40
80
ENDCHAR
STARTCHAR U+2F68
ENCODING 12136
SWIDTH 1000 0
DWIDTH 6 0
BBX 5 3 0 2
BITMAP
E8
50
88
ENDCHAR
STARTCHAR U+2F69
ENCODING 12137
SWIDTH 1000 0
DWIDTH 6 0
BBX 5 7 0 0
BITMAP
20
F8
88
F8
88
88
F8
ENDCHAR
STARTCHAR U+2F6A
ENCODING 12138
SWIDTH 1000 0
DWIDTH 6 0
BBX 5 7 0 0
BITMAP
20
F8
A8
F0
D0
A0
D8
ENDCHAR
STARTCHAR U+2F6B
ENCODING 12139
SWIDTH 1000 0
DWIDTH 6 0
BBX 5 6 0 0
BITMAP
78
58
58
58
58
F8
ENDCHAR
STARTCHAR U+2F6C
ENCODING 12140
SWIDTH 1000 0
DWIDTH 6 0
BBX 5 7 0 0
BITMAP
F8
88
F8
88
F8
88
F8
ENDCHAR
STARTCHAR U+2F6D
ENCODING 12141
SWIDTH 1000 0
DWIDTH 6 0
BBX 5 7 0 0
BITMAP
F0
50
20
F8
68
A0
60
ENDCHAR
STARTCHAR U+2F6E
ENCODING 12142
SWIDTH 1000 0
DWIDTH 6 0
BBX 5 7 0 0
BITMAP
40
70
A0
F8
20
50
88
ENDCHAR
STARTCHAR U+2F6F
ENCODING 12143
SWIDTH 1000 0
DWIDTH 6 0
BBX 5 7 0 0
BITMAP
F8
40
40
78
C8
48
78
ENDCHAR
STARTCHAR U+2F70
ENCODING 12144
SWIDTH 1000 0
DWIDTH 6 0
BBX 5 7 0 0
BITMAP
70
00
F8
20
A8
A8
60
ENDCHAR
STARTCHAR U+2F71
ENCODING 12145
SWIDTH 1000 0
DWIDTH 6 0
BBX 5 7 0 0
BITMAP
20
F8
A8
D8
F8
88
98
ENDCHAR
STARTCHAR U+2F72
ENCODING 12146
SWIDTH 1000 0
DWIDTH 6 0
BBX 5 7 0 0
BITMAP
10
60
F8
20
70
A8
20
ENDCHAR
STARTCHAR U+2F73
ENCODING 12147
SWIDTH 1000 0
DWIDTH 6 0
BBX 5 7 0 0
BITMAP
20
F8
88
50
50
50
88
ENDCHAR
STARTCHAR U+2F74
ENCODING 12148
SWIDTH 1000 0
DWIDTH 6 0
BBX 5 7 0 0
BITMAP
20
F8
50
50
50
60
F8
ENDCHAR
STARTCHAR U+2F75
ENCODING 12149
SWIDTH 1000 0
DWIDTH 6 0
BBX 5 7 0 0
BITMAP
A0
F8
D0
50
50
50
50
ENDCHAR
STARTCHAR U+2F76
ENCODING 12150
SWIDTH 1000 0
DWIDTH 6 0
BBX 5 7 0 0
BITMAP
A8
20
F8
20
70
A8
20
ENDCHAR
STARTCHAR U+2F77
ENCODING 12151
SWIDTH 1000 0
DWIDTH 6 0
BBX 5 7 0 0
BITMAP
20
D0
20
50
E8
20
A8
ENDCHAR
STARTCHAR U+2F78
ENCODING 12152
SWIDTH 1000 0
DWIDTH 6 0
BBX 5 7 0 0
BITMAP
40
70
A0
F8
20
A8
F8
ENDCHAR
STARTCHAR U+2F79
ENCODING 12153
SWIDTH 1000 0
DWIDTH 6 0
BBX 5 7 0 0
BITMAP
F8
A8
F8
B8
D8
A8
98
ENDCHAR
STARTCHAR U+2F7A
ENCODING 12154
SWIDTH 1000 0
DWIDTH 6 0
BBX 5 7 0 0
BITMAP
50
F8
20
70
20
F8
20
ENDCHAR
STARTCHAR U+2F7B
ENCODING 12155
SWIDTH 1000 0
DWIDTH 6 0
BBX 5 7 0 0
BITMAP
F8
28
B8
28
78
A8
28
ENDCHAR
STARTCHAR U+2F7C
ENCODING 12156
SWIDTH 1000 0
DWIDTH 6 0
BBX 5 7 0 0
BITMAP
28
70
20
F8
70
A0
38
ENDCHAR
STARTCHAR U+2F7D
ENCODING 12157
SWIDTH 1000 0
DWIDTH 6 0
BBX 5 7 0 0
BITMAP
F8
40
F8
A8
A8
A8
A8
ENDCHAR
STARTCHAR U+2F7E
ENCODING 12158
SWIDTH 1000 0
DWIDTH 6 0
BBX 5 7 0 0
BITMAP
20
F8
70
20
F8
70
A8
ENDCHAR
STARTCHAR U+2F7F
ENCODING 12159
SWIDTH 1000 0
DWIDTH 6 0
BBX 5 7 0 0
BITMAP
F8
50
70
70
50
F8
10
ENDCHAR
STARTCHAR U+2F80
ENCODING 12160
SWIDTH 1000 0
DWIDTH 6 0
BBX 5 7 0 0
BITMAP
20
70
38
F0
20
F8
20
ENDCHAR
STARTCHAR U+2F81
ENCODING 12161
SWIDTH 1000 0
DWIDTH 6 0
BBX 5 7 0 0
BITMAP
20
F8
A8
D8
A8
D8
88
ENDCHAR
STARTCHAR U+2F82
ENCODING 12162
SWIDTH 1000 0
DWIDTH 6 0
BBX 5 7 0 0
BITMAP
F8
A0
F0
90
F0
A0
F8
ENDCHAR
STARTCHAR U+2F83
ENCODING 12163
SWIDTH 1000 0
DWIDTH 6 0
BBX 5 7 0 0
BITMAP
20
F8
88
E8
B8
88
F8
ENDCHAR
STARTCHAR U+2F84
ENCODING 12164
SWIDTH 1000 0
DWIDTH 6 0
BBX 5 7 0 0
BITMAP
F8
50
E8
20
70
20
F8
ENDCHAR
STARTCHAR U+2F85
ENCODING 12165
SWIDTH 1000 0
DWIDTH 6 0
BBX 5 7 0 0
BITMAP
40
98
88
D8
88
88
F8
ENDCHAR
STARTCHAR U+2F86
ENCODING 12166
SWIDTH 1000 0
DWIDTH 6 0
BBX 5 7 0 0
BITMAP
10
60
F8
20
70
50
70
ENDCHAR
STARTCHAR U+2F87
ENCODING 12167
SWIDTH 1000 0
DWIDTH 6 0
BBX 5 7 0 0
BITMAP
48
78
A8
68
38
48
88
ENDCHAR
STARTCHAR U+2F88
ENCODING 12168
SWIDTH 1000 0
DWIDTH 6 0
BBX 5 7 0 0
BITMAP
20
78
68
48
F8
48
A8
ENDCHAR
STARTCHAR U+2F89
ENCODING 12169
SWIDTH 1000 0
DWIDTH 6 0
BBX 5 7 0 0
BITMAP
F8
88
F8
88
F8
A0
D8
ENDCHAR
STARTCHAR U+2F8A
ENCODING 12170
SWIDTH 1000 0
DWIDTH 6 0
BBX 5 7 0 0
BITMAP
30
D0
78
58
78
40
38
ENDCHAR
STARTCHAR U+2F8B
ENCODING 12171
SWIDTH 1000 0
DWIDTH 6 0
BBX 5 7 0 0
BITMAP
50
D8
D8
D8
F8
50
90
ENDCHAR
STARTCHAR U+2F8C
ENCODING 12172
SWIDTH 1000 0
DWIDTH 6 0
BBX 5 7 0 0
BITMAP
20
30
F8
A8
F0
A8
B8
ENDCHAR
STARTCHAR U+2F8D
ENCODING 12173
SWIDTH 1000 0
DWIDTH 6 0
BBX 5 7 0 0
BITMAP
20
F8
A8
F8
20
28
F8
ENDCHAR
STARTCHAR U+2F8E
ENCODING 12174
SWIDTH 1000 0
DWIDTH 6 0
BBX 5 7 0 0
BITMAP
20
78
58
58
58
58
F8
ENDCHAR
STARTCHAR U+2F8F
ENCODING 12175
SWIDTH 1000 0
DWIDTH 6 0
BBX 5 7 0 0
BITMAP
58
80
78
C8
48
48
58
ENDCHAR
STARTCHAR U+2F90
ENCODING 12176
SWIDTH 1000 0
DWIDTH 6 0
BBX 5 7 0 0
BITMAP
20
F8
20
68
D0
50
68
ENDCHAR
STARTCHAR U+2F91
ENCODING 12177
SWIDTH 1000 0
DWIDTH 6 0
BBX 5 6 0 0
BITMAP
F8
50
F8
D8
F8
88
ENDCHAR
STARTCHAR U+2F92
ENCODING 12178
SWIDTH 1000 0
DWIDTH 6 0
BBX 5 7 0 0
BITMAP
F8
88
F8
88
F8
50
98
ENDCHAR
STARTCHAR U+2F93
ENCODING 12179
SWIDTH 1000 0
DWIDTH 6 0
BBX 5 7 0 0
BITMAP
30
D0
78
68
78
A8
98
ENDCHAR
STARTCHAR U+2F94
ENCODING 12180
SWIDTH 1000 0
DWIDTH 6 0
BBX 5 7 0 0
BITMAP
20
F8
00
70
00
70
70
ENDCHAR
STARTCHAR U+2F95
ENCODING 12181
SWIDTH 1000 0
DWIDTH 6 0
BBX 5 7 0 0
BITMAP
50
88
20
50
88
70
70
ENDCHAR
STARTCHAR U+2F96
ENCODING 12182
SWIDTH 1000 0
DWIDTH 6 0
BBX 5 7 0 0
BITMAP
F8
00
F8
88
F8
50
F8
ENDCHAR
STARTCHAR U+2F97
ENCODING 12183
SWIDTH 1000 0
DWIDTH 6 0
BBX 5 7 0 0
BITMAP
F8
20
68
B0
50
98
20
ENDCHAR
STARTCHAR U+2F98
ENCODING 12184
SWIDTH 1000 0
DWIDTH 6 0
BBX 5 7 0 0
BITMAP
10
68
F0
28
58
28
50
ENDCHAR
STARTCHAR U+2F99
ENCODING 12185
SWIDTH 1000 0
DWIDTH 6 0
BBX 5 7 0 0
BITMAP
F8
88
F8
88
F8
00
88
ENDCHAR
STARTCHAR U+2F9A
ENCODING 12186
SWIDTH 1000 0
DWIDTH 6 0
BBX 5 7 0 0
BITMAP
20
70
20
F8
50
D8
50
ENDCHAR
STARTCHAR U+2F9B
ENCODING 12187
SWIDTH 1000 0
DWIDTH 6 0
BBX 5 7 0 0
BITMAP
20
70
20
F8
30
60
B8
ENDCHAR
STARTCHAR U+2F9C
ENCODING 12188
SWIDTH 1000 0
DWIDTH 6 0
BBX 5 7 0 0
BITMAP
70
50
70
20
70
60
B8
ENDCHAR
STARTCHAR U+2F9D
ENCODING 12189
SWIDTH 1000 0
DWIDTH 6 0
BBX 5 7 0 0
BITMAP
20
70
50
70
D8
30
D0
ENDCHAR
STARTCHAR U+2F9E
ENCODING 12190
SWIDTH 1000 0
DWIDTH 6 0
BBX 5 7 0 0
BITMAP
20
F8
70
70
70
F8
20
ENDCHAR
STARTCHAR U+2F9F
ENCODING 12191
SWIDTH 1000 0
DWIDTH 6 0
BBX 5 7 0 0
BITMAP
20
F8
50
F8
20
F8
20
ENDCHAR
STARTCHAR U+2FA0
ENCODING 12192
SWIDTH 1000 0
DWIDTH 6 0
BBX 5 7 0 0
BITMAP
F8
80
B0
80
F8
D0
68
ENDCHAR
STARTCHAR U+2FA1
ENCODING 12193
SWIDTH 1000 0
DWIDTH 6 0
BBX 5 7 0 0
BITMAP
10
E8
10
E0
38
60
B8
ENDCHAR
STARTCHAR U+2FA2
ENCODING 12194
SWIDTH 1000 0
DWIDTH 6 0
BBX 5 7 0 0
BITMAP
70
50
F8
A8
F8
80
78
ENDCHAR
STARTCHAR U+2FA3
ENCODING 12195
SWIDTH 1000 0
DWIDTH 6 0
BBX 5 7 0 0
BITMAP
F8
50
F8
D8
88
F8
F8
ENDCHAR
STARTCHAR U+2FA4
ENCODING 12196
SWIDTH 1000 0
DWIDTH 6 0
BBX 5 7 0 0
BITMAP
18
E0
A8
F8
20
70
A8
ENDCHAR
STARTCHAR U+2FA5
ENCODING 12197
SWIDTH 1000 0
DWIDTH 6 0
BBX 5 7 0 0
BITMAP
F8
A8
F8
20
70
20
F8
ENDCHAR
STARTCHAR U+2FA6
ENCODING 12198
SWIDTH 1000 0
DWIDTH 6 0
BBX 5 7 0 0
BITMAP
20
50
F8
20
F8
70
F8
ENDCHAR
STARTCHAR U+2FA7
ENCODING 12199
SWIDTH 1000 0
DWIDTH 6 0
BBX 5 7 0 0
BITMAP
70
40
70
40
F8
50
68
ENDCHAR
STARTCHAR U+2FA8
ENCODING 12200
SWIDTH 1000 0
DWIDTH 6 0
BBX 5 7 0 0
BITMAP
D8
D8
D8
88
88
88
98
ENDCHAR
STARTCHAR U+2FA9
ENCODING 12201
SWIDTH 1000 0
DWIDTH 6 0
BBX 5 7 0 0
BITMAP
20
70
50
78
48
F8
20
ENDCHAR
STARTCHAR U+2FAA
ENCODING 12202
SWIDTH 1000 0
DWIDTH 6 0
BBX 5 7 0 0
BITMAP
20
70
38
F0
A8
70
A8
ENDCHAR
STARTCHAR U+2FAB
ENCODING 12203
SWIDTH 1000 0
DWIDTH 6 0
BBX 5 7 0 0
BITMAP
50
78
D0
78
50
50
78
ENDCHAR
STARTCHAR U+2FAC
ENCODING 12204
SWIDTH 1000 0
DWIDTH 6 0
BBX 5 7 0 0
BITMAP
F8
20
F8
F8
A8
F8
A8
ENDCHAR
STARTCHAR U+2FAD
ENCODING 12205
SWIDTH 1000 0
DWIDTH 6 0
BBX 5 7 0 0
BITMAP
20
70
20
F8
70
50
50
ENDCHAR
STARTCHAR U+2FAE
ENCODING 12206
SWIDTH 1000 0
DWIDTH 6 0
BBX 5 7 0 0
BITMAP
50
D8
50
D8
50
D8
50
ENDCHAR
STARTCHAR U+2FAF
ENCODING 12207
SWIDTH 1000 0
DWIDTH 6 0
BBX 5 7 0 0
BITMAP
F8
20
F8
D8
F8
D8
F8
ENDCHAR
STARTCHAR U+2FB0
ENCODING 12208
SWIDTH 1000 0
DWIDTH 6 0
BBX 5 7 0 0
BITMAP
50
F8
20
70
70
F8
20
ENDCHAR
STARTCHAR U+2FB1
ENCODING 12209
SWIDTH 1000 0
DWIDTH 6 0
BBX 5 7 0 0
BITMAP
10
78
28
F8
50
F8
10
ENDCHAR
STARTCHAR U+2FB2
ENCODING 12210
SWIDTH 1000 0
DWIDTH 6 0
BBX 5 7 0 0
BITMAP
50
D8
50
D8
50
D8
F8
ENDCHAR
STARTCHAR U+2FB3
ENCODING 12211
SWIDTH 1000 0
DWIDTH 6 0
BBX 5 7 0 0
BITMAP
20
F8
50
F8
70
50
70
ENDCHAR
STARTCHAR U+2FB4
ENCODING 12212
SWIDTH 1000 0
DWIDTH 6 0
BBX 5 7 0 0
BITMAP
F8
20
50
70
50
70
88
ENDCHAR
STARTCHAR U+2FB5
ENCODING 12213
SWIDTH 1000 0
DWIDTH 6 0
BBX 5 7 0 0
BITMAP
F8
A8
F8
F8
A8
B8
E8
ENDCHAR
STARTCHAR U+2FB6
ENCODING 12214
SWIDTH 1000 0
DWIDTH 6 0
BBX 5 7 0 0
BITMAP
F0
70
A8
F0
78
70
A8
ENDCHAR
STARTCHAR U+2FB7
ENCODING 12215
SWIDTH 1000 0
DWIDTH 6 0
BBX 5 7 0 0
BITMAP
20
50
A8
60
68
50
68
ENDCHAR
STARTCHAR U+2FB8
ENCODING 12216
SWIDTH 1000 0
DWIDTH 6 0
BBX 5 7 0 0
BITMAP
50
F8
20
50
70
50
70
ENDCHAR
STARTCHAR U+2FB9
ENCODING 12217
SWIDTH 1000 0
DWIDTH 6 0
BBX 5 7 0 0
BITMAP
10
60
F8
70
A8
70
70
ENDCHAR
STARTCHAR U+2FBA
ENCODING 12218
SWIDTH 1000 0
DWIDTH 6 0
BBX 5 7 0 0
BITMAP
F8
A0
F0
A0
F8
08
A8
ENDCHAR
STARTCHAR U+2FBB
ENCODING 12219
SWIDTH 1000 0
DWIDTH 6 0
BBX 5 7 0 0
BITMAP
70
50
F8
88
70
70
50
ENDCHAR
STARTCHAR U+2FBC
ENCODING 12220
SWIDTH 1000 0
DWIDTH 6 0
BBX 5 7 0 0
BITMAP
20
F8
50
70
F8
88
A8
ENDCHAR
STARTCHAR U+2FBD
ENCODING 12221
SWIDTH 1000 0
DWIDTH 6 0
BBX 5 7 0 0
BITMAP
68
50
68
50
E0
48
F0
ENDCHAR
STARTCHAR U+2FBE
ENCODING 12222
SWIDTH 1000 0
DWIDTH 6 0
BBX 5 7 0 0
BITMAP
D8
88
D8
88
88
88
98
ENDCHAR
STARTCHAR U+2FBF
ENCODING 12223
SWIDTH 1000 0
DWIDTH 6 0
BBX 5 7 0 0
BITMAP
A8
D8
A8
F8
E0
88
78
ENDCHAR
STARTCHAR U+2FC0
ENCODING 12224
SWIDTH 1000 0
DWIDTH 6 0
BBX 5 7 0 0
BITMAP
F8
50
70
F8
D8
F8
A8
ENDCHAR
STARTCHAR U+2FC1
ENCODING 12225
SWIDTH 1000 0
DWIDTH 6 0
BBX 5 7 0 0
BITMAP
40
F8
A8
F8
A8
70
98
ENDCHAR
STARTCHAR U+2FC2
ENCODING 12226
SWIDTH 1000 0
DWIDTH 6 0
BBX 5 7 0 0
BITMAP
30
D0
78
68
78
00
A8
ENDCHAR
STARTCHAR U+2FC3
ENCODING 12227
SWIDTH 1000 0
DWIDTH 6 0
BBX 5 7 0 0
BITMAP
20
70
70
40
78
08
A8
ENDCHAR
STARTCHAR U+2FC4
ENCODING 12228
SWIDTH 1000 0
DWIDTH 6 0
BBX 5 7 0 0
BITMAP
20
38
F0
A8
D8
A8
F8
ENDCHAR
STARTCHAR U+2FC5
ENCODING 12229
SWIDTH 1000 0
DWIDTH 6 0
BBX 5 7 0 0
BITMAP
20
F8
B0
F0
D8
90
D8
ENDCHAR
STARTCHAR U+2FC6
ENCODING 12230
SWIDTH 1000 0
DWIDTH 6 0
BBX 5 7 0 0
BITMAP
20
F8
50
A8
50
20
50
ENDCHAR
STARTCHAR U+2FC7
ENCODING 12231
SWIDTH 1000 0
DWIDTH 6 0
BBX 5 7 0 0
BITMAP
20
F8
D0
F8
D0
F8
50
ENDCHAR
STARTCHAR U+2FC8
ENCODING 12232
SWIDTH 1000 0
DWIDTH 6 0
BBX 5 7 0 0
BITMAP
50
F8
50
F8
70
70
88
ENDCHAR
STARTCHAR U+2FC9
ENCODING 12233
SWIDTH 1000 0
DWIDTH 6 0
BBX 5 7 0 0
BITMAP
70
F8
70
A8
50
F8
A8
ENDCHAR
STARTCHAR U+2FCA
ENCODING 12234
SWIDTH 1000 0
DWIDTH 6 0
BBX 5 7 0 0
BITMAP
F8
D8
F8
20
F8
00
A8
ENDCHAR
STARTCHAR U+2FCB
ENCODING 12235
SWIDTH 1000 0
DWIDTH 6 0
BBX 5 7 0 0
BITMAP
A8
F8
50
A8
70
70
50
ENDCHAR
STARTCHAR U+2FCC
ENCODING 12236
SWIDTH 1000 0
DWIDTH 6 0
BBX 5 7 0 0
BITMAP
F8
D8
50
D8
D8
50
78
ENDCHAR
STARTCHAR U+2FCD
ENCODING 12237
SWIDTH 1000 0
DWIDTH 6 0
BBX 5 7 0 0
BITMAP
30
B8
88
D8
50
D8
50
ENDCHAR
STARTCHAR U+2FCE
ENCODING 12238
SWIDTH 1000 0
DWIDTH 6 0
BBX 5 7 0 0
BITMAP
50
F8
50
B8
E8
50
E8
ENDCHAR
STARTCHAR U+2FCF
ENCODING 12239
SWIDTH 1000 0
DWIDTH 6 0
BBX 5 7 0 0
BITMAP
58
88
F8
A8
D8
A8
D8
ENDCHAR
STARTCHAR U+2FD0
ENCODING 12240
SWIDTH 1000 0
DWIDTH 6 0
BBX 5 7 0 0
BITMAP
20
70
50
F8
A8
F8
50
ENDCHAR
STARTCHAR U+2FD1
ENCODING 12241
SWIDTH 1000 0
DWIDTH 6 0
BBX 5 7 0 0
BITMAP
20
F8
50
A8
50
70
90
ENDCHAR
STARTCHAR U+2FD2
ENCODING 12242
SWIDTH 1000 0
DWIDTH 6 0
BBX 5 7 0 0
BITMAP
10
58
F0
68
58
68
78
ENDCHAR
STARTCHAR U+2FD3
ENCODING 12243
SWIDTH 1000 0
DWIDTH 6 0
BBX 5 7 0 0
BITMAP
58
F0
B8
68
B8
F0
B8
ENDCHAR
STARTCHAR U+2FD4
ENCODING 12244
SWIDTH 1000 0
DWIDTH 6 0
BBX 5 7 0 0
BITMAP
30
D0
70
D8
58
D0
78
ENDCHAR
STARTCHAR U+2FD5
ENCODING 12245
SWIDTH 1000 0
DWIDTH 6 0
BBX 5 7 0 0
BITMAP
20
50
F8
A8
F8
F8
A8
ENDCHAR
STARTCHAR U+3000
ENCODING 12288
SWIDTH 1000 0
DWIDTH 6 0
BBX 0 0 0 0
BITMAP
ENDCHAR
STARTCHAR U+3001
ENCODING 12289
SWIDTH 1000 0
DWIDTH 6 0
BBX 2 2 0 0
BITMAP
80
40
ENDCHAR
STARTCHAR U+3002
ENCODING 12290
SWIDTH 1000 0
DWIDTH 6 0
BBX 3 3 0 0
BITMAP
40
A0
40
ENDCHAR
STARTCHAR U+3003
ENCODING 12291
SWIDTH 1000 0
DWIDTH 6 0
BBX 5 4 0 1
BITMAP
48
48
48
90
ENDCHAR
STARTCHAR U+3005
ENCODING 12293
SWIDTH 1000 0
DWIDTH 6 0
BBX 5 6 0 0
BITMAP
40
78
48
90
20
10
ENDCHAR
STARTCHAR U+3006
ENCODING 12294
SWIDTH 1000 0
DWIDTH 6 0
BBX 5 7 0 0
BITMAP
08
08
68
90
A8
C0
80
ENDCHAR
STARTCHAR U+3007
ENCODING 12295
SWIDTH 1000 0
DWIDTH 6 0
BBX 5 4 0 1
BITMAP
70
88
88
70
ENDCHAR
STARTCHAR U+3008
ENCODING 12296
SWIDTH 1000 0
DWIDTH 6 0
BBX 4 7 0 0
BITMAP
10
20
40
80
40
20
10
ENDCHAR
STARTCHAR U+3009
ENCODING 12297
SWIDTH 1000 0
DWIDTH 6 0
BBX 4 7 1 0
BITMAP
80
40
20
10
20
40
80
ENDCHAR
STARTCHAR U+300A
ENCODING 12298
SWIDTH 1000 0
DWIDTH 6 0
BBX 5 7 0 0
BITMAP
10
28
50
A0
50
28
10
ENDCHAR
STARTCHAR U+300B
ENCODING 12299
SWIDTH 1000 0
DWIDTH 6 0
BBX 5 7 0 0
BITMAP
40
A0
50
28
50
A0
40
ENDCHAR
STARTCHAR U+300C
ENCODING 12300
SWIDTH 1000 0
DWIDTH 6 0
BBX 3 5 2 2
BITMAP
E0
80
80
80
80
ENDCHAR
STARTCHAR U+300D
ENCODING 12301
SWIDTH 1000 0
DWIDTH 6 0
BBX 3 5 0 0
BITMAP
20
20
20
20
E0
ENDCHAR
STARTCHAR U+300E
ENCODING 12302
SWIDTH 1000 0
DWIDTH 6 0
BBX 4 6 1 1
BITMAP
F0
90
B0
A0
A0
E0
ENDCHAR
STARTCHAR U+300F
ENCODING 12303
SWIDTH 1000 0
DWIDTH 6 0
BBX 4 6 0 0
BITMAP
70
50
50
D0
90
F0
ENDCHAR
STARTCHAR U+3010
ENCODING 12304
SWIDTH 1000 0
DWIDTH 6 0
BBX 3 7 1 0
BITMAP
E0
C0
80
80
80
C0
E0
ENDCHAR
STARTCHAR U+3011
ENCODING 12305
SWIDTH 1000 0
DWIDTH 6 0
BBX 3 7 1 0
BITMAP
E0
60
20
20
20
60
E0
ENDCHAR
STARTCHAR U+3012
ENCODING 12306
SWIDTH 1000 0
DWIDTH 6 0
BBX 5 6 0 0
BITMAP
F8
00
F8
20
20
20
ENDCHAR
STARTCHAR U+3013
ENCODING 12307
SWIDTH 1000 0
DWIDTH 6 0
BBX 5 5 0 1
BITMAP
F8
F8
00
F8
F8
ENDCHAR
STARTCHAR U+3014
ENCODING 12308
SWIDTH 1000 0
DWIDTH 6 0
BBX 4 7 0 0
BITMAP
30
C0
80
80
80
C0
30
ENDCHAR
STARTCHAR U+3015
ENCODING 12309
SWIDTH 1000 0
DWIDTH 6 0
BBX 4 7 1 0
BITMAP
C0
30
10
10
10
30
C0
ENDCHAR
STARTCHAR U+3016
ENCODING 12310
SWIDTH 1000 0
DWIDTH 6 0
BBX 4 7 1 0
BITMAP
F0
90
A0
A0
A0
90
F0
ENDCHAR
STARTCHAR U+3017
ENCODING 12311
SWIDTH 1000 0
DWIDTH 6 0
BBX 4 7 0 0
BITMAP
F0
90
50
50
50
90
F0
ENDCHAR
STARTCHAR U+301C
ENCODING 12316
SWIDTH 1000 0
DWIDTH 6 0
BBX 5 3 0 2
BITMAP
40
A8
10
ENDCHAR
STARTCHAR U+301D
ENCODING 12317
SWIDTH 1000 0
DWIDTH 6 0
BBX 4 3 1 4
BITMAP
50
50
A0
ENDCHAR
STARTCHAR U+301F
ENCODING 12319
SWIDTH 1000 0
DWIDTH 6 0
BBX 4 3 0 0
BITMAP
50
50
A0
ENDCHAR
STARTCHAR U+3021
ENCODING 12321
SWIDTH 1000 0
DWIDTH 6 0
BBX 1 7 2 0
BITMAP
80
80
80
80
80
80
80
ENDCHAR
STARTCHAR U+3022
ENCODING 12322
SWIDTH 1000 0
DWIDTH 6 0
BBX 3 7 1 0
BITMAP
20
A0
A0
A0
A0
A0
20
ENDCHAR
STARTCHAR U+3023
ENCODING 12323
SWIDTH 1000 0
DWIDTH 6 0
BBX 5 7 0 0
BITMAP
08
A8
A8
A8
A8
88
08
ENDCHAR
STARTCHAR U+3024
ENCODING 12324
SWIDTH 1000 0
DWIDTH 6 0
BBX 5 7 0 0
BITMAP
08
48
28
10
28
48
80
ENDCHAR
STARTCHAR U+3025
ENCODING 12325
SWIDTH 1000 0
DWIDTH 6 0
BBX 5 7 0 0
BITMAP
48
90
60
50
88
90
60
ENDCHAR
STARTCHAR U+3026
ENCODING 12326
SWIDTH 1000 0
DWIDTH 6 0
BBX 5 7 0 0
BITMAP
20
20
20
20
20
20
F8
ENDCHAR
STARTCHAR U+3027
ENCODING 12327
SWIDTH 1000 0
DWIDTH 6 0
BBX 5 7 0 0
BITMAP
20
20
20
20
F8
00
70
ENDCHAR
STARTCHAR U+3028
ENCODING 12328
SWIDTH 1000 0
DWIDTH 6 0
BBX 5 7 0 0
BITMAP
20
20
F8
00
70
00
70
ENDCHAR
STARTCHAR U+3029
ENCODING 12329
SWIDTH 1000 0
DWIDTH 6 0
BBX 5 7 0 0
BITMAP
20
20
F8
88
50
20
D8
ENDCHAR
STARTCHAR U+3038
ENCODING 12344
SWIDTH 1000 0
DWIDTH 6 0
BBX 5 7 0 0
BITMAP
20
20
20
F8
20
20
20
ENDCHAR
STARTCHAR U+3039
ENCODING 12345
SWIDTH 1000 0
DWIDTH 6 0
BBX 5 7 0 0
BITMAP
50
50
50
F8
50
50
50
ENDCHAR
STARTCHAR U+303A
ENCODING 12346
SWIDTH 1000 0
DWIDTH 6 0
BBX 5 7 0 0
BITMAP
48
68
68
F8
68
68
A8
ENDCHAR
STARTCHAR U+3041
ENCODING 12353
SWIDTH 1000 0
DWIDTH 6 0
BBX 5 6 0 0
BITMAP
20
70
20
70
A8
58
ENDCHAR
STARTCHAR U+3042
ENCODING 12354
SWIDTH 1000 0
DWIDTH 6 0
BBX 5 7 0 0
BITMAP
20
70
20
70
A8
B8
68
ENDCHAR
STARTCHAR U+3043
ENCODING 12355
SWIDTH 1000 0
DWIDTH 6 0
BBX 5 5 0 0
BITMAP
90
88
88
A0
40
ENDCHAR
STARTCHAR U+3044
ENCODING 12356
SWIDTH 1000 0
DWIDTH 6 0
BBX 5 6 0 0
BITMAP
90
88
88
88
A0
40
ENDCHAR
STARTCHAR U+3045
ENCODING 12357
SWIDTH 1000 0
DWIDTH 6 0
BBX 5 6 0 0
BITMAP
70
00
70
88
10
60
ENDCHAR
STARTCHAR U+3046
ENCODING 12358
SWIDTH 1000 0
DWIDTH 6 0
BBX 5 7 0 0
BITMAP
70
00
70
88
08
10
60
ENDCHAR
STARTCHAR U+3047
ENCODING 12359
SWIDTH 1000 0
DWIDTH 6 0
BBX 5 6 0 0
BITMAP
70
00
F0
10
60
98
ENDCHAR
STARTCHAR U+3048
ENCODING 12360
SWIDTH 1000 0
DWIDTH 6 0
BBX 5 7 0 0
BITMAP
70
00
F0
10
20
50
98
ENDCHAR
STARTCHAR U+3049
ENCODING 12361
SWIDTH 1000 0
DWIDTH 6 0
BBX 5 6 0 0
BITMAP
40
E8
40
70
C8
50
ENDCHAR
STARTCHAR U+304A
ENCODING 12362
SWIDTH 1000 0
DWIDTH 6 0
BBX 5 7 0 0
BITMAP
40
E8
40
70
C8
C8
50
ENDCHAR
STARTCHAR U+304B
ENCODING 12363
SWIDTH 1000 0
DWIDTH 6 0
BBX 5 7 0 0
BITMAP
40
E8
58
50
90
90
A0
ENDCHAR
STARTCHAR U+304C
ENCODING 12364
SWIDTH 1000 0
DWIDTH 6 0
BBX 5 7 0 0
BITMAP
40
E8
50
58
90
90
A0
ENDCHAR
STARTCHAR U+304D
ENCODING 12365
SWIDTH 1000 0
DWIDTH 6 0
BBX 5 7 0 0
BITMAP
20
F0
20
F8
50
80
70
ENDCHAR
STARTCHAR U+304E
ENCODING 12366
SWIDTH 1000 0
DWIDTH 6 0
BBX 5 7 0 0
BITMAP
28
F0
20
F8
50
80
70
ENDCHAR
STARTCHAR U+304F
ENCODING 12367
SWIDTH 1000 0
DWIDTH 6 0
BBX 4 7 0 0
BITMAP
10
10
60
80
60
10
10
ENDCHAR
STARTCHAR U+3050
ENCODING 12368
SWIDTH 1000 0
DWIDTH 6 0
BBX 5 7 0 0
BITMAP
10
10
68
80
60
10
10
ENDCHAR
STARTCHAR U+3051
ENCODING 12369
SWIDTH 1000 0
DWIDTH 6 0
BBX 5 7 0 0
BITMAP
90
90
B8
90
90
90
20
ENDCHAR
STARTCHAR U+3052
ENCODING 12370
SWIDTH 1000 0
DWIDTH 6 0
BBX 5 7 0 0
BITMAP
A8
90
B8
90
90
90
20
ENDCHAR
STARTCHAR U+3053
ENCODING 12371
SWIDTH 1000 0
DWIDTH 6 0
BBX 5 6 0 0
BITMAP
70
00
00
40
80
78
ENDCHAR
STARTCHAR U+3054
ENCODING 12372
SWIDTH 1000 0
DWIDTH 6 0
BBX 5 7 0 0
BITMAP
28
70
00
00
40
80
78
ENDCHAR
STARTCHAR U+3055
ENCODING 12373
SWIDTH 1000 0
DWIDTH 6 0
BBX 5 7 0 0
BITMAP
20
F8
10
70
90
80
70
ENDCHAR
STARTCHAR U+3056
ENCODING 12374
SWIDTH 1000 0
DWIDTH 6 0
BBX 5 7 0 0
BITMAP
28
F8
10
70
90
80
70
ENDCHAR
STARTCHAR U+3057
ENCODING 12375
SWIDTH 1000 0
DWIDTH 6 0
BBX 4 7 1 0
BITMAP
80
80
80
80
80
90
60
ENDCHAR
STARTCHAR U+3058
ENCODING 12376
SWIDTH 1000 0
DWIDTH 6 0
BBX 4 7 1 0
BITMAP
50
80
80
80
80
90
60
ENDCHAR
STARTCHAR U+3059
ENCODING 12377
SWIDTH 1000 0
DWIDTH 6 0
BBX 5 7 0 0
BITMAP
10
F8
50
50
30
10
20
ENDCHAR
STARTCHAR U+305A
ENCODING 12378
SWIDTH 1000 0
DWIDTH 6 0
BBX 5 7 0 0
BITMAP
28
F8
50
50
30
10
20
ENDCHAR
STARTCHAR U+305B
ENCODING 12379
SWIDTH 1000 0
DWIDTH 6 0
BBX 5 7 0 0
BITMAP
50
50
F8
50
50
40
38
ENDCHAR
STARTCHAR U+305C
ENCODING 12380
SWIDTH 1000 0
DWIDTH 6 0
BBX 5 7 0 0
BITMAP
58
50
F8
50
50
40
38
ENDCHAR
STARTCHAR U+305D
ENCODING 12381
SWIDTH 1000 0
DWIDTH 6 0
BBX 5 7 0 0
BITMAP
70
20
40
F8
20
40
30
ENDCHAR
STARTCHAR U+305E
ENCODING 12382
SWIDTH 1000 0
DWIDTH 6 0
BBX 5 7 0 0
BITMAP
70
28
40
F8
20
40
30
ENDCHAR
STARTCHAR U+305F
ENCODING 12383
SWIDTH 1000 0
DWIDTH 6 0
BBX 5 7 0 0
BITMAP
40
E0
58
40
90
A0
98
ENDCHAR
STARTCHAR U+3060
ENCODING 12384
SWIDTH 1000 0
DWIDTH 6 0
BBX 5 7 0 0
BITMAP
48
E0
58
40
90
A0
98
ENDCHAR
STARTCHAR U+3061
ENCODING 12385
SWIDTH 1000 0
DWIDTH 6 0
BBX 5 7 0 0
BITMAP
20
F8
40
70
48
08
70
ENDCHAR
STARTCHAR U+3062
ENCODING 12386
SWIDTH 1000 0
DWIDTH 6 0
BBX 5 7 0 0
BITMAP
28
F8
40
70
48
08
70
ENDCHAR
STARTCHAR U+3063
ENCODING 12387
SWIDTH 1000 0
DWIDTH 6 0
BBX 5 4 0 0
BITMAP
30
C8
08
30
ENDCHAR
STARTCHAR U+3064
ENCODING 12388
SWIDTH 1000 0
DWIDTH 6 0
BBX 5 6 0 0
BITMAP
30
C8
08
08
10
60
ENDCHAR
STARTCHAR U+3065
ENCODING 12389
SWIDTH 1000 0
DWIDTH 6 0
BBX 5 7 0 0
BITMAP
28
30
C8
08
08
10
60
ENDCHAR
STARTCHAR U+3066
ENCODING 12390
SWIDTH 1000 0
DWIDTH 6 0
BBX 5 6 0 0
BITMAP
F8
20
40
40
20
18
ENDCHAR
STARTCHAR U+3067
ENCODING 12391
SWIDTH 1000 0
DWIDTH 6 0
BBX 5 6 0 0
BITMAP
F8
20
48
40
20
18
ENDCHAR
STARTCHAR U+3068
ENCODING 12392
SWIDTH 1000 0
DWIDTH 6 0
BBX 5 7 0 0
BITMAP
40
40
50
60
80
80
78
ENDCHAR
STARTCHAR U+3069
ENCODING 12393
SWIDTH 1000 0
DWIDTH 6 0
BBX 5 7 0 0
BITMAP
50
40
50
60
80
80
78
ENDCHAR
STARTCHAR U+306A
ENCODING 12394
SWIDTH 1000 0
DWIDTH 6 0
BBX 5 7 0 0
BITMAP
40
D8
50
90
30
58
30
ENDCHAR
STARTCHAR U+306B
ENCODING 12395
SWIDTH 1000 0
DWIDTH 6 0
BBX 5 7 0 0
BITMAP
80
B8
80
80
A0
C0
B8
ENDCHAR
STARTCHAR U+306C
ENCODING 12396
SWIDTH 1000 0
DWIDTH 6 0
BBX 5 7 0 0
BITMAP
50
50
68
A8
B8
A8
58
ENDCHAR
STARTCHAR U+306D
ENCODING 12397
SWIDTH 1000 0
DWIDTH 6 0
BBX 5 7 0 0
BITMAP
40
D0
68
48
D8
68
58
ENDCHAR
STARTCHAR U+306E
ENCODING 12398
SWIDTH 1000 0
DWIDTH 6 0
BBX 5 6 0 0
BITMAP
70
A8
A8
A8
C8
10
ENDCHAR
STARTCHAR U+306F
ENCODING 12399
SWIDTH 1000 0
DWIDTH 6 0
BBX 5 7 0 0
BITMAP
90
B8
90
90
B0
D8
B0
ENDCHAR
STARTCHAR U+3070
ENCODING 12400
SWIDTH 1000 0
DWIDTH 6 0
BBX 5 7 0 0
BITMAP
A8
F8
90
90
B0
D8
B0
ENDCHAR
STARTCHAR U+3071
ENCODING 12401
SWIDTH 1000 0
DWIDTH 6 0
BBX 5 7 0 0
BITMAP
B8
E8
98
90
B0
D8
B0
ENDCHAR
STARTCHAR U+3072
ENCODING 12402
SWIDTH 1000 0
DWIDTH 6 0
BBX 5 7 0 0
BITMAP
C0
50
58
90
90
90
60
ENDCHAR
STARTCHAR U+3073
ENCODING 12403
SWIDTH 1000 0
DWIDTH 6 0
BBX 5 7 0 0
BITMAP
C8
50
58
90
90
90
60
ENDCHAR
STARTCHAR U+3074
ENCODING 12404
SWIDTH 1000 0
DWIDTH 6 0
BBX 5 7 0 0
BITMAP
C0
58
A8
98
90
90
60
ENDCHAR
STARTCHAR U+3075
ENCODING 12405
SWIDTH 1000 0
DWIDTH 6 0
BBX 5 7 0 0
BITMAP
60
10
20
20
10
D8
A8
ENDCHAR
STARTCHAR U+3076
ENCODING 12406
SWIDTH 1000 0
DWIDTH 6 0
BBX 5 7 0 0
BITMAP
68
10
20
20
10
D8
A8
ENDCHAR
STARTCHAR U+3077
ENCODING 12407
SWIDTH 1000 0
DWIDTH 6 0
BBX 5 7 0 0
BITMAP
78
28
18
20
10
D8
A8
ENDCHAR
STARTCHAR U+3078
ENCODING 12408
SWIDTH 1000 0
DWIDTH 6 0
BBX 5 5 0 1
BITMAP
40
A0
A0
90
08
ENDCHAR
STARTCHAR U+3079
ENCODING 12409
SWIDTH 1000 0
DWIDTH 6 0
BBX 5 6 0 1
BITMAP
28
40
A0
A0
90
08
ENDCHAR
STARTCHAR U+307A
ENCODING 12410
SWIDTH 1000 0
DWIDTH 6 0
BBX 5 6 0 1
BITMAP
38
68
B8
A0
90
08
ENDCHAR
STARTCHAR U+307B
ENCODING 12411
SWIDTH 1000 0
DWIDTH 6 0
BBX 5 7 0 0
BITMAP
B8
90
B8
90
B0
D8
B0
ENDCHAR
STARTCHAR U+307C
ENCODING 12412
SWIDTH 1000 0
DWIDTH 6 0
BBX 5 7 0 0
BITMAP
A8
F8
90
B8
90
A8
B0
ENDCHAR
STARTCHAR U+307D
ENCODING 12413
SWIDTH 1000 0
DWIDTH 6 0
BBX 5 7 0 0
BITMAP
B8
E8
90
B8
90
A8
B0
ENDCHAR
STARTCHAR U+307E
ENCODING 12414
SWIDTH 1000 0
DWIDTH 6 0
BBX 5 7 0 0
BITMAP
20
F8
20
F8
20
F0
E8
ENDCHAR
STARTCHAR U+307F
ENCODING 12415
SWIDTH 1000 0
DWIDTH 6 0
BBX 5 7 0 0
BITMAP
60
20
28
78
A8
A8
48
ENDCHAR
STARTCHAR U+3080
ENCODING 12416
SWIDTH 1000 0
DWIDTH 6 0
BBX 5 7 0 0
BITMAP
40
E8
40
60
A8
C8
70
ENDCHAR
STARTCHAR U+3081
ENCODING 12417
SWIDTH 1000 0
DWIDTH 6 0
BBX 5 7 0 0
BITMAP
50
50
68
A8
B8
A8
48
ENDCHAR
STARTCHAR U+3082
ENCODING 12418
SWIDTH 1000 0
DWIDTH 6 0
BBX 5 7 0 0
BITMAP
20
F0
40
F0
48
48
30
ENDCHAR
STARTCHAR U+3083
ENCODING 12419
SWIDTH 1000 0
DWIDTH 6 0
BBX 5 6 0 0
BITMAP
90
70
C8
58
20
20
ENDCHAR
STARTCHAR U+3084
ENCODING 12420
SWIDTH 1000 0
DWIDTH 6 0
BBX 5 7 0 0
BITMAP
90
70
C8
58
40
20
20
ENDCHAR
STARTCHAR U+3085
ENCODING 12421
SWIDTH 1000 0
DWIDTH 6 0
BBX 5 6 0 0
BITMAP
20
B0
E8
A8
30
40
ENDCHAR
STARTCHAR U+3086
ENCODING 12422
SWIDTH 1000 0
DWIDTH 6 0
BBX 5 7 0 0
BITMAP
20
B0
E8
A8
A8
30
40
ENDCHAR
STARTCHAR U+3087
ENCODING 12423
SWIDTH 1000 0
DWIDTH 6 0
BBX 5 6 0 0
BITMAP
20
30
20
60
B0
68
ENDCHAR
STARTCHAR U+3088
ENCODING 12424
SWIDTH 1000 0
DWIDTH 6 0
BBX 5 7 0 0
BITMAP
20
38
20
60
A0
B0
68
ENDCHAR
STARTCHAR U+3089
ENCODING 12425
SWIDTH 1000 0
DWIDTH 6 0
BBX 5 7 0 0
BITMAP
60
10
80
B0
C8
08
70
ENDCHAR
STARTCHAR U+308A
ENCODING 12426
SWIDTH 1000 0
DWIDTH 6 0
BBX 4 7 1 0
BITMAP
A0
D0
90
90
10
20
40
ENDCHAR
STARTCHAR U+308B
ENCODING 12427
SWIDTH 1000 0
DWIDTH 6 0
BBX 5 7 0 0
BITMAP
70
20
70
88
68
A8
70
ENDCHAR
STARTCHAR U+308C
ENCODING 12428
SWIDTH 1000 0
DWIDTH 6 0
BBX 5 7 0 0
BITMAP
40
D0
68
48
D0
50
48
ENDCHAR
STARTCHAR U+308D
ENCODING 12429
SWIDTH 1000 0
DWIDTH 6 0
BBX 5 7 0 0
BITMAP
70
10
20
70
88
08
70
ENDCHAR
STARTCHAR U+308E
ENCODING 12430
SWIDTH 1000 0
DWIDTH 6 0
BBX 5 5 0 0
BITMAP
50
E8
48
C8
50
ENDCHAR
STARTCHAR U+308F
ENCODING 12431
SWIDTH 1000 0
DWIDTH 6 0
BBX 5 7 0 0
BITMAP
40
D0
68
48
C8
48
50
ENDCHAR
STARTCHAR U+3090
ENCODING 12432
SWIDTH 1000 0
DWIDTH 6 0
BBX 5 7 0 0
BITMAP
60
20
30
68
B8
A8
58
ENDCHAR
STARTCHAR U+3091
ENCODING 12433
SWIDTH 1000 0
DWIDTH 6 0
BBX 5 7 0 0
BITMAP
70
20
70
88
30
50
A8
ENDCHAR
STARTCHAR U+3092
ENCODING 12434
SWIDTH 1000 0
DWIDTH 6 0
BBX 5 7 0 0
BITMAP
20
F0
40
E8
30
50
78
ENDCHAR
STARTCHAR U+3093
ENCODING 12435
SWIDTH 1000 0
DWIDTH 6 0
BBX 5 7 0 0
BITMAP
20
20
40
60
A0
A8
90
ENDCHAR
STARTCHAR U+3094
ENCODING 12436
SWIDTH 1000 0
DWIDTH 6 0
BBX 5 7 0 0
BITMAP
68
00
70
88
08
10
60
ENDCHAR
STARTCHAR U+3095
ENCODING 12437
SWIDTH 1000 0
DWIDTH 6 0
BBX 5 5 0 0
BITMAP
40
E8
58
90
A0
ENDCHAR
STARTCHAR U+3096
ENCODING 12438
SWIDTH 1000 0
DWIDTH 6 0
BBX 5 5 0 0
BITMAP
90
B8
90
90
20
ENDCHAR
STARTCHAR U+309B
ENCODING 12443
SWIDTH 1000 0
DWIDTH 6 0
BBX 4 2 0 5
BITMAP
A0
50
ENDCHAR
STARTCHAR U+309C
ENCODING 12444
SWIDTH 1000 0
DWIDTH 6 0
BBX 3 3 0 4
BITMAP
40
A0
40
ENDCHAR
STARTCHAR U+309D
ENCODING 12445
SWIDTH 1000 0
DWIDTH 6 0
BBX 4 4 1 1
BITMAP
C0
20
10
60
ENDCHAR
STARTCHAR U+309E
ENCODING 12446
SWIDTH 1000 0
DWIDTH 6 0
BBX 4 6 1 1
BITMAP
50
00
C0
20
10
60
ENDCHAR
STARTCHAR U+30A1
ENCODING 12449
SWIDTH 1000 0
DWIDTH 6 0
BBX 5 5 0 0
BITMAP
F8
28
30
20
40
ENDCHAR
STARTCHAR U+30A2
ENCODING 12450
SWIDTH 1000 0
DWIDTH 6 0
BBX 5 7 0 0
BITMAP
F8
08
28
30
20
20
40
ENDCHAR
STARTCHAR U+30A3
ENCODING 12451
SWIDTH 1000 0
DWIDTH 6 0
BBX 4 5 0 0
BITMAP
10
20
60
A0
20
ENDCHAR
STARTCHAR U+30A4
ENCODING 12452
SWIDTH 1000 0
DWIDTH 6 0
BBX 4 7 0 0
BITMAP
10
10
20
60
A0
20
20
ENDCHAR
STARTCHAR U+30A5
ENCODING 12453
SWIDTH 1000 0
DWIDTH 6 0
BBX 5 5 0 0
BITMAP
20
F8
88
10
60
ENDCHAR
STARTCHAR U+30A6
ENCODING 12454
SWIDTH 1000 0
DWIDTH 6 0
BBX 5 7 0 0
BITMAP
20
F8
88
88
08
10
60
ENDCHAR
STARTCHAR U+30A7
ENCODING 12455
SWIDTH 1000 0
DWIDTH 6 0
BBX 5 4 0 0
BITMAP
F8
20
20
F8
ENDCHAR
STARTCHAR U+30A8
ENCODING 12456
SWIDTH 1000 0
DWIDTH 6 0
BBX 5 6 0 0
BITMAP
F8
20
20
20
20
F8
ENDCHAR
STARTCHAR U+30A9
ENCODING 12457
SWIDTH 1000 0
DWIDTH 6 0
BBX 5 5 0 0
BITMAP
10
F8
50
90
30
ENDCHAR
STARTCHAR U+30AA
ENCODING 12458
SWIDTH 1000 0
DWIDTH 6 0
BBX 5 7 0 0
BITMAP
10
F8
10
30
50
90
30
ENDCHAR
STARTCHAR U+30AB
ENCODING 12459
SWIDTH 1000 0
DWIDTH 6 0
BBX 5 7 0 0
BITMAP
20
F8
28
28
48
48
98
ENDCHAR
STARTCHAR U+30AC
ENCODING 12460
SWIDTH 1000 0
DWIDTH 6 0
BBX 5 7 0 0
BITMAP
28
F0
28
28
48
48
98
ENDCHAR
STARTCHAR U+30AD
ENCODING 12461
SWIDTH 1000 0
DWIDTH 6 0
BBX 5 7 0 0
BITMAP
20
F8
20
20
F8
20
20
ENDCHAR
STARTCHAR U+30AE
ENCODING 12462
SWIDTH 1000 0
DWIDTH 6 0
BBX 5 7 0 0
BITMAP
28
F8
20
20
F8
20
20
ENDCHAR
STARTCHAR U+30AF
ENCODING 12463
SWIDTH 1000 0
DWIDTH 6 0
BBX 5 7 0 0
BITMAP
40
78
48
88
08
10
60
ENDCHAR
STARTCHAR U+30B0
ENCODING 12464
SWIDTH 1000 0
DWIDTH 6 0
BBX 5 7 0 0
BITMAP
28
78
48
88
08
10
60
ENDCHAR
STARTCHAR U+30B1
ENCODING 12465
SWIDTH 1000 0
DWIDTH 6 0
BBX 5 7 0 0
BITMAP
80
F8
A0
A0
20
20
40
ENDCHAR
STARTCHAR U+30B2
ENCODING 12466
SWIDTH 1000 0
DWIDTH 6 0
BBX 5 7 0 0
BITMAP
80
F8
A0
A8
20
20
40
ENDCHAR
STARTCHAR U+30B3
ENCODING 12467
SWIDTH 1000 0
DWIDTH 6 0
BBX 5 6 0 0
BITMAP
F8
08
08
08
08
F8
ENDCHAR
STARTCHAR U+30B4
ENCODING 12468
SWIDTH 1000 0
DWIDTH 6 0
BBX 5 7 0 0
BITMAP
28
F8
08
08
08
08
F8
ENDCHAR
STARTCHAR U+30B5
ENCODING 12469
SWIDTH 1000 0
DWIDTH 6 0
BBX 5 7 0 0
BITMAP
50
F8
50
50
10
20
40
ENDCHAR
STARTCHAR U+30B6
ENCODING 12470
SWIDTH 1000 0
DWIDTH 6 0
BBX 5 7 0 0
BITMAP
58
F0
58
50
10
20
40
ENDCHAR
STARTCHAR U+30B7
ENCODING 12471
SWIDTH 1000 0
DWIDTH 6 0
BBX 5 7 0 0
BITMAP
80
40
88
48
10
20
C0
ENDCHAR
STARTCHAR U+30B8
ENCODING 12472
SWIDTH 1000 0
DWIDTH 6 0
BBX 5 7 0 0
BITMAP
A8
40
88
48
10
20
C0
ENDCHAR
STARTCHAR U+30B9
ENCODING 12473
SWIDTH 1000 0
DWIDTH 6 0
BBX 5 6 0 0
BITMAP
F8
08
10
20
50
88
ENDCHAR
STARTCHAR U+30BA
ENCODING 12474
SWIDTH 1000 0
DWIDTH 6 0
BBX 5 7 0 0
BITMAP
28
F8
08
10
20
50
88
ENDCHAR
STARTCHAR U+30BB
ENCODING 12475
SWIDTH 1000 0
DWIDTH 6 0
BBX 5 7 0 0
BITMAP
40
F8
48
50
40
40
38
ENDCHAR
STARTCHAR U+30BC
ENCODING 12476
SWIDTH 1000 0
DWIDTH 6 0
BBX 5 7 0 0
BITMAP
48
F0
48
50
40
40
38
ENDCHAR
STARTCHAR U+30BD
ENCODING 12477
SWIDTH 1000 0
DWIDTH 6 0
BBX 5 6 0 0
BITMAP
88
48
48
08
10
60
ENDCHAR
STARTCHAR U+30BE
ENCODING 12478
SWIDTH 1000 0
DWIDTH 6 0
BBX 5 7 0 0
BITMAP
28
80
48
48
08
10
60
ENDCHAR
STARTCHAR U+30BF
ENCODING 12479
SWIDTH 1000 0
DWIDTH 6 0
BBX 5 7 0 0
BITMAP
40
78
48
A8
18
10
60
ENDCHAR
STARTCHAR U+30C0
ENCODING 12480
SWIDTH 1000 0
DWIDTH 6 0
BBX 5 7 0 0
BITMAP
28
78
48
A8
18
10
60
ENDCHAR
STARTCHAR U+30C1
ENCODING 12481
SWIDTH 1000 0
DWIDTH 6 0
BBX 5 7 0 0
BITMAP
10
60
20
F8
20
20
40
ENDCHAR
STARTCHAR U+30C2
ENCODING 12482
SWIDTH 1000 0
DWIDTH 6 0
BBX 5 7 0 0
BITMAP
10
68
20
F8
20
20
40
ENDCHAR
STARTCHAR U+30C3
ENCODING 12483
SWIDTH 1000 0
DWIDTH 6 0
BBX 5 4 0 0
BITMAP
A8
A8
10
60
ENDCHAR
STARTCHAR U+30C4
ENCODING 12484
SWIDTH 1000 0
DWIDTH 6 0
BBX 5 6 0 0
BITMAP
A8
A8
A8
08
10
60
ENDCHAR
STARTCHAR U+30C5
ENCODING 12485
SWIDTH 1000 0
DWIDTH 6 0
BBX 5 7 0 0
BITMAP
08
A0
A8
A8
08
10
60
ENDCHAR
STARTCHAR U+30C6
ENCODING 12486
SWIDTH 1000 0
DWIDTH 6 0
BBX 5 7 0 0
BITMAP
70
00
F8
20
20
20
40
ENDCHAR
STARTCHAR U+30C7
ENCODING 12487
SWIDTH 1000 0
DWIDTH 6 0
BBX 5 7 0 0
BITMAP
68
00
F8
20
20
20
40
ENDCHAR
STARTCHAR U+30C8
ENCODING 12488
SWIDTH 1000 0
DWIDTH 6 0
BBX 3 7 1 0
BITMAP
80
80
80
C0
A0
80
80
ENDCHAR
STARTCHAR U+30C9
ENCODING 12489
SWIDTH 1000 0
DWIDTH 6 0
BBX 4 7 1 0
BITMAP
50
80
80
C0
A0
80
80
ENDCHAR
STARTCHAR U+30CA
ENCODING 12490
SWIDTH 1000 0
DWIDTH 6 0
BBX 5 7 0 0
BITMAP
20
20
F8
20
20
20
40
ENDCHAR
STARTCHAR U+30CB
ENCODING 12491
SWIDTH 1000 0
DWIDTH 6 0
BBX 5 6 0 0
BITMAP
70
00
00
00
00
F8
ENDCHAR
STARTCHAR U+30CC
ENCODING 12492
SWIDTH 1000 0
DWIDTH 6 0
BBX 5 6 0 0
BITMAP
F8
08
68
10
28
C0
ENDCHAR
STARTCHAR U+30CD
ENCODING 12493
SWIDTH 1000 0
DWIDTH 6 0
BBX 5 7 0 0
BITMAP
20
F8
10
20
70
A8
20
ENDCHAR
STARTCHAR U+30CE
ENCODING 12494
SWIDTH 1000 0
DWIDTH 6 0
BBX 4 7 0 0
BITMAP
10
10
10
20
20
40
80
ENDCHAR
STARTCHAR U+30CF
ENCODING 12495
SWIDTH 1000 0
DWIDTH 6 0
BBX 5 7 0 0
BITMAP
50
50
50
48
88
88
88
ENDCHAR
STARTCHAR U+30D0
ENCODING 12496
SWIDTH 1000 0
DWIDTH 6 0
BBX 5 7 0 0
BITMAP
28
40
50
50
48
88
88
ENDCHAR
STARTCHAR U+30D1
ENCODING 12497
SWIDTH 1000 0
DWIDTH 6 0
BBX 5 7 0 0
BITMAP
38
28
18
50
48
88
88
ENDCHAR
STARTCHAR U+30D2
ENCODING 12498
SWIDTH 1000 0
DWIDTH 6 0
BBX 5 7 0 0
BITMAP
80
80
98
E0
80
80
78
ENDCHAR
STARTCHAR U+30D3
ENCODING 12499
SWIDTH 1000 0
DWIDTH 6 0
BBX 5 7 0 0
BITMAP
A8
80
98
E0
80
80
78
ENDCHAR
STARTCHAR U+30D4
ENCODING 12500
SWIDTH 1000 0
DWIDTH 6 0
BBX 5 7 0 0
BITMAP
B8
A8
98
E0
80
80
78
ENDCHAR
STARTCHAR U+30D5
ENCODING 12501
SWIDTH 1000 0
DWIDTH 6 0
BBX 5 6 0 0
BITMAP
F8
08
08
08
10
60
ENDCHAR
STARTCHAR U+30D6
ENCODING 12502
SWIDTH 1000 0
DWIDTH 6 0
BBX 5 7 0 0
BITMAP
28
F8
08
08
08
10
60
ENDCHAR
STARTCHAR U+30D7
ENCODING 12503
SWIDTH 1000 0
DWIDTH 6 0
BBX 5 7 0 0
BITMAP
38
E8
18
08
08
10
60
ENDCHAR
STARTCHAR U+30D8
ENCODING 12504
SWIDTH 1000 0
DWIDTH 6 0
BBX 5 5 0 1
BITMAP
40
A0
90
08
08
ENDCHAR
STARTCHAR U+30D9
ENCODING 12505
SWIDTH 1000 0
DWIDTH 6 0
BBX 5 6 0 1
BITMAP
28
40
A0
90
08
08
ENDCHAR
STARTCHAR U+30DA
ENCODING 12506
SWIDTH 1000 0
DWIDTH 6 0
BBX 5 6 0 1
BITMAP
38
68
B8
90
08
08
ENDCHAR
STARTCHAR U+30DB
ENCODING 12507
SWIDTH 1000 0
DWIDTH 6 0
BBX 5 7 0 0
BITMAP
20
20
F8
20
A8
A8
60
ENDCHAR
STARTCHAR U+30DC
ENCODING 12508
SWIDTH 1000 0
DWIDTH 6 0
BBX 5 7 0 0
BITMAP
28
20
F8
20
A8
A8
60
ENDCHAR
STARTCHAR U+30DD
ENCODING 12509
SWIDTH 1000 0
DWIDTH 6 0
BBX 5 7 0 0
BITMAP
38
28
F8
20
A8
A8
60
ENDCHAR
STARTCHAR U+30DE
ENCODING 12510
SWIDTH 1000 0
DWIDTH 6 0
BBX 5 6 0 0
BITMAP
F8
08
08
50
20
10
ENDCHAR
STARTCHAR U+30DF
ENCODING 12511
SWIDTH 1000 0
DWIDTH 6 0
BBX 5 7 0 0
BITMAP
E0
18
40
30
00
E0
18
ENDCHAR
STARTCHAR U+30E0
ENCODING 12512
SWIDTH 1000 0
DWIDTH 6 0
BBX 5 7 0 0
BITMAP
20
20
40
40
50
88
F8
ENDCHAR
STARTCHAR U+30E1
ENCODING 12513
SWIDTH 1000 0
DWIDTH 6 0
BBX 5 7 0 0
BITMAP
08
08
68
10
28
48
80
ENDCHAR
STARTCHAR U+30E2
ENCODING 12514
SWIDTH 1000 0
DWIDTH 6 0
BBX 5 6 0 0
BITMAP
F8
40
F8
40
40
38
ENDCHAR
STARTCHAR U+30E3
ENCODING 12515
SWIDTH 1000 0
DWIDTH 6 0
BBX 5 5 0 0
BITMAP
40
F8
48
20
20
ENDCHAR
STARTCHAR U+30E4
ENCODING 12516
SWIDTH 1000 0
DWIDTH 6 0
BBX 5 7 0 0
BITMAP
40
F8
48
48
20
20
20
ENDCHAR
STARTCHAR U+30E5
ENCODING 12517
SWIDTH 1000 0
DWIDTH 6 0
BBX 5 4 0 0
BITMAP
70
10
10
F8
ENDCHAR
STARTCHAR U+30E6
ENCODING 12518
SWIDTH 1000 0
DWIDTH 6 0
BBX 5 6 0 0
BITMAP
70
10
10
10
10
F8
ENDCHAR
STARTCHAR U+30E7
ENCODING 12519
SWIDTH 1000 0
DWIDTH 6 0
BBX 4 5 0 0
BITMAP
F0
10
70
10
F0
ENDCHAR
STARTCHAR U+30E8
ENCODING 12520
SWIDTH 1000 0
DWIDTH 6 0
BBX 5 6 0 0
BITMAP
F8
08
78
08
08
F8
ENDCHAR
STARTCHAR U+30E9
ENCODING 12521
SWIDTH 1000 0
DWIDTH 6 0
BBX 5 7 0 0
BITMAP
70
00
F8
08
08
10
60
ENDCHAR
STARTCHAR U+30EA
ENCODING 12522
SWIDTH 1000 0
DWIDTH 6 0
BBX 4 7 1 0
BITMAP
90
90
90
90
10
20
40
ENDCHAR
STARTCHAR U+30EB
ENCODING 12523
SWIDTH 1000 0
DWIDTH 6 0
BBX 5 7 0 0
BITMAP
20
A0
A0
A0
A8
A8
B0
ENDCHAR
STARTCHAR U+30EC
ENCODING 12524
SWIDTH 1000 0
DWIDTH 6 0
BBX 4 7 1 0
BITMAP
80
80
80
80
90
A0
C0
ENDCHAR
STARTCHAR U+30ED
ENCODING 12525
SWIDTH 1000 0
DWIDTH 6 0
BBX 5 6 0 0
BITMAP
F8
88
88
88
88
F8
ENDCHAR
STARTCHAR U+30EE
ENCODING 12526
SWIDTH 1000 0
DWIDTH 6 0
BBX 5 4 0 0
BITMAP
F8
88
10
60
ENDCHAR
STARTCHAR U+30EF
ENCODING 12527
SWIDTH 1000 0
DWIDTH 6 0
BBX 5 6 0 0
BITMAP
F8
88
88
08
10
60
ENDCHAR
STARTCHAR U+30F0
ENCODING 12528
SWIDTH 1000 0
DWIDTH 6 0
BBX 5 7 0 0
BITMAP
10
F8
50
50
50
F8
10
ENDCHAR
STARTCHAR U+30F1
ENCODING 12529
SWIDTH 1000 0
DWIDTH 6 0
BBX 5 6 0 0
BITMAP
F8
08
30
20
20
F8
ENDCHAR
STARTCHAR U+30F2
ENCODING 12530
SWIDTH 1000 0
DWIDTH 6 0
BBX 5 6 0 0
BITMAP
F8
08
78
08
10
60
ENDCHAR
STARTCHAR U+30F3
ENCODING 12531
SWIDTH 1000 0
DWIDTH 6 0
BBX 5 7 0 0
BITMAP
80
40
08
08
10
20
C0
ENDCHAR
STARTCHAR U+30F4
ENCODING 12532
SWIDTH 1000 0
DWIDTH 6 0
BBX 5 7 0 0
BITMAP
28
20
F8
88
08
10
60
ENDCHAR
STARTCHAR U+30F5
ENCODING 12533
SWIDTH 1000 0
DWIDTH 6 0
BBX 5 5 0 0
BITMAP
40
F8
48
48
98
ENDCHAR
STARTCHAR U+30F6
ENCODING 12534
SWIDTH 1000 0
DWIDTH 6 0
BBX 5 5 0 0
BITMAP
80
F8
A0
20
40
ENDCHAR
STARTCHAR U+30F7
ENCODING 12535
SWIDTH 1000 0
DWIDTH 6 0
BBX 5 7 0 0
BITMAP
28
F8
88
88
08
10
60
ENDCHAR
STARTCHAR U+30F8
ENCODING 12536
SWIDTH 1000 0
DWIDTH 6 0
BBX 5 7 0 0
BITMAP
28
10
F8
50
50
F8
10
ENDCHAR
STARTCHAR U+30F9
ENCODING 12537
SWIDTH 1000 0
DWIDTH 6 0
BBX 5 7 0 0
BITMAP
28
F8
08
30
20
20
F8
ENDCHAR
STARTCHAR U+30FA
ENCODING 12538
SWIDTH 1000 0
DWIDTH 6 0
BBX 5 7 0 0
BITMAP
28
F8
08
78
08
10
60
ENDCHAR
STARTCHAR U+30FB
ENCODING 12539
SWIDTH 1000 0
DWIDTH 6 0
BBX 2 2 1 2
BITMAP
C0
C0
ENDCHAR
STARTCHAR U+30FC
ENCODING 12540
SWIDTH 1000 0
DWIDTH 6 0
BBX 5 2 0 3
BITMAP
80
78
ENDCHAR
STARTCHAR U+30FD
ENCODING 12541
SWIDTH 1000 0
DWIDTH 6 0
BBX 3 4 1 1
BITMAP
80
40
20
20
ENDCHAR
STARTCHAR U+30FE
ENCODING 12542
SWIDTH 1000 0
DWIDTH 6 0
BBX 4 6 1 1
BITMAP
50
00
80
40
20
20
ENDCHAR
STARTCHAR U+3105
ENCODING 12549
SWIDTH 1000 0
DWIDTH 6 0
BBX 5 7 0 0
BITMAP
40
80
F8
08
08
08
18
ENDCHAR
STARTCHAR U+3106
ENCODING 12550
SWIDTH 1000 0
DWIDTH 6 0
BBX 5 7 0 0
BITMAP
40
80
F8
08
50
30
C8
ENDCHAR
STARTCHAR U+3107
ENCODING 12551
SWIDTH 1000 0
DWIDTH 6 0
BBX 5 7 0 0
BITMAP
F8
88
88
88
88
88
88
ENDCHAR
STARTCHAR U+3108
ENCODING 12552
SWIDTH 1000 0
DWIDTH 6 0
BBX 5 7 0 0
BITMAP
F8
80
80
80
80
80
78
ENDCHAR
STARTCHAR U+3109
ENCODING 12553
SWIDTH 1000 0
DWIDTH 6 0
BBX 5 7 0 0
BITMAP
40
80
F8
28
28
48
98
ENDCHAR
STARTCHAR U+310A
ENCODING 12554
SWIDTH 1000 0
DWIDTH 6 0
BBX 5 7 0 0
BITMAP
20
20
F8
40
50
88
F8
ENDCHAR
STARTCHAR U+310B
ENCODING 12555
SWIDTH 1000 0
DWIDTH 6 0
BBX 5 7 0 0
BITMAP
F0
20
40
78
08
08
18
ENDCHAR
STARTCHAR U+310C
ENCODING 12556
SWIDTH 1000 0
DWIDTH 6 0
BBX 5 7 0 0
BITMAP
A0
A0
F8
28
28
48
98
ENDCHAR
STARTCHAR U+310D
ENCODING 12557
SWIDTH 1000 0
DWIDTH 6 0
BBX 5 7 0 0
BITMAP
28
28
50
A0
50
28
28
ENDCHAR
STARTCHAR U+310E
ENCODING 12558
SWIDTH 1000 0
DWIDTH 6 0
BBX 5 7 0 0
BITMAP
F8
20
40
70
10
10
30
ENDCHAR
STARTCHAR U+310F
ENCODING 12559
SWIDTH 1000 0
DWIDTH 6 0
BBX 5 7 0 0
BITMAP
78
40
40
40
40
40
80
ENDCHAR
STARTCHAR U+3110
ENCODING 12560
SWIDTH 1000 0
DWIDTH 6 0
BBX 5 7 0 0
BITMAP
08
88
88
88
B8
C8
08
ENDCHAR
STARTCHAR U+3111
ENCODING 12561
SWIDTH 1000 0
DWIDTH 6 0
BBX 5 7 0 0
BITMAP
08
10
20
C0
20
10
08
ENDCHAR
STARTCHAR U+3112
ENCODING 12562
SWIDTH 1000 0
DWIDTH 6 0
BBX 5 7 0 0
BITMAP
F8
20
20
20
20
20
20
ENDCHAR
STARTCHAR U+3113
ENCODING 12563
SWIDTH 1000 0
DWIDTH 6 0
BBX 5 7 0 0
BITMAP
20
A8
A8
A8
F8
20
F8
ENDCHAR
STARTCHAR U+3114
ENCODING 12564
SWIDTH 1000 0
DWIDTH 6 0
BBX 5 7 0 0
BITMAP
10
20
C8
10
E0
20
20
ENDCHAR
STARTCHAR U+3115
ENCODING 12565
SWIDTH 1000 0
DWIDTH 6 0
BBX 5 7 0 0
BITMAP
78
08
78
40
40
40
80
ENDCHAR
STARTCHAR U+3116
ENCODING 12566
SWIDTH 1000 0
DWIDTH 6 0
BBX 5 7 0 0
BITMAP
F8
88
C8
A8
A8
88
F8
ENDCHAR
STARTCHAR U+3117
ENCODING 12567
SWIDTH 1000 0
DWIDTH 6 0
BBX 5 7 0 0
BITMAP
F8
28
28
28
38
20
20
ENDCHAR
STARTCHAR U+3118
ENCODING 12568
SWIDTH 1000 0
DWIDTH 6 0
BBX 5 7 0 0
BITMAP
20
F8
20
40
70
10
20
ENDCHAR
STARTCHAR U+3119
ENCODING 12569
SWIDTH 1000 0
DWIDTH 6 0
BBX 5 7 0 0
BITMAP
20
20
20
40
50
88
F8
ENDCHAR
STARTCHAR U+311A
ENCODING 12570
SWIDTH 1000 0
DWIDTH 6 0
BBX 5 7 0 0
BITMAP
88
48
10
20
20
20
20
ENDCHAR
STARTCHAR U+311B
ENCODING 12571
SWIDTH 1000 0
DWIDTH 6 0
BBX 5 7 0 0
BITMAP
F8
20
20
60
80
88
70
ENDCHAR
STARTCHAR U+311C
ENCODING 12572
SWIDTH 1000 0
DWIDTH 6 0
BBX 5 7 0 0
BITMAP
20
F8
20
60
80
88
70
ENDCHAR
STARTCHAR U+311D
ENCODING 12573
SWIDTH 1000 0
DWIDTH 6 0
BBX 5 7 0 0
BITMAP
50
50
F8
50
50
40
30
ENDCHAR
STARTCHAR U+311E
ENCODING 12574
SWIDTH 1000 0
DWIDTH 6 0
BBX 5 7 0 0
BITMAP
F8
20
A0
F8
28
48
90
ENDCHAR
STARTCHAR U+311F
ENCODING 12575
SWIDTH 1000 0
DWIDTH 6 0
BBX 5 7 0 0
BITMAP
20
60
A0
20
10
10
08
ENDCHAR
STARTCHAR U+3120
ENCODING 12576
SWIDTH 1000 0
DWIDTH 6 0
BBX 5 7 0 0
BITMAP
20
20
48
F0
20
48
F8
ENDCHAR
STARTCHAR U+3121
ENCODING 12577
SWIDTH 1000 0
DWIDTH 6 0
BBX 5 7 0 0
BITMAP
F8
08
48
30
10
28
C8
ENDCHAR
STARTCHAR U+3122
ENCODING 12578
SWIDTH 1000 0
DWIDTH 6 0
BBX 5 7 0 0
BITMAP
F0
10
50
40
78
08
10
ENDCHAR
STARTCHAR U+3123
ENCODING 12579
SWIDTH 1000 0
DWIDTH 6 0
BBX 5 7 0 0
BITMAP
40
40
80
F8
08
10
20
ENDCHAR
STARTCHAR U+3124
ENCODING 12580
SWIDTH 1000 0
DWIDTH 6 0
BBX 5 7 0 0
BITMAP
20
20
F8
20
50
50
98
ENDCHAR
STARTCHAR U+3125
ENCODING 12581
SWIDTH 1000 0
DWIDTH 6 0
BBX 5 7 0 0
BITMAP
20
20
20
40
40
80
F8
ENDCHAR
STARTCHAR U+3126
ENCODING 12582
SWIDTH 1000 0
DWIDTH 6 0
BBX 5 7 0 0
BITMAP
50
50
50
50
50
50
98
ENDCHAR
STARTCHAR U+3127
ENCODING 12583
SWIDTH 1000 0
DWIDTH 6 0
BBX 5 1 0 3
BITMAP
F8
ENDCHAR
STARTCHAR U+3128
ENCODING 12584
SWIDTH 1000 0
DWIDTH 6 0
BBX 5 7 0 0
BITMAP
08
48
28
10
10
28
C8
ENDCHAR
STARTCHAR U+3129
ENCODING 12585
SWIDTH 1000 0
DWIDTH 6 0
BBX 5 7 0 0
BITMAP
88
88
88
88
88
88
F8
ENDCHAR
STARTCHAR U+312A
ENCODING 12586
SWIDTH 1000 0
DWIDTH 6 0
BBX 5 7 0 0
BITMAP
F8
20
38
28
48
48
98
ENDCHAR
STARTCHAR U+312B
ENCODING 12587
SWIDTH 1000 0
DWIDTH 6 0
BBX 5 7 0 0
BITMAP
F8
50
50
50
50
50
98
ENDCHAR
STARTCHAR U+312C
ENCODING 12588
SWIDTH 1000 0
DWIDTH 6 0
BBX 5 7 0 0
BITMAP
10
78
40
40
40
40
80
ENDCHAR
STARTCHAR U+312D
ENCODING 12589
SWIDTH 1000 0
DWIDTH 6 0
BBX 5 7 0 0
BITMAP
F8
20
F8
A8
A8
A8
20
ENDCHAR
STARTCHAR U+312E
ENCODING 12590
SWIDTH 1000 0
DWIDTH 6 0
BBX 5 7 0 0
BITMAP
20
00
F8
20
60
88
70
ENDCHAR
STARTCHAR U+312F
ENCODING 12591
SWIDTH 1000 0
DWIDTH 6 0
BBX 5 7 0 0
BITMAP
F0
20
40
F8
28
28
38
ENDCHAR
STARTCHAR U+3220
ENCODING 12832
SWIDTH 1000 0
DWIDTH 6 0
BBX 5 7 0 0
BITMAP
50
88
98
F8
88
88
50
ENDCHAR
STARTCHAR U+3221
ENCODING 12833
SWIDTH 1000 0
DWIDTH 6 0
BBX 5 7 0 0
BITMAP
50
88
B8
88
F8
88
50
ENDCHAR
STARTCHAR U+3222
ENCODING 12834
SWIDTH 1000 0
DWIDTH 6 0
BBX 5 7 0 0
BITMAP
50
F8
88
B8
88
F8
50
ENDCHAR
STARTCHAR U+3223
ENCODING 12835
SWIDTH 1000 0
DWIDTH 6 0
BBX 5 7 0 0
BITMAP
50
F8
D8
88
F8
88
50
ENDCHAR
STARTCHAR U+3224
ENCODING 12836
SWIDTH 1000 0
DWIDTH 6 0
BBX 5 7 0 0
BITMAP
50
F8
A8
F8
B8
F8
50
ENDCHAR
STARTCHAR U+3225
ENCODING 12837
SWIDTH 1000 0
DWIDTH 6 0
BBX 5 7 0 0
BITMAP
50
A8
F8
88
D8
88
50
ENDCHAR
STARTCHAR U+3226
ENCODING 12838
SWIDTH 1000 0
DWIDTH 6 0
BBX 5 7 0 0
BITMAP
50
A8
F8
A8
B8
88
50
ENDCHAR
STARTCHAR U+3227
ENCODING 12839
SWIDTH 1000 0
DWIDTH 6 0
BBX 5 7 0 0
BITMAP
50
88
98
D8
D8
88
50
ENDCHAR
STARTCHAR U+3228
ENCODING 12840
SWIDTH 1000 0
DWIDTH 6 0
BBX 5 7 0 0
BITMAP
50
A8
F8
B8
D8
88
50
ENDCHAR
STARTCHAR U+3229
ENCODING 12841
SWIDTH 1000 0
DWIDTH 6 0
BBX 5 7 0 0
BITMAP
50
88
A8
F8
A8
88
50
ENDCHAR
STARTCHAR U+3231
ENCODING 12849
SWIDTH 1000 0
DWIDTH 6 0
BBX 5 7 0 0
BITMAP
50
A8
F8
B8
F8
B8
50
ENDCHAR
STARTCHAR U+3232
ENCODING 12850
SWIDTH 1000 0
DWIDTH 6 0
BBX 5 7 0 0
BITMAP
50
A8
F8
A8
F8
B8
50
ENDCHAR
STARTCHAR U+3239
ENCODING 12857
SWIDTH 1000 0
DWIDTH 6 0
BBX 5 7 0 0
BITMAP
50
F8
B8
E8
A8
98
50
ENDCHAR
STARTCHAR U+32A4
ENCODING 12964
SWIDTH 1000 0
DWIDTH 6 0
BBX 5 7 0 0
BITMAP
70
A8
B8
A8
F8
88
70
ENDCHAR
STARTCHAR U+32A5
ENCODING 12965
SWIDTH 1000 0
DWIDTH 6 0
BBX 5 7 0 0
BITMAP
70
A8
F8
A8
F8
A8
70
ENDCHAR
STARTCHAR U+32A6
ENCODING 12966
SWIDTH 1000 0
DWIDTH 6 0
BBX 5 7 0 0
BITMAP
70
88
F8
A8
B8
A8
70
ENDCHAR
STARTCHAR U+32A7
ENCODING 12967
SWIDTH 1000 0
DWIDTH 6 0
BBX 5 7 0 0
BITMAP
70
A8
F8
B8
D8
B8
70
ENDCHAR
STARTCHAR U+32A8
ENCODING 12968
SWIDTH 1000 0
DWIDTH 6 0
BBX 5 7 0 0
BITMAP
70
A8
F8
A8
F8
B8
70
ENDCHAR
STARTCHAR U+32FF
ENCODING 13055
SWIDTH 1000 0
DWIDTH 6 0
BBX 5 7 0 0
BITMAP
70
A0
78
E8
38
B0
60
ENDCHAR
STARTCHAR U+3303
ENCODING 13059
SWIDTH 1000 0
DWIDTH 6 0
BBX 5 7 0 0
BITMAP
E0
20
98
80
10
50
58
ENDCHAR
STARTCHAR U+330D
ENCODING 13069
SWIDTH 1000 0
DWIDTH 6 0
BBX 5 7 0 0
BITMAP
40
F8
68
B8
A0
38
40
ENDCHAR
STARTCHAR U+3314
ENCODING 13076
SWIDTH 1000 0
DWIDTH 6 0
BBX 5 7 0 0
BITMAP
40
E0
40
E0
58
18
18
ENDCHAR
STARTCHAR U+3318
ENCODING 13080
SWIDTH 1000 0
DWIDTH 6 0
BBX 5 7 0 0
BITMAP
B8
C0
58
88
20
48
78
ENDCHAR
STARTCHAR U+3322
ENCODING 13090
SWIDTH 1000 0
DWIDTH 6 0
BBX 5 7 0 0
BITMAP
90
E8
A0
88
70
F8
20
ENDCHAR
STARTCHAR U+3323
ENCODING 13091
SWIDTH 1000 0
DWIDTH 6 0
BBX 5 7 0 0
BITMAP
90
E8
A0
88
70
60
50
ENDCHAR
STARTCHAR U+3326
ENCODING 13094
SWIDTH 1000 0
DWIDTH 6 0
BBX 5 7 0 0
BITMAP
A8
C0
A0
80
50
50
58
ENDCHAR
STARTCHAR U+3327
ENCODING 13095
SWIDTH 1000 0
DWIDTH 6 0
BBX 5 7 0 0
BITMAP
80
C0
A0
80
20
08
30
ENDCHAR
STARTCHAR U+332B
ENCODING 13099
SWIDTH 1000 0
DWIDTH 6 0
BBX 5 7 0 0
BITMAP
30
B8
E0
B0
98
B0
50
ENDCHAR
STARTCHAR U+3336
ENCODING 13110
SWIDTH 1000 0
DWIDTH 6 0
BBX 5 7 0 0
BITMAP
58
A8
B0
D0
F0
58
A0
ENDCHAR
STARTCHAR U+333B
ENCODING 13115
SWIDTH 1000 0
DWIDTH 6 0
BBX 5 7 0 0
BITMAP
70
B8
20
48
80
28
C0
ENDCHAR
STARTCHAR U+3349
ENCODING 13129
SWIDTH 1000 0
DWIDTH 6 0
BBX 5 7 0 0
BITMAP
20
50
20
C0
28
28
08
ENDCHAR
STARTCHAR U+334A
ENCODING 13130
SWIDTH 1000 0
DWIDTH 6 0
BBX 5 7 0 0
BITMAP
68
A8
48
20
58
F8
A8
ENDCHAR
STARTCHAR U+334D
ENCODING 13133
SWIDTH 1000 0
DWIDTH 6 0
BBX 5 7 0 0
BITMAP
A0
58
A0
00
98
D8
A8
ENDCHAR
STARTCHAR U+3351
ENCODING 13137
SWIDTH 1000 0
DWIDTH 6 0
BBX 5 7 0 0
BITMAP
A0
B8
28
00
98
D8
A8
ENDCHAR
STARTCHAR U+3357
ENCODING 13143
SWIDTH 1000 0
DWIDTH 6 0
BBX 5 7 0 0
BITMAP
E0
B8
28
50
20
30
20
ENDCHAR
STARTCHAR U+337B
ENCODING 13179
SWIDTH 1000 0
DWIDTH 6 0
BBX 5 7 0 0
BITMAP
F8
50
B8
50
F8
70
68
ENDCHAR
STARTCHAR U+337C
ENCODING 13180
SWIDTH 1000 0
DWIDTH 6 0
BBX 5 7 0 0
BITMAP
F0
60
B8
E8
F8
F0
60
ENDCHAR
STARTCHAR U+337D
ENCODING 13181
SWIDTH 1000 0
DWIDTH 6 0
BBX 5 7 0 0
BITMAP
78
50
F0
58
70
B0
B8
ENDCHAR
STARTCHAR U+337E
ENCODING 13182
SWIDTH 1000 0
DWIDTH 6 0
BBX 5 7 0 0
BITMAP
68
50
F0
D8
E0
78
B8
ENDCHAR
STARTCHAR U+337F
ENCODING 13183
SWIDTH 1000 0
DWIDTH 6 0
BBX 5 7 0 0
BITMAP
50
F8
70
E8
B8
50
78
ENDCHAR
STARTCHAR U+338E
ENCODING 13198
SWIDTH 1000 0
DWIDTH 6 0
BBX 5 5 0 0
BITMAP
D8
E8
F8
A8
18
ENDCHAR
STARTCHAR U+338F
ENCODING 13199
SWIDTH 1000 0
DWIDTH 6 0
BBX 5 7 0 0
BITMAP
80
80
B8
E8
D8
A8
18
ENDCHAR
STARTCHAR U+339C
ENCODING 13212
SWIDTH 1000 0
DWIDTH 6 0
BBX 5 4 0 1
BITMAP
D0
F8
F8
A8
ENDCHAR
STARTCHAR U+339D
ENCODING 13213
SWIDTH 1000 0
DWIDTH 6 0
BBX 5 4 0 1
BITMAP
70
B8
B8
68
ENDCHAR
STARTCHAR U+339E
ENCODING 13214
SWIDTH 1000 0
DWIDTH 6 0
BBX 5 6 0 1
BITMAP
80
80
B0
D8
D8
A8
ENDCHAR
STARTCHAR U+33A1
ENCODING 13217
SWIDTH 1000 0
DWIDTH 6 0
BBX 5 6 0 1
BITMAP
18
08
D0
F8
E0
A0
ENDCHAR
STARTCHAR U+33C4
ENCODING 13252
SWIDTH 1000 0
DWIDTH 6 0
BBX 5 4 0 1
BITMAP
48
90
90
48
ENDCHAR
STARTCHAR U+33CD
ENCODING 13261
SWIDTH 1000 0
DWIDTH 6 0
BBX 5 7 0 0
BITMAP
A8
C8
A8
B0
A8
C8
A8
ENDCHAR
STARTCHAR U+3403
ENCODING 13315
SWIDTH 1000 0
DWIDTH 6 0
BBX 5 7 0 0
BITMAP
20
50
88
F8
20
20
20
ENDCHAR
STARTCHAR U+3427
ENCODING 13351
SWIDTH 1000 0
DWIDTH 6 0
BBX 5 7 0 0
BITMAP
A0
60
20
F8
68
A0
60
ENDCHAR
STARTCHAR U+34C1
ENCODING 13505
SWIDTH 1000 0
DWIDTH 6 0
BBX 5 4 0 3
BITMAP
F8
88
50
88
ENDCHAR
STARTCHAR U+353E
ENCODING 13630
SWIDTH 1000 0
DWIDTH 6 0
BBX 5 7 0 0
BITMAP
F0
90
90
B0
80
88
78
ENDCHAR
STARTCHAR U+353F
ENCODING 13631
SWIDTH 1000 0
DWIDTH 6 0
BBX 5 7 0 0
BITMAP
F8
50
50
50
70
50
10
ENDCHAR
STARTCHAR U+3691
ENCODING 13969
SWIDTH 1000 0
DWIDTH 6 0
BBX 5 7 0 0
BITMAP
70
10
70
20
F8
20
D8
ENDCHAR
STARTCHAR U+3692
ENCODING 13970
SWIDTH 1000 0
DWIDTH 6 0
BBX 5 7 0 0
BITMAP
20
F8
A0
50
A8
20
D8
ENDCHAR
STARTCHAR U+36B7
ENCODING 14007
SWIDTH 1000 0
DWIDTH 6 0
BBX 5 7 0 0
BITMAP
90
A8
C0
D0
F8
70
90
ENDCHAR
STARTCHAR U+3749
ENCODING 14153
SWIDTH 1000 0
DWIDTH 6 0
BBX 5 7 0 0
BITMAP
20
F8
88
00
00
00
F8
ENDCHAR
STARTCHAR U+37A2
ENCODING 14242
SWIDTH 1000 0
DWIDTH 6 0
BBX 5 7 0 0
BITMAP
20
A8
A8
A8
F8
20
F8
ENDCHAR
STARTCHAR U+38FA
ENCODING 14586
SWIDTH 1000 0
DWIDTH 6 0
BBX 5 7 0 0
BITMAP
40
C0
E8
40
40
40
40
ENDCHAR
STARTCHAR U+4337
ENCODING 17207
SWIDTH 1000 0
DWIDTH 6 0
BBX 5 7 0 0
BITMAP
50
90
78
B8
F8
38
F8
ENDCHAR
STARTCHAR U+4491
ENCODING 17553
SWIDTH 1000 0
DWIDTH 6 0
BBX 5 4 0 2
BITMAP
88
48
50
F8
ENDCHAR
STARTCHAR U+470C
ENCODING 18188
SWIDTH 1000 0
DWIDTH 6 0
BBX 5 7 0 0
BITMAP
68
B0
48
F0
48
F8
68
ENDCHAR
STARTCHAR U+4CA1
ENCODING 19617
SWIDTH 1000 0
DWIDTH 6 0
BBX 5 7 0 0
BITMAP
E8
78
D0
F8
F8
28
F8
ENDCHAR
STARTCHAR U+4E00
ENCODING 19968
SWIDTH 1000 0
DWIDTH 6 0
BBX 5 2 0 3
BITMAP
10
F8
ENDCHAR
STARTCHAR U+4E01
ENCODING 19969
SWIDTH 1000 0
DWIDTH 6 0
BBX 5 7 0 0
BITMAP
F8
20
20
20
20
20
60
ENDCHAR
STARTCHAR U+4E02
ENCODING 19970
SWIDTH 1000 0
DWIDTH 6 0
BBX 5 7 0 0
BITMAP
F8
20
40
70
10
10
30
ENDCHAR
STARTCHAR U+4E03
ENCODING 19971
SWIDTH 1000 0
DWIDTH 6 0
BBX 5 7 0 0
BITMAP
40
40
58
E0
40
48
38
ENDCHAR
STARTCHAR U+4E04
ENCODING 19972
SWIDTH 1000 0
DWIDTH 6 0
BBX 5 7 0 0
BITMAP
20
20
20
20
20
20
F8
ENDCHAR
STARTCHAR U+4E05
ENCODING 19973
SWIDTH 1000 0
DWIDTH 6 0
BBX 5 7 0 0
BITMAP
F8
20
20
20
20
20
20
ENDCHAR
STARTCHAR U+4E06
ENCODING 19974
SWIDTH 1000 0
DWIDTH 6 0
BBX 5 5 0 2
BITMAP
F8
20
20
40
80
ENDCHAR
STARTCHAR U+4E07
ENCODING 19975
SWIDTH 1000 0
DWIDTH 6 0
BBX 5 7 0 0
BITMAP
F8
40
78
48
48
48
98
ENDCHAR
STARTCHAR U+4E08
ENCODING 19976
SWIDTH 1000 0
DWIDTH 6 0
BBX 5 7 0 0
BITMAP
20
F8
20
60
20
50
88
ENDCHAR
STARTCHAR U+4E09
ENCODING 19977
SWIDTH 1000 0
DWIDTH 6 0
BBX 5 6 0 0
BITMAP
F8
00
70
00
00
F8
ENDCHAR
STARTCHAR U+4E0A
ENCODING 19978
SWIDTH 1000 0
DWIDTH 6 0
BBX 5 7 0 0
BITMAP
20
20
30
20
20
20
F8
ENDCHAR
STARTCHAR U+4E0B
ENCODING 19979
SWIDTH 1000 0
DWIDTH 6 0
BBX 5 7 0 0
BITMAP
F8
20
30
28
20
20
20
ENDCHAR
STARTCHAR U+4E0C
ENCODING 19980
SWIDTH 1000 0
DWIDTH 6 0
BBX 5 7 0 0
BITMAP
F8
50
50
50
50
50
90
ENDCHAR
STARTCHAR U+4E0D
ENCODING 19981
SWIDTH 1000 0
DWIDTH 6 0
BBX 5 7 0 0
BITMAP
F8
20
20
70
A8
20
20
ENDCHAR
STARTCHAR U+4E0E
ENCODING 19982
SWIDTH 1000 0
DWIDTH 6 0
BBX 5 7 0 0
BITMAP
20
38
40
78
08
E8
18
ENDCHAR
STARTCHAR U+4E0F
ENCODING 19983
SWIDTH 1000 0
DWIDTH 6 0
BBX 5 7 0 0
BITMAP
F8
20
B8
A8
F8
08
18
ENDCHAR
STARTCHAR U+4E10
ENCODING 19984
SWIDTH 1000 0
DWIDTH 6 0
BBX 5 7 0 0
BITMAP
F8
20
B8
A0
F8
08
18
ENDCHAR
STARTCHAR U+4E11
ENCODING 19985
SWIDTH 1000 0
DWIDTH 6 0
BBX 5 7 0 0
BITMAP
F0
50
50
F0
50
50
F8
ENDCHAR
STARTCHAR U+4E12
ENCODING 19986
SWIDTH 1000 0
DWIDTH 6 0
BBX 5 7 0 0
BITMAP
F8
28
68
38
C8
00
F8
ENDCHAR
STARTCHAR U+4E13
ENCODING 19987
SWIDTH 1000 0
DWIDTH 6 0
BBX 5 7 0 0
BITMAP
20
F8
40
F8
10
60
10
ENDCHAR
STARTCHAR U+4E14
ENCODING 19988
SWIDTH 1000 0
DWIDTH 6 0
BBX 5 7 0 0
BITMAP
70
50
70
50
70
50
F8
ENDCHAR
STARTCHAR U+4E15
ENCODING 19989
SWIDTH 1000 0
DWIDTH 6 0
BBX 5 7 0 0
BITMAP
F8
20
70
A8
20
20
F8
ENDCHAR
STARTCHAR U+4E16
ENCODING 19990
SWIDTH 1000 0
DWIDTH 6 0
BBX 5 7 0 0
BITMAP
A8
A8
F8
A8
B8
80
F8
ENDCHAR
STARTCHAR U+4E17
ENCODING 19991
SWIDTH 1000 0
DWIDTH 6 0
BBX 5 7 0 0
BITMAP
68
68
F8
68
68
68
78
ENDCHAR
STARTCHAR U+4E18
ENCODING 19992
SWIDTH 1000 0
DWIDTH 6 0
BBX 5 7 0 0
BITMAP
10
60
40
78
50
50
F8
ENDCHAR
STARTCHAR U+4E19
ENCODING 19993
SWIDTH 1000 0
DWIDTH 6 0
BBX 5 7 0 0
BITMAP
F8
20
F8
A8
D8
88
98
ENDCHAR
STARTCHAR U+4E1A
ENCODING 19994
SWIDTH 1000 0
DWIDTH 6 0
BBX 5 7 0 0
BITMAP
50
50
D8
50
50
50
F8
ENDCHAR
STARTCHAR U+4E1B
ENCODING 19995
SWIDTH 1000 0
DWIDTH 6 0
BBX 5 7 0 0
BITMAP
50
50
50
A8
A8
00
F8
ENDCHAR
STARTCHAR U+4E1C
ENCODING 19996
SWIDTH 1000 0
DWIDTH 6 0
BBX 5 7 0 0
BITMAP
20
F8
40
A0
F8
20
A8
ENDCHAR
STARTCHAR U+4E1D
ENCODING 19997
SWIDTH 1000 0
DWIDTH 6 0
BBX 5 7 0 0
BITMAP
48
90
48
90
D8
00
F8
ENDCHAR
STARTCHAR U+4E1E
ENCODING 19998
SWIDTH 1000 0
DWIDTH 6 0
BBX 5 7 0 0
BITMAP
70
10
E8
70
A8
20
F8
ENDCHAR
STARTCHAR U+4E1F
ENCODING 19999
SWIDTH 1000 0
DWIDTH 6 0
BBX 5 7 0 0
BITMAP
F8
20
70
20
F8
50
E8
ENDCHAR
STARTCHAR U+4E20
ENCODING 20000
SWIDTH 1000 0
DWIDTH 6 0
BBX 5 7 0 0
BITMAP
50
D8
50
D0
58
00
F8
ENDCHAR
STARTCHAR U+4E21
ENCODING 20001
SWIDTH 1000 0
DWIDTH 6 0
BBX 5 7 0 0
BITMAP
F8
20
F8
A8
F8
F8
88
ENDCHAR
STARTCHAR U+4E22
ENCODING 20002
SWIDTH 1000 0
DWIDTH 6 0
BBX 5 7 0 0
BITMAP
10
60
F8
20
F8
50
E8
ENDCHAR
STARTCHAR U+4E23
ENCODING 20003
SWIDTH 1000 0
DWIDTH 6 0
BBX 5 7 0 0
BITMAP
F8
50
D8
D8
D8
50
90
ENDCHAR
STARTCHAR U+4E24
ENCODING 20004
SWIDTH 1000 0
DWIDTH 6 0
BBX 5 7 0 0
BITMAP
F8
50
F8
D8
D8
A8
98
ENDCHAR
STARTCHAR U+4E25
ENCODING 20005
SWIDTH 1000 0
DWIDTH 6 0
BBX 5 7 0 0
BITMAP
F8
50
D8
50
F8
80
80
ENDCHAR
STARTCHAR U+4E26
ENCODING 20006
SWIDTH 1000 0
DWIDTH 6 0
BBX 5 7 0 0
BITMAP
50
F8
50
D8
D8
50
F8
ENDCHAR
STARTCHAR U+4E27
ENCODING 20007
SWIDTH 1000 0
DWIDTH 6 0
BBX 5 7 0 0
BITMAP
20
F8
68
20
F8
50
68
ENDCHAR
STARTCHAR U+4E28
ENCODING 20008
SWIDTH 1000 0
DWIDTH 6 0
BBX 1 7 2 0
BITMAP
80
80
80
80
80
80
80
ENDCHAR
STARTCHAR U+4E29
ENCODING 20009
SWIDTH 1000 0
DWIDTH 6 0
BBX 5 7 0 0
BITMAP
08
48
48
48
58
E8
08
ENDCHAR
STARTCHAR U+4E2A
ENCODING 20010
SWIDTH 1000 0
DWIDTH 6 0
BBX 5 7 0 0
BITMAP
20
50
A8
20
20
20
20
ENDCHAR
STARTCHAR U+4E2B
ENCODING 20011
SWIDTH 1000 0
DWIDTH 6 0
BBX 5 7 0 0
BITMAP
88
50
20
20
20
20
20
ENDCHAR
STARTCHAR U+4E2C
ENCODING 20012
SWIDTH 1000 0
DWIDTH 6 0
BBX 3 7 1 0
BITMAP
20
A0
60
20
60
A0
20
ENDCHAR
STARTCHAR U+4E2D
ENCODING 20013
SWIDTH 1000 0
DWIDTH 6 0
BBX 5 7 0 0
BITMAP
20
F8
A8
A8
F8
20
20
ENDCHAR
STARTCHAR U+4E2E
ENCODING 20014
SWIDTH 1000 0
DWIDTH 6 0
BBX 5 7 0 0
BITMAP
F0
50
F0
50
F0
50
48
ENDCHAR
STARTCHAR U+4E2F
ENCODING 20015
SWIDTH 1000 0
DWIDTH 6 0
BBX 5 7 0 0
BITMAP
28
F0
28
F0
28
F0
20
ENDCHAR
STARTCHAR U+4E30
ENCODING 20016
SWIDTH 1000 0
DWIDTH 6 0
BBX 5 7 0 0
BITMAP
20
F8
20
70
20
F8
20
ENDCHAR
STARTCHAR U+4E31
ENCODING 20017
SWIDTH 1000 0
DWIDTH 6 0
BBX 5 7 0 0
BITMAP
50
D8
D8
D8
D8
50
90
ENDCHAR
STARTCHAR U+4E32
ENCODING 20018
SWIDTH 1000 0
DWIDTH 6 0
BBX 5 7 0 0
BITMAP
20
70
70
20
F8
F8
20
ENDCHAR
STARTCHAR U+4E33
ENCODING 20019
SWIDTH 1000 0
DWIDTH 6 0
BBX 5 7 0 0
BITMAP
50
F8
F8
50
F8
F8
50
ENDCHAR
STARTCHAR U+4E34
ENCODING 20020
SWIDTH 1000 0
DWIDTH 6 0
BBX 5 7 0 0
BITMAP
50
D8
D0
E8
C0
58
58
ENDCHAR
STARTCHAR U+4E35
ENCODING 20021
SWIDTH 1000 0
DWIDTH 6 0
BBX 5 7 0 0
BITMAP
A8
F8
50
F8
20
F8
20
ENDCHAR
STARTCHAR U+4E36
ENCODING 20022
SWIDTH 1000 0
DWIDTH 6 0
BBX 3 4 1 2
BITMAP
80
40
20
20
ENDCHAR
STARTCHAR U+4E37
ENCODING 20023
SWIDTH 1000 0
DWIDTH 6 0
BBX 5 5 0 1
BITMAP
88
48
50
10
20
ENDCHAR
STARTCHAR U+4E38
ENCODING 20024
SWIDTH 1000 0
DWIDTH 6 0
BBX 5 7 0 0
BITMAP
40
F0
50
D0
70
50
98
ENDCHAR
STARTCHAR U+4E39
ENCODING 20025
SWIDTH 1000 0
DWIDTH 6 0
BBX 5 7 0 0
BITMAP
78
48
68
48
F8
48
98
ENDCHAR
STARTCHAR U+4E3A
ENCODING 20026
SWIDTH 1000 0
DWIDTH 6 0
BBX 5 7 0 0
BITMAP
A0
20
F8
28
38
48
98
ENDCHAR
STARTCHAR U+4E3B
ENCODING 20027
SWIDTH 1000 0
DWIDTH 6 0
BBX 5 7 0 0
BITMAP
40
20
F8
20
70
20
F8
ENDCHAR
STARTCHAR U+4E3C
ENCODING 20028
SWIDTH 1000 0
DWIDTH 6 0
BBX 5 7 0 0
BITMAP
48
F8
68
48
F8
48
88
ENDCHAR
STARTCHAR U+4E3D
ENCODING 20029
SWIDTH 1000 0
DWIDTH 6 0
BBX 5 7 0 0
BITMAP
F8
00
F8
A8
E8
B8
A8
ENDCHAR
STARTCHAR U+4E3E
ENCODING 20030
SWIDTH 1000 0
DWIDTH 6 0
BBX 5 7 0 0
BITMAP
A8
F8
50
A8
70
F8
20
ENDCHAR
STARTCHAR U+4E3F
ENCODING 20031
SWIDTH 1000 0
DWIDTH 6 0
BBX 3 7 1 0
BITMAP
20
20
20
20
20
40
80
ENDCHAR
STARTCHAR U+4E40
ENCODING 20032
SWIDTH 1000 0
DWIDTH 6 0
BBX 5 7 0 0
BITMAP
40
40
A0
20
20
10
08
ENDCHAR
STARTCHAR U+4E41
ENCODING 20033
SWIDTH 1000 0
DWIDTH 6 0
BBX 5 7 0 0
BITMAP
C0
40
40
20
20
10
08
ENDCHAR
STARTCHAR U+4E42
ENCODING 20034
SWIDTH 1000 0
DWIDTH 6 0
BBX 5 7 0 0
BITMAP
50
50
50
20
20
50
88
ENDCHAR
STARTCHAR U+4E43
ENCODING 20035
SWIDTH 1000 0
DWIDTH 6 0
BBX 5 7 0 0
BITMAP
F0
50
58
48
48
48
98
ENDCHAR
STARTCHAR U+4E44
ENCODING 20036
SWIDTH 1000 0
DWIDTH 6 0
BBX 5 7 0 0
BITMAP
10
90
50
20
30
A8
C8
ENDCHAR
STARTCHAR U+4E45
ENCODING 20037
SWIDTH 1000 0
DWIDTH 6 0
BBX 5 7 0 0
BITMAP
40
70
50
90
20
50
88
ENDCHAR
STARTCHAR U+4E46
ENCODING 20038
SWIDTH 1000 0
DWIDTH 6 0
BBX 5 7 0 0
BITMAP
50
50
90
E0
20
50
88
ENDCHAR
STARTCHAR U+4E47
ENCODING 20039
SWIDTH 1000 0
DWIDTH 6 0
BBX 5 7 0 0
BITMAP
10
60
20
38
E0
28
38
ENDCHAR
STARTCHAR U+4E48
ENCODING 20040
SWIDTH 1000 0
DWIDTH 6 0
BBX 5 7 0 0
BITMAP
20
20
40
90
20
50
E8
ENDCHAR
STARTCHAR U+4E49
ENCODING 20041
SWIDTH 1000 0
DWIDTH 6 0
BBX 5 7 0 0
BITMAP
40
28
88
50
20
50
88
ENDCHAR
STARTCHAR U+4E4A
ENCODING 20042
SWIDTH 1000 0
DWIDTH 6 0
BBX 5 5 0 2
BITMAP
18
E0
00
88
50
ENDCHAR
STARTCHAR U+4E4B
ENCODING 20043
SWIDTH 1000 0
DWIDTH 6 0
BBX 5 7 0 0
BITMAP
20
F8
08
10
20
C0
B8
ENDCHAR
STARTCHAR U+4E4C
ENCODING 20044
SWIDTH 1000 0
DWIDTH 6 0
BBX 5 7 0 0
BITMAP
20
70
50
40
78
E8
18
ENDCHAR
STARTCHAR U+4E4D
ENCODING 20045
SWIDTH 1000 0
DWIDTH 6 0
BBX 5 7 0 0
BITMAP
40
78
A0
38
20
38
20
ENDCHAR
STARTCHAR U+4E4E
ENCODING 20046
SWIDTH 1000 0
DWIDTH 6 0
BBX 5 7 0 0
BITMAP
18
E0
A8
20
F8
20
60
ENDCHAR
STARTCHAR U+4E4F
ENCODING 20047
SWIDTH 1000 0
DWIDTH 6 0
BBX 5 7 0 0
BITMAP
70
20
F8
10
20
C0
B8
ENDCHAR
STARTCHAR U+4E50
ENCODING 20048
SWIDTH 1000 0
DWIDTH 6 0
BBX 5 7 0 0
BITMAP
18
E0
A0
F8
20
A8
60
ENDCHAR
STARTCHAR U+4E51
ENCODING 20049
SWIDTH 1000 0
DWIDTH 6 0
BBX 5 7 0 0
BITMAP
08
F0
20
68
B0
68
A8
ENDCHAR
STARTCHAR U+4E52
ENCODING 20050
SWIDTH 1000 0
DWIDTH 6 0
BBX 5 7 0 0
BITMAP
10
60
78
50
F8
20
C0
ENDCHAR
STARTCHAR U+4E53
ENCODING 20051
SWIDTH 1000 0
DWIDTH 6 0
BBX 5 7 0 0
BITMAP
10
60
78
50
F8
20
18
ENDCHAR
STARTCHAR U+4E54
ENCODING 20052
SWIDTH 1000 0
DWIDTH 6 0
BBX 5 7 0 0
BITMAP
70
20
F8
50
88
50
90
ENDCHAR
STARTCHAR U+4E55
ENCODING 20053
SWIDTH 1000 0
DWIDTH 6 0
BBX 5 7 0 0
BITMAP
08
F0
F8
90
F8
F8
58
ENDCHAR
STARTCHAR U+4E56
ENCODING 20054
SWIDTH 1000 0
DWIDTH 6 0
BBX 5 7 0 0
BITMAP
10
60
F8
D8
50
F8
20
ENDCHAR
STARTCHAR U+4E57
ENCODING 20055
SWIDTH 1000 0
DWIDTH 6 0
BBX 5 7 0 0
BITMAP
70
20
F8
50
F8
70
A8
ENDCHAR
STARTCHAR U+4E58
ENCODING 20056
SWIDTH 1000 0
DWIDTH 6 0
BBX 5 7 0 0
BITMAP
10
60
F8
50
D8
70
A8
ENDCHAR
STARTCHAR U+4E59
ENCODING 20057
SWIDTH 1000 0
DWIDTH 6 0
BBX 5 7 0 0
BITMAP
70
10
20
40
80
88
78
ENDCHAR
STARTCHAR U+4E5A
ENCODING 20058
SWIDTH 1000 0
DWIDTH 6 0
BBX 5 7 0 0
BITMAP
80
80
80
80
80
88
78
ENDCHAR
STARTCHAR U+4E5B
ENCODING 20059
SWIDTH 1000 0
DWIDTH 6 0
BBX 5 3 0 4
BITMAP
F8
08
10
ENDCHAR
STARTCHAR U+4E5C
ENCODING 20060
SWIDTH 1000 0
DWIDTH 6 0
BBX 5 7 0 0
BITMAP
40
58
68
C8
50
48
38
ENDCHAR
STARTCHAR U+4E5D
ENCODING 20061
SWIDTH 1000 0
DWIDTH 6 0
BBX 5 7 0 0
BITMAP
40
F0
50
50
50
50
98
ENDCHAR
STARTCHAR U+4E5E
ENCODING 20062
SWIDTH 1000 0
DWIDTH 6 0
BBX 5 7 0 0
BITMAP
40
78
80
70
20
48
38
ENDCHAR
STARTCHAR U+4E5F
ENCODING 20063
SWIDTH 1000 0
DWIDTH 6 0
BBX 5 7 0 0
BITMAP
10
50
78
D8
50
48
38
ENDCHAR
STARTCHAR U+4E60
ENCODING 20064
SWIDTH 1000 0
DWIDTH 6 0
BBX 5 7 0 0
BITMAP
F8
48
28
08
38
C8
18
ENDCHAR
STARTCHAR U+4E61
ENCODING 20065
SWIDTH 1000 0
DWIDTH 6 0
BBX 5 7 0 0
BITMAP
20
50
F0
28
F8
10
E0
ENDCHAR
STARTCHAR U+4E62
ENCODING 20066
SWIDTH 1000 0
DWIDTH 6 0
BBX 5 7 0 0
BITMAP
50
50
50
D0
D0
F0
18
ENDCHAR
STARTCHAR U+4E66
ENCODING 20070
SWIDTH 1000 0
DWIDTH 6 0
BBX 5 7 0 0
BITMAP
28
70
30
F8
28
38
20
ENDCHAR
STARTCHAR U+4E69
ENCODING 20073
SWIDTH 1000 0
DWIDTH 6 0
BBX 5 7 0 0
BITMAP
50
50
70
50
F0
B0
F8
ENDCHAR
STARTCHAR U+4E70
ENCODING 20080
SWIDTH 1000 0
DWIDTH 6 0
BBX 5 7 0 0
BITMAP
F8
48
10
50
F8
20
C8
ENDCHAR
STARTCHAR U+4E71
ENCODING 20081
SWIDTH 1000 0
DWIDTH 6 0
BBX 5 7 0 0
BITMAP
F0
50
F0
50
F0
B0
F8
ENDCHAR
STARTCHAR U+4E73
ENCODING 20083
SWIDTH 1000 0
DWIDTH 6 0
BBX 5 7 0 0
BITMAP
30
D0
10
F0
30
F0
58
ENDCHAR
STARTCHAR U+4E7E
ENCODING 20094
SWIDTH 1000 0
DWIDTH 6 0
BBX 5 7 0 0
BITMAP
E0
78
C0
F8
50
E0
58
ENDCHAR
STARTCHAR U+4E80
ENCODING 20096
SWIDTH 1000 0
DWIDTH 6 0
BBX 5 7 0 0
BITMAP
70
90
70
F8
A8
F0
18
ENDCHAR
STARTCHAR U+4E82
ENCODING 20098
SWIDTH 1000 0
DWIDTH 6 0
BBX 5 7 0 0
BITMAP
70
B0
10
30
F0
B0
D8
ENDCHAR
STARTCHAR U+4E85
ENCODING 20101
SWIDTH 1000 0
DWIDTH 6 0
BBX 2 7 1 0
BITMAP
40
40
40
40
40
40
C0
ENDCHAR
STARTCHAR U+4E86
ENCODING 20102
SWIDTH 1000 0
DWIDTH 6 0
BBX 5 7 0 0
BITMAP
F8
10
20
20
20
20
60
ENDCHAR
STARTCHAR U+4E88
ENCODING 20104
SWIDTH 1000 0
DWIDTH 6 0
BBX 5 7 0 0
BITMAP
F0
50
20
F8
28
20
60
ENDCHAR
STARTCHAR U+4E89
ENCODING 20105
SWIDTH 1000 0
DWIDTH 6 0
BBX 5 7 0 0
BITMAP
30
D0
70
F8
30
70
20
ENDCHAR
STARTCHAR U+4E8A
ENCODING 20106
SWIDTH 1000 0
DWIDTH 6 0
BBX 5 7 0 0
BITMAP
20
F8
A8
F0
38
F0
20
ENDCHAR
STARTCHAR U+4E8B
ENCODING 20107
SWIDTH 1000 0
DWIDTH 6 0
BBX 5 7 0 0
BITMAP
20
F8
70
F0
38
F0
20
ENDCHAR
STARTCHAR U+4E8C
ENCODING 20108
SWIDTH 1000 0
DWIDTH 6 0
BBX 5 6 0 0
BITMAP
70
00
00
00
08
F8
ENDCHAR
STARTCHAR U+4E8D
ENCODING 20109
SWIDTH 1000 0
DWIDTH 6 0
BBX 5 7 0 0
BITMAP
70
00
00
F8
20
20
60
ENDCHAR
STARTCHAR U+4E8E
ENCODING 20110
SWIDTH 1000 0
DWIDTH 6 0
BBX 5 7 0 0
BITMAP
70
20
20
F8
20
20
60
ENDCHAR
STARTCHAR U+4E8F
ENCODING 20111
SWIDTH 1000 0
DWIDTH 6 0
BBX 5 7 0 0
BITMAP
70
00
F8
40
78
08
18
ENDCHAR
STARTCHAR U+4E90
ENCODING 20112
SWIDTH 1000 0
DWIDTH 6 0
BBX 5 7 0 0
BITMAP
70
20
F8
40
78
08
18
ENDCHAR
STARTCHAR U+4E91
ENCODING 20113
SWIDTH 1000 0
DWIDTH 6 0
BBX 5 7 0 0
BITMAP
70
00
F8
20
20
50
E8
ENDCHAR
STARTCHAR U+4E92
ENCODING 20114
SWIDTH 1000 0
DWIDTH 6 0
BBX 5 7 0 0
BITMAP
F8
20
30
50
60
20
F8
ENDCHAR
STARTCHAR U+4E93
ENCODING 20115
SWIDTH 1000 0
DWIDTH 6 0
BBX 5 7 0 0
BITMAP
70
00
F8
50
50
50
90
ENDCHAR
STARTCHAR U+4E94
ENCODING 20116
SWIDTH 1000 0
DWIDTH 6 0
BBX 5 7 0 0
BITMAP
70
20
20
F0
50
50
F8
ENDCHAR
STARTCHAR U+4E95
ENCODING 20117
SWIDTH 1000 0
DWIDTH 6 0
BBX 5 7 0 0
BITMAP
50
F8
50
50
F8
50
90
ENDCHAR
STARTCHAR U+4E98
ENCODING 20120
SWIDTH 1000 0
DWIDTH 6 0
BBX 5 7 0 0
BITMAP
F8
70
50
70
50
70
F8
ENDCHAR
STARTCHAR U+4E99
ENCODING 20121
SWIDTH 1000 0
DWIDTH 6 0
BBX 5 7 0 0
BITMAP
F8
40
78
58
A8
10
F8
ENDCHAR
STARTCHAR U+4E9A
ENCODING 20122
SWIDTH 1000 0
DWIDTH 6 0
BBX 5 7 0 0
BITMAP
F8
50
50
D8
50
50
F8
ENDCHAR
STARTCHAR U+4E9B
ENCODING 20123
SWIDTH 1000 0
DWIDTH 6 0
BBX 5 7 0 0
BITMAP
58
D0
F8
00
70
00
F8
ENDCHAR
STARTCHAR U+4E9C
ENCODING 20124
SWIDTH 1000 0
DWIDTH 6 0
BBX 5 7 0 0
BITMAP
F8
50
F8
D8
F8
50
F8
ENDCHAR
STARTCHAR U+4E9E
ENCODING 20126
SWIDTH 1000 0
DWIDTH 6 0
BBX 5 7 0 0
BITMAP
F8
50
D8
88
D8
50
F8
ENDCHAR
STARTCHAR U+4E9F
ENCODING 20127
SWIDTH 1000 0
DWIDTH 6 0
BBX 5 7 0 0
BITMAP
70
10
B8
A8
B0
28
F8
ENDCHAR
STARTCHAR U+4EA0
ENCODING 20128
SWIDTH 1000 0
DWIDTH 6 0
BBX 5 3 0 4
BITMAP
20
20
F8
ENDCHAR
STARTCHAR U+4EA1
ENCODING 20129
SWIDTH 1000 0
DWIDTH 6 0
BBX 5 7 0 0
BITMAP
20
F8
40
40
40
40
78
ENDCHAR
STARTCHAR U+4EA2
ENCODING 20130
SWIDTH 1000 0
DWIDTH 6 0
BBX 5 7 0 0
BITMAP
20
F8
00
70
50
50
98
ENDCHAR
STARTCHAR U+4EA3
ENCODING 20131
SWIDTH 1000 0
DWIDTH 6 0
BBX 5 7 0 0
BITMAP
20
20
F8
50
50
50
90
ENDCHAR
STARTCHAR U+4EA4
ENCODING 20132
SWIDTH 1000 0
DWIDTH 6 0
BBX 5 7 0 0
BITMAP
20
F8
50
88
50
20
D8
ENDCHAR
STARTCHAR U+4EA5
ENCODING 20133
SWIDTH 1000 0
DWIDTH 6 0
BBX 5 7 0 0
BITMAP
20
F8
40
A8
50
30
C8
ENDCHAR
STARTCHAR U+4EA6
ENCODING 20134
SWIDTH 1000 0
DWIDTH 6 0
BBX 5 7 0 0
BITMAP
20
F8
50
D8
D8
50
B0
ENDCHAR
STARTCHAR U+4EA7
ENCODING 20135
SWIDTH 1000 0
DWIDTH 6 0
BBX 5 7 0 0
BITMAP
20
F8
50
F8
80
80
80
ENDCHAR
STARTCHAR U+4EA8
ENCODING 20136
SWIDTH 1000 0
DWIDTH 6 0
BBX 5 7 0 0
BITMAP
20
F8
50
70
10
20
60
ENDCHAR
STARTCHAR U+4EA9
ENCODING 20137
SWIDTH 1000 0
DWIDTH 6 0
BBX 5 7 0 0
BITMAP
20
F8
00
F8
F8
A8
F8
ENDCHAR
STARTCHAR U+4EAB
ENCODING 20139
SWIDTH 1000 0
DWIDTH 6 0
BBX 5 7 0 0
BITMAP
20
F8
50
70
10
F8
20
ENDCHAR
STARTCHAR U+4EAC
ENCODING 20140
SWIDTH 1000 0
DWIDTH 6 0
BBX 5 7 0 0
BITMAP
20
F8
50
70
20
A8
60
ENDCHAR
STARTCHAR U+4EAD
ENCODING 20141
SWIDTH 1000 0
DWIDTH 6 0
BBX 5 7 0 0
BITMAP
20
F8
50
F8
B8
20
60
ENDCHAR
STARTCHAR U+4EAE
ENCODING 20142
SWIDTH 1000 0
DWIDTH 6 0
BBX 5 7 0 0
BITMAP
20
F8
50
F8
88
70
98
ENDCHAR
STARTCHAR U+4EB0
ENCODING 20144
SWIDTH 1000 0
DWIDTH 6 0
BBX 5 7 0 0
BITMAP
20
F8
50
70
70
20
A8
ENDCHAR
STARTCHAR U+4EB2
ENCODING 20146
SWIDTH 1000 0
DWIDTH 6 0
BBX 5 7 0 0
BITMAP
20
F8
50
F8
70
20
A8
ENDCHAR
STARTCHAR U+4EB3
ENCODING 20147
SWIDTH 1000 0
DWIDTH 6 0
BBX 5 7 0 0
BITMAP
20
F8
50
F8
98
60
38
ENDCHAR
STARTCHAR U+4EB5
ENCODING 20149
SWIDTH 1000 0
DWIDTH 6 0
BBX 5 7 0 0
BITMAP
20
F8
50
D8
68
D0
68
ENDCHAR
STARTCHAR U+4EB6
ENCODING 20150
SWIDTH 1000 0
DWIDTH 6 0
BBX 5 7 0 0
BITMAP
20
F8
D8
F8
70
50
F8
ENDCHAR
STARTCHAR U+4EBA
ENCODING 20154
SWIDTH 1000 0
DWIDTH 6 0
BBX 5 7 0 0
BITMAP
20
20
20
20
50
50
88
ENDCHAR
STARTCHAR U+4EBB
ENCODING 20155
SWIDTH 1000 0
DWIDTH 6 0
BBX 2 7 1 0
BITMAP
40
40
C0
C0
40
40
40
ENDCHAR
STARTCHAR U+4EBF
ENCODING 20159
SWIDTH 1000 0
DWIDTH 6 0
BBX 5 7 0 0
BITMAP
58
48
D0
D0
60
68
58
ENDCHAR
STARTCHAR U+4EC0
ENCODING 20160
SWIDTH 1000 0
DWIDTH 6 0
BBX 5 7 0 0
BITMAP
50
50
F8
D0
50
50
50
ENDCHAR
STARTCHAR U+4EC1
ENCODING 20161
SWIDTH 1000 0
DWIDTH 6 0
BBX 5 7 0 0
BITMAP
40
78
C0
C0
40
78
40
ENDCHAR
STARTCHAR U+4EC2
ENCODING 20162
SWIDTH 1000 0
DWIDTH 6 0
BBX 5 7 0 0
BITMAP
50
78
D8
D8
58
68
68
ENDCHAR
STARTCHAR U+4EC3
ENCODING 20163
SWIDTH 1000 0
DWIDTH 6 0
BBX 5 7 0 0
BITMAP
78
50
D0
D0
50
50
70
ENDCHAR
STARTCHAR U+4EC4
ENCODING 20164
SWIDTH 1000 0
DWIDTH 6 0
BBX 5 7 0 0
BITMAP
F8
90
90
90
90
90
A8
ENDCHAR
STARTCHAR U+4EC5
ENCODING 20165
SWIDTH 1000 0
DWIDTH 6 0
BBX 5 7 0 0
BITMAP
78
48
E8
E8
50
50
68
ENDCHAR
STARTCHAR U+4EC6
ENCODING 20166
SWIDTH 1000 0
DWIDTH 6 0
BBX 5 7 0 0
BITMAP
50
50
D0
D8
50
50
50
ENDCHAR
STARTCHAR U+4EC7
ENCODING 20167
SWIDTH 1000 0
DWIDTH 6 0
BBX 5 7 0 0
BITMAP
50
70
D0
D0
50
50
68
ENDCHAR
STARTCHAR U+4EC9
ENCODING 20169
SWIDTH 1000 0
DWIDTH 6 0
BBX 5 7 0 0
BITMAP
40
78
E8
E8
68
68
48
ENDCHAR
STARTCHAR U+4ECA
ENCODING 20170
SWIDTH 1000 0
DWIDTH 6 0
BBX 5 7 0 0
BITMAP
20
50
A8
00
F8
10
60
ENDCHAR
STARTCHAR U+4ECB
ENCODING 20171
SWIDTH 1000 0
DWIDTH 6 0
BBX 5 7 0 0
BITMAP
20
50
88
50
50
50
90
ENDCHAR
STARTCHAR U+4ECD
ENCODING 20173
SWIDTH 1000 0
DWIDTH 6 0
BBX 5 7 0 0
BITMAP
70
50
D8
C8
48
48
58
ENDCHAR
STARTCHAR U+4ECE
ENCODING 20174
SWIDTH 1000 0
DWIDTH 6 0
BBX 5 7 0 0
BITMAP
50
50
50
50
50
A8
A8
ENDCHAR
STARTCHAR U+4ECF
ENCODING 20175
SWIDTH 1000 0
DWIDTH 6 0
BBX 5 7 0 0
BITMAP
50
50
D0
D0
60
68
78
ENDCHAR
STARTCHAR U+4ED0
ENCODING 20176
SWIDTH 1000 0
DWIDTH 6 0
BBX 5 7 0 0
BITMAP
20
50
A8
20
F8
20
20
ENDCHAR
STARTCHAR U+4ED1
ENCODING 20177
SWIDTH 1000 0
DWIDTH 6 0
BBX 5 7 0 0
BITMAP
20
50
88
50
60
48
38
ENDCHAR
STARTCHAR U+4ED3
ENCODING 20179
SWIDTH 1000 0
DWIDTH 6 0
BBX 5 7 0 0
BITMAP
20
50
88
70
50
48
38
ENDCHAR
STARTCHAR U+4ED4
ENCODING 20180
SWIDTH 1000 0
DWIDTH 6 0
BBX 5 7 0 0
BITMAP
58
48
D0
F8
50
50
70
ENDCHAR
STARTCHAR U+4ED5
ENCODING 20181
SWIDTH 1000 0
DWIDTH 6 0
BBX 5 7 0 0
BITMAP
50
50
F8
D0
50
50
78
ENDCHAR
STARTCHAR U+4ED6
ENCODING 20182
SWIDTH 1000 0
DWIDTH 6 0
BBX 5 7 0 0
BITMAP
60
68
F8
E8
68
60
78
ENDCHAR
STARTCHAR U+4ED7
ENCODING 20183
SWIDTH 1000 0
DWIDTH 6 0
BBX 5 7 0 0
BITMAP
50
78
D0
F0
50
50
68
ENDCHAR
STARTCHAR U+4ED8
ENCODING 20184
SWIDTH 1000 0
DWIDTH 6 0
BBX 5 7 0 0
BITMAP
48
78
C8
E8
58
48
58
ENDCHAR
STARTCHAR U+4ED9
ENCODING 20185
SWIDTH 1000 0
DWIDTH 6 0
BBX 5 7 0 0
BITMAP
50
50
D8
D8
58
58
78
ENDCHAR
STARTCHAR U+4EDD
ENCODING 20189
SWIDTH 1000 0
DWIDTH 6 0
BBX 5 7 0 0
BITMAP
20
50
88
70
20
20
F8
ENDCHAR
STARTCHAR U+4EDE
ENCODING 20190
SWIDTH 1000 0
DWIDTH 6 0
BBX 5 7 0 0
BITMAP
78
58
D8
F8
58
68
68
ENDCHAR
STARTCHAR U+4EDF
ENCODING 20191
SWIDTH 1000 0
DWIDTH 6 0
BBX 5 7 0 0
BITMAP
48
70
D0
F8
50
50
50
ENDCHAR
STARTCHAR U+4EE1
ENCODING 20193
SWIDTH 1000 0
DWIDTH 6 0
BBX 5 7 0 0
BITMAP
60
78
C0
F8
50
60
58
ENDCHAR
STARTCHAR U+4EE3
ENCODING 20195
SWIDTH 1000 0
DWIDTH 6 0
BBX 5 7 0 0
BITMAP
58
50
F8
D0
50
50
48
ENDCHAR
STARTCHAR U+4EE4
ENCODING 20196
SWIDTH 1000 0
DWIDTH 6 0
BBX 5 7 0 0
BITMAP
20
50
A8
70
10
60
10
ENDCHAR
STARTCHAR U+4EE5
ENCODING 20197
SWIDTH 1000 0
DWIDTH 6 0
BBX 5 7 0 0
BITMAP
48
58
48
68
48
90
28
ENDCHAR
STARTCHAR U+4EE8
ENCODING 20200
SWIDTH 1000 0
DWIDTH 6 0
BBX 5 7 0 0
BITMAP
40
78
C0
D8
40
40
78
ENDCHAR
STARTCHAR U+4EEA
ENCODING 20202
SWIDTH 1000 0
DWIDTH 6 0
BBX 5 7 0 0
BITMAP
50
40
E8
E8
50
50
68
ENDCHAR
STARTCHAR U+4EEB
ENCODING 20203
SWIDTH 1000 0
DWIDTH 6 0
BBX 5 7 0 0
BITMAP
50
50
E0
C8
50
68
78
ENDCHAR
STARTCHAR U+4EEC
ENCODING 20204
SWIDTH 1000 0
DWIDTH 6 0
BBX 5 7 0 0
BITMAP
58
68
C8
E8
68
68
68
ENDCHAR
STARTCHAR U+4EED
ENCODING 20205
SWIDTH 1000 0
DWIDTH 6 0
BBX 5 7 0 0
BITMAP
78
58
F8
D8
58
68
68
ENDCHAR
STARTCHAR U+4EEE
ENCODING 20206
SWIDTH 1000 0
DWIDTH 6 0
BBX 5 7 0 0
BITMAP
38
60
F8
68
68
50
68
ENDCHAR
STARTCHAR U+4EF0
ENCODING 20208
SWIDTH 1000 0
DWIDTH 6 0
BBX 5 7 0 0
BITMAP
60
58
D8
D8
78
50
50
ENDCHAR
STARTCHAR U+4EF2
ENCODING 20210
SWIDTH 1000 0
DWIDTH 6 0
BBX 5 7 0 0
BITMAP
50
78
E8
E8
78
50
50
ENDCHAR
STARTCHAR U+4EF3
ENCODING 20211
SWIDTH 1000 0
DWIDTH 6 0
BBX 5 7 0 0
BITMAP
70
F0
F8
70
70
70
78
ENDCHAR
STARTCHAR U+4EF5
ENCODING 20213
SWIDTH 1000 0
DWIDTH 6 0
BBX 5 7 0 0
BITMAP
60
78
D0
D0
78
50
50
ENDCHAR
STARTCHAR U+4EF6
ENCODING 20214
SWIDTH 1000 0
DWIDTH 6 0
BBX 5 7 0 0
BITMAP
70
78
D0
D0
78
50
50
ENDCHAR
STARTCHAR U+4EF7
ENCODING 20215
SWIDTH 1000 0
DWIDTH 6 0
BBX 5 7 0 0
BITMAP
50
68
C0
E8
68
68
48
ENDCHAR
STARTCHAR U+4EFB
ENCODING 20219
SWIDTH 1000 0
DWIDTH 6 0
BBX 5 7 0 0
BITMAP
48
70
D0
F8
50
50
78
ENDCHAR
STARTCHAR U+4EFD
ENCODING 20221
SWIDTH 1000 0
DWIDTH 6 0
BBX 5 7 0 0
BITMAP
68
68
C0
F8
58
58
68
ENDCHAR
STARTCHAR U+4EFF
ENCODING 20223
SWIDTH 1000 0
DWIDTH 6 0
BBX 5 7 0 0
BITMAP
50
78
D0
D8
58
68
68
ENDCHAR
STARTCHAR U+4F01
ENCODING 20225
SWIDTH 1000 0
DWIDTH 6 0
BBX 5 7 0 0
BITMAP
20
50
88
10
58
50
F8
ENDCHAR
STARTCHAR U+4F09
ENCODING 20233
SWIDTH 1000 0
DWIDTH 6 0
BBX 5 7 0 0
BITMAP
50
78
C0
F8
68
68
48
ENDCHAR
STARTCHAR U+4F0A
ENCODING 20234
SWIDTH 1000 0
DWIDTH 6 0
BBX 5 7 0 0
BITMAP
78
58
F8
D8
70
50
60
ENDCHAR
STARTCHAR U+4F0D
ENCODING 20237
SWIDTH 1000 0
DWIDTH 6 0
BBX 5 7 0 0
BITMAP
78
50
D0
F8
58
58
78
ENDCHAR
STARTCHAR U+4F0E
ENCODING 20238
SWIDTH 1000 0
DWIDTH 6 0
BBX 5 7 0 0
BITMAP
50
78
D0
F8
68
50
68
ENDCHAR
STARTCHAR U+4F0F
ENCODING 20239
SWIDTH 1000 0
DWIDTH 6 0
BBX 5 7 0 0
BITMAP
58
50
F8
D0
50
50
68
ENDCHAR
STARTCHAR U+4F10
ENCODING 20240
SWIDTH 1000 0
DWIDTH 6 0
BBX 5 7 0 0
BITMAP
58
50
F8
D0
58
50
68
ENDCHAR
STARTCHAR U+4F11
ENCODING 20241
SWIDTH 1000 0
DWIDTH 6 0
BBX 5 7 0 0
BITMAP
50
78
D0
F8
78
50
50
ENDCHAR
STARTCHAR U+4F15
ENCODING 20245
SWIDTH 1000 0
DWIDTH 6 0
BBX 5 7 0 0
BITMAP
50
78
D0
F8
50
50
68
ENDCHAR
STARTCHAR U+4F17
ENCODING 20247
SWIDTH 1000 0
DWIDTH 6 0
BBX 5 7 0 0
BITMAP
20
50
88
50
50
A8
A8
ENDCHAR
STARTCHAR U+4F18
ENCODING 20248
SWIDTH 1000 0
DWIDTH 6 0
BBX 5 7 0 0
BITMAP
58
50
F8
D0
50
50
68
ENDCHAR
STARTCHAR U+4F19
ENCODING 20249
SWIDTH 1000 0
DWIDTH 6 0
BBX 5 7 0 0
BITMAP
50
50
F8
F0
50
50
68
ENDCHAR
STARTCHAR U+4F1A
ENCODING 20250
SWIDTH 1000 0
DWIDTH 6 0
BBX 5 7 0 0
BITMAP
20
50
B8
00
F8
50
E8
ENDCHAR
STARTCHAR U+4F1B
ENCODING 20251
SWIDTH 1000 0
DWIDTH 6 0
BBX 5 7 0 0
BITMAP
78
40
E8
D0
68
40
78
ENDCHAR
STARTCHAR U+4F1C
ENCODING 20252
SWIDTH 1000 0
DWIDTH 6 0
BBX 5 7 0 0
BITMAP
50
70
D0
E8
50
78
50
ENDCHAR
STARTCHAR U+4F1D
ENCODING 20253
SWIDTH 1000 0
DWIDTH 6 0
BBX 5 7 0 0
BITMAP
58
40
F8
D0
50
68
78
ENDCHAR
STARTCHAR U+4F1E
ENCODING 20254
SWIDTH 1000 0
DWIDTH 6 0
BBX 5 7 0 0
BITMAP
20
50
A8
68
30
F8
20
ENDCHAR
STARTCHAR U+4F1F
ENCODING 20255
SWIDTH 1000 0
DWIDTH 6 0
BBX 5 7 0 0
BITMAP
50
78
D0
F8
58
58
50
ENDCHAR
STARTCHAR U+4F20
ENCODING 20256
SWIDTH 1000 0
DWIDTH 6 0
BBX 5 7 0 0
BITMAP
50
78
D0
F8
50
48
58
ENDCHAR
STARTCHAR U+4F22
ENCODING 20258
SWIDTH 1000 0
DWIDTH 6 0
BBX 5 7 0 0
BITMAP
78
48
E8
F8
58
68
58
ENDCHAR
STARTCHAR U+4F24
ENCODING 20260
SWIDTH 1000 0
DWIDTH 6 0
BBX 5 7 0 0
BITMAP
60
78
C0
D0
78
58
68
ENDCHAR
STARTCHAR U+4F25
ENCODING 20261
SWIDTH 1000 0
DWIDTH 6 0
BBX 5 7 0 0
BITMAP
68
70
E0
F8
60
70
68
ENDCHAR
STARTCHAR U+4F26
ENCODING 20262
SWIDTH 1000 0
DWIDTH 6 0
BBX 5 7 0 0
BITMAP
50
68
C0
D0
58
50
58
ENDCHAR
STARTCHAR U+4F27
ENCODING 20263
SWIDTH 1000 0
DWIDTH 6 0
BBX 5 7 0 0
BITMAP
50
68
C0
F8
68
60
58
ENDCHAR
STARTCHAR U+4F2A
ENCODING 20266
SWIDTH 1000 0
DWIDTH 6 0
BBX 5 7 0 0
BITMAP
50
70
F8
D8
58
68
58
ENDCHAR
STARTCHAR U+4F2B
ENCODING 20267
SWIDTH 1000 0
DWIDTH 6 0
BBX 5 7 0 0
BITMAP
50
F8
E8
40
40
78
40
ENDCHAR
STARTCHAR U+4F2F
ENCODING 20271
SWIDTH 1000 0
DWIDTH 6 0
BBX 5 7 0 0
BITMAP
50
78
E8
F8
68
68
78
ENDCHAR
STARTCHAR U+4F30
ENCODING 20272
SWIDTH 1000 0
DWIDTH 6 0
BBX 5 7 0 0
BITMAP
50
50
F8
D0
78
68
78
ENDCHAR
STARTCHAR U+4F31
ENCODING 20273
SWIDTH 1000 0
DWIDTH 6 0
BBX 5 7 0 0
BITMAP
50
68
C0
D0
78
70
50
ENDCHAR
STARTCHAR U+4F32
ENCODING 20274
SWIDTH 1000 0
DWIDTH 6 0
BBX 5 7 0 0
BITMAP
78
48
F8
D0
58
50
58
ENDCHAR
STARTCHAR U+4F34
ENCODING 20276
SWIDTH 1000 0
DWIDTH 6 0
BBX 5 7 0 0
BITMAP
68
68
D0
F8
50
78
50
ENDCHAR
STARTCHAR U+4F36
ENCODING 20278
SWIDTH 1000 0
DWIDTH 6 0
BBX 5 7 0 0
BITMAP
50
68
D0
F8
48
50
48
ENDCHAR
STARTCHAR U+4F38
ENCODING 20280
SWIDTH 1000 0
DWIDTH 6 0
BBX 5 7 0 0
BITMAP
50
78
E8
F8
68
78
50
ENDCHAR
STARTCHAR U+4F3A
ENCODING 20282
SWIDTH 1000 0
DWIDTH 6 0
BBX 5 7 0 0
BITMAP
58
48
D8
C8
58
58
48
ENDCHAR
STARTCHAR U+4F3C
ENCODING 20284
SWIDTH 1000 0
DWIDTH 6 0
BBX 5 7 0 0
BITMAP
28
58
C8
68
48
50
68
ENDCHAR
STARTCHAR U+4F3D
ENCODING 20285
SWIDTH 1000 0
DWIDTH 6 0
BBX 5 7 0 0
BITMAP
50
78
D8
D8
78
78
58
ENDCHAR
STARTCHAR U+4F43
ENCODING 20291
SWIDTH 1000 0
DWIDTH 6 0
BBX 5 7 0 0
BITMAP
78
68
E8
F8
68
68
78
ENDCHAR
STARTCHAR U+4F46
ENCODING 20294
SWIDTH 1000 0
DWIDTH 6 0
BBX 5 7 0 0
BITMAP
78
68
F8
E8
78
40
78
ENDCHAR
STARTCHAR U+4F47
ENCODING 20295
SWIDTH 1000 0
DWIDTH 6 0
BBX 5 7 0 0
BITMAP
50
78
E8
C0
78
50
70
ENDCHAR
STARTCHAR U+4F48
ENCODING 20296
SWIDTH 1000 0
DWIDTH 6 0
BBX 5 7 0 0
BITMAP
50
78
E0
D0
78
58
50
ENDCHAR
STARTCHAR U+4F4D
ENCODING 20301
SWIDTH 1000 0
DWIDTH 6 0
BBX 5 7 0 0
BITMAP
50
78
C8
E8
68
50
78
ENDCHAR
STARTCHAR U+4F4E
ENCODING 20302
SWIDTH 1000 0
DWIDTH 6 0
BBX 5 7 0 0
BITMAP
48
70
D0
F8
50
48
78
ENDCHAR
STARTCHAR U+4F4F
ENCODING 20303
SWIDTH 1000 0
DWIDTH 6 0
BBX 5 7 0 0
BITMAP
50
40
F8
D0
78
50
78
ENDCHAR
STARTCHAR U+4F50
ENCODING 20304
SWIDTH 1000 0
DWIDTH 6 0
BBX 5 7 0 0
BITMAP
50
78
D0
E0
78
50
78
ENDCHAR
STARTCHAR U+4F51
ENCODING 20305
SWIDTH 1000 0
DWIDTH 6 0
BBX 5 7 0 0
BITMAP
50
78
D0
E0
58
58
58
ENDCHAR
STARTCHAR U+4F53
ENCODING 20307
SWIDTH 1000 0
DWIDTH 6 0
BBX 5 7 0 0
BITMAP
50
78
D0
E8
50
78
50
ENDCHAR
STARTCHAR U+4F54
ENCODING 20308
SWIDTH 1000 0
DWIDTH 6 0
BBX 5 7 0 0
BITMAP
50
50
D8
D0
78
68
78
ENDCHAR
STARTCHAR U+4F55
ENCODING 20309
SWIDTH 1000 0
DWIDTH 6 0
BBX 5 7 0 0
BITMAP
38
48
F8
68
78
48
58
ENDCHAR
STARTCHAR U+4F57
ENCODING 20311
SWIDTH 1000 0
DWIDTH 6 0
BBX 5 7 0 0
BITMAP
50
78
E8
D0
58
50
58
ENDCHAR
STARTCHAR U+4F58
ENCODING 20312
SWIDTH 1000 0
DWIDTH 6 0
BBX 5 7 0 0
BITMAP
20
50
B8
00
F8
20
A8
ENDCHAR
STARTCHAR U+4F59
ENCODING 20313
SWIDTH 1000 0
DWIDTH 6 0
BBX 5 7 0 0
BITMAP
20
50
F8
20
F8
20
A8
ENDCHAR
STARTCHAR U+4F5A
ENCODING 20314
SWIDTH 1000 0
DWIDTH 6 0
BBX 5 7 0 0
BITMAP
70
78
D0
F8
50
50
68
ENDCHAR
STARTCHAR U+4F5B
ENCODING 20315
SWIDTH 1000 0
DWIDTH 6 0
BBX 5 7 0 0
BITMAP
50
78
D8
F0
78
58
50
ENDCHAR
STARTCHAR U+4F5C
ENCODING 20316
SWIDTH 1000 0
DWIDTH 6 0
BBX 5 7 0 0
BITMAP
50
58
F0
D8
50
58
50
ENDCHAR
STARTCHAR U+4F5D
ENCODING 20317
SWIDTH 1000 0
DWIDTH 6 0
BBX 5 7 0 0
BITMAP
50
58
E8
D8
58
48
58
ENDCHAR
STARTCHAR U+4F5E
ENCODING 20318
SWIDTH 1000 0
DWIDTH 6 0
BBX 5 7 0 0
BITMAP
58
40
F8
D0
68
50
68
ENDCHAR
STARTCHAR U+4F5F
ENCODING 20319
SWIDTH 1000 0
DWIDTH 6 0
BBX 5 7 0 0
BITMAP
58
68
D0
E8
50
40
58
ENDCHAR
STARTCHAR U+4F60
ENCODING 20320
SWIDTH 1000 0
DWIDTH 6 0
BBX 5 7 0 0
BITMAP
60
78
D8
F0
78
50
50
ENDCHAR
STARTCHAR U+4F63
ENCODING 20323
SWIDTH 1000 0
DWIDTH 6 0
BBX 5 7 0 0
BITMAP
78
68
F8
E8
78
68
58
ENDCHAR
STARTCHAR U+4F64
ENCODING 20324
SWIDTH 1000 0
DWIDTH 6 0
BBX 5 7 0 0
BITMAP
78
C0
F0
50
70
50
58
ENDCHAR
STARTCHAR U+4F65
ENCODING 20325
SWIDTH 1000 0
DWIDTH 6 0
BBX 5 7 0 0
BITMAP
20
50
B8
00
A8
10
F8
ENDCHAR
STARTCHAR U+4F67
ENCODING 20327
SWIDTH 1000 0
DWIDTH 6 0
BBX 5 7 0 0
BITMAP
50
58
D0
F8
50
58
50
ENDCHAR
STARTCHAR U+4F69
ENCODING 20329
SWIDTH 1000 0
DWIDTH 6 0
BBX 5 7 0 0
BITMAP
78
48
F8
D8
78
78
58
ENDCHAR
STARTCHAR U+4F6C
ENCODING 20332
SWIDTH 1000 0
DWIDTH 6 0
BBX 5 7 0 0
BITMAP
50
78
D0
F8
60
50
58
ENDCHAR
STARTCHAR U+4F6F
ENCODING 20335
SWIDTH 1000 0
DWIDTH 6 0
BBX 5 7 0 0
BITMAP
68
78
D0
F8
50
78
50
ENDCHAR
STARTCHAR U+4F70
ENCODING 20336
SWIDTH 1000 0
DWIDTH 6 0
BBX 5 7 0 0
BITMAP
78
50
F8
E8
78
68
78
ENDCHAR
STARTCHAR U+4F73
ENCODING 20339
SWIDTH 1000 0
DWIDTH 6 0
BBX 5 7 0 0
BITMAP
50
78
D0
F8
40
50
78
ENDCHAR
STARTCHAR U+4F74
ENCODING 20340
SWIDTH 1000 0
DWIDTH 6 0
BBX 5 7 0 0
BITMAP
40
78
D8
D8
58
78
48
ENDCHAR
STARTCHAR U+4F75
ENCODING 20341
SWIDTH 1000 0
DWIDTH 6 0
BBX 5 7 0 0
BITMAP
68
40
F8
D8
78
58
68
ENDCHAR
STARTCHAR U+4F76
ENCODING 20342
SWIDTH 1000 0
DWIDTH 6 0
BBX 5 7 0 0
BITMAP
50
78
D0
F8
40
58
58
ENDCHAR
STARTCHAR U+4F7B
ENCODING 20347
SWIDTH 1000 0
DWIDTH 6 0
BBX 5 7 0 0
BITMAP
70
78
F0
F8
70
70
58
ENDCHAR
STARTCHAR U+4F7C
ENCODING 20348
SWIDTH 1000 0
DWIDTH 6 0
BBX 5 7 0 0
BITMAP
50
78
E8
C0
68
50
68
ENDCHAR
STARTCHAR U+4F7E
ENCODING 20350
SWIDTH 1000 0
DWIDTH 6 0
BBX 5 7 0 0
BITMAP
50
68
C0
F8
68
78
68
ENDCHAR
STARTCHAR U+4F7F
ENCODING 20351
SWIDTH 1000 0
DWIDTH 6 0
BBX 5 7 0 0
BITMAP
50
78
F8
D0
70
50
68
ENDCHAR
STARTCHAR U+4F83
ENCODING 20355
SWIDTH 1000 0
DWIDTH 6 0
BBX 5 7 0 0
BITMAP
78
68
F8
C0
68
68
68
ENDCHAR
STARTCHAR U+4F84
ENCODING 20356
SWIDTH 1000 0
DWIDTH 6 0
BBX 5 7 0 0
BITMAP
78
50
E8
D0
78
50
78
ENDCHAR
STARTCHAR U+4F86
ENCODING 20358
SWIDTH 1000 0
DWIDTH 6 0
BBX 5 7 0 0
BITMAP
20
F8
70
A8
20
70
A8
ENDCHAR
STARTCHAR U+4F88
ENCODING 20360
SWIDTH 1000 0
DWIDTH 6 0
BBX 5 7 0 0
BITMAP
58
68
D0
D8
68
50
60
ENDCHAR
STARTCHAR U+4F89
ENCODING 20361
SWIDTH 1000 0
DWIDTH 6 0
BBX 5 7 0 0
BITMAP
50
78
D0
E8
50
58
48
ENDCHAR
STARTCHAR U+4F8B
ENCODING 20363
SWIDTH 1000 0
DWIDTH 6 0
BBX 5 7 0 0
BITMAP
48
78
D8
E8
58
68
48
ENDCHAR
STARTCHAR U+4F8D
ENCODING 20365
SWIDTH 1000 0
DWIDTH 6 0
BBX 5 7 0 0
BITMAP
50
78
D0
F8
48
68
58
ENDCHAR
STARTCHAR U+4F8F
ENCODING 20367
SWIDTH 1000 0
DWIDTH 6 0
BBX 5 7 0 0
BITMAP
70
78
D0
F8
50
78
50
ENDCHAR
STARTCHAR U+4F91
ENCODING 20369
SWIDTH 1000 0
DWIDTH 6 0
BBX 5 7 0 0
BITMAP
50
78
D0
E0
58
58
68
ENDCHAR
STARTCHAR U+4F94
ENCODING 20372
SWIDTH 1000 0
DWIDTH 6 0
BBX 5 7 0 0
BITMAP
50
60
F8
F8
50
78
50
ENDCHAR
STARTCHAR U+4F96
ENCODING 20374
SWIDTH 1000 0
DWIDTH 6 0
BBX 5 7 0 0
BITMAP
20
50
B8
00
F8
F8
A8
ENDCHAR
STARTCHAR U+4F97
ENCODING 20375
SWIDTH 1000 0
DWIDTH 6 0
BBX 5 7 0 0
BITMAP
78
68
F8
E8
78
78
68
ENDCHAR
STARTCHAR U+4F98
ENCODING 20376
SWIDTH 1000 0
DWIDTH 6 0
BBX 5 7 0 0
BITMAP
50
78
E8
D0
78
50
58
ENDCHAR
STARTCHAR U+4F9B
ENCODING 20379
SWIDTH 1000 0
DWIDTH 6 0
BBX 5 7 0 0
BITMAP
68
78
E8
E8
78
40
68
ENDCHAR
STARTCHAR U+4F9D
ENCODING 20381
SWIDTH 1000 0
DWIDTH 6 0
BBX 5 7 0 0
BITMAP
50
78
D0
E0
68
70
68
ENDCHAR
STARTCHAR U+4FA0
ENCODING 20384
SWIDTH 1000 0
DWIDTH 6 0
BBX 5 7 0 0
BITMAP
50
78
D0
E8
78
50
68
ENDCHAR
STARTCHAR U+4FA1
ENCODING 20385
SWIDTH 1000 0
DWIDTH 6 0
BBX 5 7 0 0
BITMAP
38
50
F8
68
68
68
78
ENDCHAR
STARTCHAR U+4FA3
ENCODING 20387
SWIDTH 1000 0
DWIDTH 6 0
BBX 5 7 0 0
BITMAP
78
68
F8
C0
78
68
78
ENDCHAR
STARTCHAR U+4FA5
ENCODING 20389
SWIDTH 1000 0
DWIDTH 6 0
BBX 5 7 0 0
BITMAP
50
78
D0
E8
78
50
68
ENDCHAR
STARTCHAR U+4FA6
ENCODING 20390
SWIDTH 1000 0
DWIDTH 6 0
BBX 5 7 0 0
BITMAP
58
50
F8
C8
58
50
68
ENDCHAR
STARTCHAR U+4FA7
ENCODING 20391
SWIDTH 1000 0
DWIDTH 6 0
BBX 5 7 0 0
BITMAP
78
58
D8
D8
58
68
58
ENDCHAR
STARTCHAR U+4FA8
ENCODING 20392
SWIDTH 1000 0
DWIDTH 6 0
BBX 5 7 0 0
BITMAP
58
78
D0
E8
40
68
68
ENDCHAR
STARTCHAR U+4FA9
ENCODING 20393
SWIDTH 1000 0
DWIDTH 6 0
BBX 5 7 0 0
BITMAP
50
68
F8
C0
78
60
78
ENDCHAR
STARTCHAR U+4FAA
ENCODING 20394
SWIDTH 1000 0
DWIDTH 6 0
BBX 5 7 0 0
BITMAP
50
78
E8
D0
68
48
68
ENDCHAR
STARTCHAR U+4FAB
ENCODING 20395
SWIDTH 1000 0
DWIDTH 6 0
BBX 5 7 0 0
BITMAP
50
78
E0
D8
68
50
68
ENDCHAR
STARTCHAR U+4FAC
ENCODING 20396
SWIDTH 1000 0
DWIDTH 6 0
BBX 5 7 0 0
BITMAP
50
78
D8
E0
68
70
68
ENDCHAR
STARTCHAR U+4FAD
ENCODING 20397
SWIDTH 1000 0
DWIDTH 6 0
BBX 5 7 0 0
BITMAP
78
68
F0
E8
50
40
58
ENDCHAR
STARTCHAR U+4FAE
ENCODING 20398
SWIDTH 1000 0
DWIDTH 6 0
BBX 5 7 0 0
BITMAP
60
78
D8
D8
68
78
48
ENDCHAR
STARTCHAR U+4FAF
ENCODING 20399
SWIDTH 1000 0
DWIDTH 6 0
BBX 5 7 0 0
BITMAP
58
48
F8
D0
78
50
68
ENDCHAR
STARTCHAR U+4FB5
ENCODING 20405
SWIDTH 1000 0
DWIDTH 6 0
BBX 5 7 0 0
BITMAP
58
48
D8
F8
68
50
68
ENDCHAR
STARTCHAR U+4FB6
ENCODING 20406
SWIDTH 1000 0
DWIDTH 6 0
BBX 5 7 0 0
BITMAP
78
68
F8
D0
78
68
78
ENDCHAR
STARTCHAR U+4FB7
ENCODING 20407
SWIDTH 1000 0
DWIDTH 6 0
BBX 5 7 0 0
BITMAP
70
50
F8
48
68
68
58
ENDCHAR
STARTCHAR U+4FBF
ENCODING 20415
SWIDTH 1000 0
DWIDTH 6 0
BBX 5 7 0 0
BITMAP
78
50
F8
F8
70
50
68
ENDCHAR
STARTCHAR U+4FC2
ENCODING 20418
SWIDTH 1000 0
DWIDTH 6 0
BBX 5 7 0 0
BITMAP
78
60
D0
E8
50
78
50
ENDCHAR
STARTCHAR U+4FC3
ENCODING 20419
SWIDTH 1000 0
DWIDTH 6 0
BBX 5 7 0 0
BITMAP
78
68
F8
D0
58
70
58
ENDCHAR
STARTCHAR U+4FC4
ENCODING 20420
SWIDTH 1000 0
DWIDTH 6 0
BBX 5 7 0 0
BITMAP
78
50
F8
D0
58
70
48
ENDCHAR
STARTCHAR U+4FC5
ENCODING 20421
SWIDTH 1000 0
DWIDTH 6 0
BBX 5 7 0 0
BITMAP
50
78
D0
D8
70
58
70
ENDCHAR
STARTCHAR U+4FCA
ENCODING 20426
SWIDTH 1000 0
DWIDTH 6 0
BBX 5 7 0 0
BITMAP
50
68
F8
D8
68
50
68
ENDCHAR
STARTCHAR U+4FCE
ENCODING 20430
SWIDTH 1000 0
DWIDTH 6 0
BBX 5 7 0 0
BITMAP
78
68
B8
28
78
68
B8
ENDCHAR
STARTCHAR U+4FCF
ENCODING 20431
SWIDTH 1000 0
DWIDTH 6 0
BBX 5 7 0 0
BITMAP
68
50
F8
E8
78
68
68
ENDCHAR
STARTCHAR U+4FD0
ENCODING 20432
SWIDTH 1000 0
DWIDTH 6 0
BBX 5 7 0 0
BITMAP
68
58
F8
D8
68
68
58
ENDCHAR
STARTCHAR U+4FD1
ENCODING 20433
SWIDTH 1000 0
DWIDTH 6 0
BBX 5 7 0 0
BITMAP
70
50
F8
E8
78
68
68
ENDCHAR
STARTCHAR U+4FD4
ENCODING 20436
SWIDTH 1000 0
DWIDTH 6 0
BBX 5 7 0 0
BITMAP
78
68
F8
E8
78
50
68
ENDCHAR
STARTCHAR U+4FD7
ENCODING 20439
SWIDTH 1000 0
DWIDTH 6 0
BBX 5 7 0 0
BITMAP
68
40
D0
E8
40
58
58
ENDCHAR
STARTCHAR U+4FD8
ENCODING 20440
SWIDTH 1000 0
DWIDTH 6 0
BBX 5 7 0 0
BITMAP
58
68
C0
D8
48
78
50
ENDCHAR
STARTCHAR U+4FDA
ENCODING 20442
SWIDTH 1000 0
DWIDTH 6 0
BBX 5 7 0 0
BITMAP
78
78
F8
D0
78
50
78
ENDCHAR
STARTCHAR U+4FDB
ENCODING 20443
SWIDTH 1000 0
DWIDTH 6 0
BBX 5 7 0 0
BITMAP
58
68
D0
F8
78
50
68
ENDCHAR
STARTCHAR U+4FDC
ENCODING 20444
SWIDTH 1000 0
DWIDTH 6 0
BBX 5 7 0 0
BITMAP
50
78
F8
F8
50
58
48
ENDCHAR
STARTCHAR U+4FDD
ENCODING 20445
SWIDTH 1000 0
DWIDTH 6 0
BBX 5 7 0 0
BITMAP
78
68
D0
F8
50
78
50
ENDCHAR
STARTCHAR U+4FDE
ENCODING 20446
SWIDTH 1000 0
DWIDTH 6 0
BBX 5 7 0 0
BITMAP
20
50
B8
00
E8
E8
A8
ENDCHAR
STARTCHAR U+4FDF
ENCODING 20447
SWIDTH 1000 0
DWIDTH 6 0
BBX 5 7 0 0
BITMAP
50
60
F8
D0
78
50
68
ENDCHAR
STARTCHAR U+4FE0
ENCODING 20448
SWIDTH 1000 0
DWIDTH 6 0
BBX 5 7 0 0
BITMAP
50
78
D0
D0
68
50
68
ENDCHAR
STARTCHAR U+4FE1
ENCODING 20449
SWIDTH 1000 0
DWIDTH 6 0
BBX 5 7 0 0
BITMAP
50
78
C0
D8
40
58
58
ENDCHAR
STARTCHAR U+4FE3
ENCODING 20451
SWIDTH 1000 0
DWIDTH 6 0
BBX 5 7 0 0
BITMAP
58
58
F8
D0
78
50
68
ENDCHAR
STARTCHAR U+4FE4
ENCODING 20452
SWIDTH 1000 0
DWIDTH 6 0
BBX 5 7 0 0
BITMAP
68
78
D8
F0
78
58
68
ENDCHAR
STARTCHAR U+4FE5
ENCODING 20453
SWIDTH 1000 0
DWIDTH 6 0
BBX 5 7 0 0
BITMAP
78
50
F8
F8
50
78
50
ENDCHAR
STARTCHAR U+4FE6
ENCODING 20454
SWIDTH 1000 0
DWIDTH 6 0
BBX 5 7 0 0
BITMAP
50
78
F8
E8
78
48
68
ENDCHAR
STARTCHAR U+4FE8
ENCODING 20456
SWIDTH 1000 0
DWIDTH 6 0
BBX 5 7 0 0
BITMAP
78
50
F8
D0
78
60
60
ENDCHAR
STARTCHAR U+4FE9
ENCODING 20457
SWIDTH 1000 0
DWIDTH 6 0
BBX 5 7 0 0
BITMAP
78
50
F8
F8
78
68
68
ENDCHAR
STARTCHAR U+4FEA
ENCODING 20458
SWIDTH 1000 0
DWIDTH 6 0
BBX 5 7 0 0
BITMAP
78
40
E8
68
68
68
68
ENDCHAR
STARTCHAR U+4FED
ENCODING 20461
SWIDTH 1000 0
DWIDTH 6 0
BBX 5 7 0 0
BITMAP
50
68
D8
60
48
50
78
ENDCHAR
STARTCHAR U+4FEE
ENCODING 20462
SWIDTH 1000 0
DWIDTH 6 0
BBX 5 7 0 0
BITMAP
60
78
D0
E8
50
48
50
ENDCHAR
STARTCHAR U+4FEF
ENCODING 20463
SWIDTH 1000 0
DWIDTH 6 0
BBX 5 7 0 0
BITMAP
50
78
C0
E8
78
68
68
ENDCHAR
STARTCHAR U+4FF1
ENCODING 20465
SWIDTH 1000 0
DWIDTH 6 0
BBX 5 7 0 0
BITMAP
58
58
D8
D8
78
40
68
ENDCHAR
STARTCHAR U+4FF3
ENCODING 20467
SWIDTH 1000 0
DWIDTH 6 0
BBX 5 7 0 0
BITMAP
70
78
F0
F8
70
78
50
ENDCHAR
STARTCHAR U+4FF5
ENCODING 20469
SWIDTH 1000 0
DWIDTH 6 0
BBX 5 7 0 0
BITMAP
50
78
D0
F8
68
70
68
ENDCHAR
STARTCHAR U+4FF6
ENCODING 20470
SWIDTH 1000 0
DWIDTH 6 0
BBX 5 7 0 0
BITMAP
58
68
C8
E8
50
50
68
ENDCHAR
STARTCHAR U+4FF8
ENCODING 20472
SWIDTH 1000 0
DWIDTH 6 0
BBX 5 7 0 0
BITMAP
50
78
F8
E8
50
78
50
ENDCHAR
STARTCHAR U+4FFA
ENCODING 20474
SWIDTH 1000 0
DWIDTH 6 0
BBX 5 7 0 0
BITMAP
50
78
D0
E8
70
70
58
ENDCHAR
STARTCHAR U+4FFE
ENCODING 20478
SWIDTH 1000 0
DWIDTH 6 0
BBX 5 7 0 0
BITMAP
50
78
E8
F8
58
78
48
ENDCHAR
STARTCHAR U+5000
ENCODING 20480
SWIDTH 1000 0
DWIDTH 6 0
BBX 5 7 0 0
BITMAP
58
50
D8
D0
78
70
68
ENDCHAR
STARTCHAR U+5005
ENCODING 20485
SWIDTH 1000 0
DWIDTH 6 0
BBX 5 7 0 0
BITMAP
50
78
D0
D0
68
78
50
ENDCHAR
STARTCHAR U+5006
ENCODING 20486
SWIDTH 1000 0
DWIDTH 6 0
BBX 5 7 0 0
BITMAP
78
50
F8
E8
78
78
68
ENDCHAR
STARTCHAR U+5009
ENCODING 20489
SWIDTH 1000 0
DWIDTH 6 0
BBX 5 7 0 0
BITMAP
20
50
F8
70
40
B0
30
ENDCHAR
STARTCHAR U+500B
ENCODING 20491
SWIDTH 1000 0
DWIDTH 6 0
BBX 5 7 0 0
BITMAP
78
58
F8
D8
68
78
78
ENDCHAR
STARTCHAR U+500C
ENCODING 20492
SWIDTH 1000 0
DWIDTH 6 0
BBX 5 7 0 0
BITMAP
50
78
E8
D8
50
58
58
ENDCHAR
STARTCHAR U+500D
ENCODING 20493
SWIDTH 1000 0
DWIDTH 6 0
BBX 5 7 0 0
BITMAP
50
78
E8
F8
40
58
58
ENDCHAR
STARTCHAR U+500F
ENCODING 20495
SWIDTH 1000 0
DWIDTH 6 0
BBX 5 7 0 0
BITMAP
58
68
D0
E8
78
50
68
ENDCHAR
STARTCHAR U+5011
ENCODING 20497
SWIDTH 1000 0
DWIDTH 6 0
BBX 5 7 0 0
BITMAP
68
68
E8
C8
48
48
58
ENDCHAR
STARTCHAR U+5012
ENCODING 20498
SWIDTH 1000 0
DWIDTH 6 0
BBX 5 7 0 0
BITMAP
48
78
D8
E8
58
78
48
ENDCHAR
STARTCHAR U+5014
ENCODING 20500
SWIDTH 1000 0
DWIDTH 6 0
BBX 5 7 0 0
BITMAP
78
48
F8
F8
50
58
78
ENDCHAR
STARTCHAR U+5016
ENCODING 20502
SWIDTH 1000 0
DWIDTH 6 0
BBX 5 7 0 0
BITMAP
50
78
F8
E8
78
78
50
ENDCHAR
STARTCHAR U+5018
ENCODING 20504
SWIDTH 1000 0
DWIDTH 6 0
BBX 5 7 0 0
BITMAP
50
58
D0
F8
48
58
58
ENDCHAR
STARTCHAR U+5019
ENCODING 20505
SWIDTH 1000 0
DWIDTH 6 0
BBX 5 7 0 0
BITMAP
58
48
F8
F0
78
50
68
ENDCHAR
STARTCHAR U+501A
ENCODING 20506
SWIDTH 1000 0
DWIDTH 6 0
BBX 5 7 0 0
BITMAP
50
78
D0
E8
78
48
68
ENDCHAR
STARTCHAR U+501C
ENCODING 20508
SWIDTH 1000 0
DWIDTH 6 0
BBX 5 7 0 0
BITMAP
78
68
F8
E8
78
78
48
ENDCHAR
STARTCHAR U+501F
ENCODING 20511
SWIDTH 1000 0
DWIDTH 6 0
BBX 5 7 0 0
BITMAP
68
78
E8
F8
40
58
58
ENDCHAR
STARTCHAR U+5021
ENCODING 20513
SWIDTH 1000 0
DWIDTH 6 0
BBX 5 7 0 0
BITMAP
58
58
F8
E8
78
68
78
ENDCHAR
STARTCHAR U+5023
ENCODING 20515
SWIDTH 1000 0
DWIDTH 6 0
BBX 5 7 0 0
BITMAP
50
78
D8
F8
78
70
68
ENDCHAR
STARTCHAR U+5024
ENCODING 20516
SWIDTH 1000 0
DWIDTH 6 0
BBX 5 7 0 0
BITMAP
50
78
D0
D8
58
40
78
ENDCHAR
STARTCHAR U+5025
ENCODING 20517
SWIDTH 1000 0
DWIDTH 6 0
BBX 5 7 0 0
BITMAP
50
78
E8
C0
78
50
78
ENDCHAR
STARTCHAR U+5026
ENCODING 20518
SWIDTH 1000 0
DWIDTH 6 0
BBX 5 7 0 0
BITMAP
68
50
F8
D0
68
50
58
ENDCHAR
STARTCHAR U+5028
ENCODING 20520
SWIDTH 1000 0
DWIDTH 6 0
BBX 5 7 0 0
BITMAP
78
78
D0
F8
50
68
78
ENDCHAR
STARTCHAR U+5029
ENCODING 20521
SWIDTH 1000 0
DWIDTH 6 0
BBX 5 7 0 0
BITMAP
50
78
D0
F8
68
78
68
ENDCHAR
STARTCHAR U+502A
ENCODING 20522
SWIDTH 1000 0
DWIDTH 6 0
BBX 5 7 0 0
BITMAP
50
68
F8
E8
78
50
68
ENDCHAR
STARTCHAR U+502B
ENCODING 20523
SWIDTH 1000 0
DWIDTH 6 0
BBX 5 7 0 0
BITMAP
50
68
D8
C0
78
78
68
ENDCHAR
STARTCHAR U+502C
ENCODING 20524
SWIDTH 1000 0
DWIDTH 6 0
BBX 5 7 0 0
BITMAP
58
50
F8
F8
50
78
50
ENDCHAR
STARTCHAR U+502D
ENCODING 20525
SWIDTH 1000 0
DWIDTH 6 0
BBX 5 7 0 0
BITMAP
78
50
F8
D0
68
50
68
ENDCHAR
STARTCHAR U+502E
ENCODING 20526
SWIDTH 1000 0
DWIDTH 6 0
BBX 5 7 0 0
BITMAP
78
78
F8
D0
78
78
50
ENDCHAR
STARTCHAR U+5036
ENCODING 20534
SWIDTH 1000 0
DWIDTH 6 0
BBX 5 7 0 0
BITMAP
58
58
D8
C0
78
40
68
ENDCHAR
STARTCHAR U+5039
ENCODING 20537
SWIDTH 1000 0
DWIDTH 6 0
BBX 5 7 0 0
BITMAP
50
68
D0
F8
78
50
68
ENDCHAR
STARTCHAR U+503A
ENCODING 20538
SWIDTH 1000 0
DWIDTH 6 0
BBX 5 7 0 0
BITMAP
50
78
D0
F8
58
50
68
ENDCHAR
STARTCHAR U+503C
ENCODING 20540
SWIDTH 1000 0
DWIDTH 6 0
BBX 5 7 0 0
BITMAP
50
78
D0
D8
58
58
78
ENDCHAR
STARTCHAR U+503E
ENCODING 20542
SWIDTH 1000 0
DWIDTH 6 0
BBX 5 7 0 0
BITMAP
58
50
F8
D8
78
50
68
ENDCHAR
STARTCHAR U+5043
ENCODING 20547
SWIDTH 1000 0
DWIDTH 6 0
BBX 5 7 0 0
BITMAP
78
58
D8
E8
50
68
78
ENDCHAR
STARTCHAR U+5047
ENCODING 20551
SWIDTH 1000 0
DWIDTH 6 0
BBX 5 7 0 0
BITMAP
78
68
C8
F8
68
50
68
ENDCHAR
STARTCHAR U+5048
ENCODING 20552
SWIDTH 1000 0
DWIDTH 6 0
BBX 5 7 0 0
BITMAP
58
58
C0
D8
68
78
48
ENDCHAR
STARTCHAR U+5049
ENCODING 20553
SWIDTH 1000 0
DWIDTH 6 0
BBX 5 7 0 0
BITMAP
50
78
D8
F8
70
78
50
ENDCHAR
STARTCHAR U+504C
ENCODING 20556
SWIDTH 1000 0
DWIDTH 6 0
BBX 5 7 0 0
BITMAP
68
78
D0
F8
60
58
58
ENDCHAR
STARTCHAR U+504E
ENCODING 20558
SWIDTH 1000 0
DWIDTH 6 0
BBX 5 7 0 0
BITMAP
78
68
F8
C0
78
70
68
ENDCHAR
STARTCHAR U+504F
ENCODING 20559
SWIDTH 1000 0
DWIDTH 6 0
BBX 5 7 0 0
BITMAP
50
70
F0
C0
78
78
68
ENDCHAR
STARTCHAR U+5050
ENCODING 20560
SWIDTH 1000 0
DWIDTH 6 0
BBX 5 7 0 0
BITMAP
50
78
D8
F8
60
68
50
ENDCHAR
STARTCHAR U+5055
ENCODING 20565
SWIDTH 1000 0
DWIDTH 6 0
BBX 5 7 0 0
BITMAP
50
58
D0
D8
60
78
78
ENDCHAR
STARTCHAR U+5056
ENCODING 20566
SWIDTH 1000 0
DWIDTH 6 0
BBX 5 7 0 0
BITMAP
50
78
D0
F8
60
58
58
ENDCHAR
STARTCHAR U+505A
ENCODING 20570
SWIDTH 1000 0
DWIDTH 6 0
BBX 5 7 0 0
BITMAP
50
78
D8
F8
68
70
48
ENDCHAR
STARTCHAR U+505C
ENCODING 20572
SWIDTH 1000 0
DWIDTH 6 0
BBX 5 7 0 0
BITMAP
50
78
E8
F8
58
50
70
ENDCHAR
STARTCHAR U+5065
ENCODING 20581
SWIDTH 1000 0
DWIDTH 6 0
BBX 5 7 0 0
BITMAP
48
78
D8
E8
58
68
78
ENDCHAR
STARTCHAR U+506C
ENCODING 20588
SWIDTH 1000 0
DWIDTH 6 0
BBX 5 7 0 0
BITMAP
60
78
D8
E8
40
68
58
ENDCHAR
STARTCHAR U+506D
ENCODING 20589
SWIDTH 1000 0
DWIDTH 6 0
BBX 5 7 0 0
BITMAP
78
50
F8
F8
78
78
78
ENDCHAR
STARTCHAR U+5072
ENCODING 20594
SWIDTH 1000 0
DWIDTH 6 0
BBX 5 7 0 0
BITMAP
78
68
F8
F8
40
68
58
ENDCHAR
STARTCHAR U+5074
ENCODING 20596
SWIDTH 1000 0
DWIDTH 6 0
BBX 5 7 0 0
BITMAP
78
68
F8
E8
78
48
68
ENDCHAR
STARTCHAR U+5075
ENCODING 20597
SWIDTH 1000 0
DWIDTH 6 0
BBX 5 7 0 0
BITMAP
50
58
D0
F8
78
40
68
ENDCHAR
STARTCHAR U+5076
ENCODING 20598
SWIDTH 1000 0
DWIDTH 6 0
BBX 5 7 0 0
BITMAP
78
68
F8
D0
78
78
68
ENDCHAR
STARTCHAR U+5077
ENCODING 20599
SWIDTH 1000 0
DWIDTH 6 0
BBX 5 7 0 0
BITMAP
50
68
D8
C0
68
68
68
ENDCHAR
STARTCHAR U+5078
ENCODING 20600
SWIDTH 1000 0
DWIDTH 6 0
BBX 5 7 0 0
BITMAP
50
68
D8
C0
68
70
68
ENDCHAR
STARTCHAR U+507A
ENCODING 20602
SWIDTH 1000 0
DWIDTH 6 0
BBX 5 7 0 0
BITMAP
68
78
D8
E8
58
58
58
ENDCHAR
STARTCHAR U+507B
ENCODING 20603
SWIDTH 1000 0
DWIDTH 6 0
BBX 5 7 0 0
BITMAP
68
50
E8
F8
68
50
68
ENDCHAR
STARTCHAR U+507D
ENCODING 20605
SWIDTH 1000 0
DWIDTH 6 0
BBX 5 7 0 0
BITMAP
68
50
F0
D0
78
48
68
ENDCHAR
STARTCHAR U+507E
ENCODING 20606
SWIDTH 1000 0
DWIDTH 6 0
BBX 5 7 0 0
BITMAP
50
78
E8
F8
58
50
68
ENDCHAR
STARTCHAR U+507F
ENCODING 20607
SWIDTH 1000 0
DWIDTH 6 0
BBX 5 7 0 0
BITMAP
68
78
E8
F8
50
68
78
ENDCHAR
STARTCHAR U+5080
ENCODING 20608
SWIDTH 1000 0
DWIDTH 6 0
BBX 5 7 0 0
BITMAP
50
78
F8
F8
50
50
68
ENDCHAR
STARTCHAR U+5085
ENCODING 20613
SWIDTH 1000 0
DWIDTH 6 0
BBX 5 7 0 0
BITMAP
50
78
D8
D8
78
68
58
ENDCHAR
STARTCHAR U+5088
ENCODING 20616
SWIDTH 1000 0
DWIDTH 6 0
BBX 5 7 0 0
BITMAP
78
58
D0
F8
50
78
50
ENDCHAR
STARTCHAR U+508D
ENCODING 20621
SWIDTH 1000 0
DWIDTH 6 0
BBX 5 7 0 0
BITMAP
50
78
E8
F8
50
58
68
ENDCHAR
STARTCHAR U+5091
ENCODING 20625
SWIDTH 1000 0
DWIDTH 6 0
BBX 5 7 0 0
BITMAP
68
78
D8
E8
50
78
50
ENDCHAR
STARTCHAR U+5096
ENCODING 20630
SWIDTH 1000 0
DWIDTH 6 0
BBX 5 7 0 0
BITMAP
50
68
D8
D8
50
78
58
ENDCHAR
STARTCHAR U+5098
ENCODING 20632
SWIDTH 1000 0
DWIDTH 6 0
BBX 5 7 0 0
BITMAP
20
50
A8
70
A8
F8
20
ENDCHAR
STARTCHAR U+5099
ENCODING 20633
SWIDTH 1000 0
DWIDTH 6 0
BBX 5 7 0 0
BITMAP
68
78
E8
F8
40
78
68
ENDCHAR
STARTCHAR U+509A
ENCODING 20634
SWIDTH 1000 0
DWIDTH 6 0
BBX 5 7 0 0
BITMAP
50
78
F8
D8
78
50
68
ENDCHAR
STARTCHAR U+50A2
ENCODING 20642
SWIDTH 1000 0
DWIDTH 6 0
BBX 5 7 0 0
BITMAP
50
78
E8
D0
68
58
68
ENDCHAR
STARTCHAR U+50A3
ENCODING 20643
SWIDTH 1000 0
DWIDTH 6 0
BBX 5 7 0 0
BITMAP
50
78
F0
D8
70
78
50
ENDCHAR
STARTCHAR U+50A5
ENCODING 20645
SWIDTH 1000 0
DWIDTH 6 0
BBX 5 7 0 0
BITMAP
68
78
E8
D8
58
70
58
ENDCHAR
STARTCHAR U+50A7
ENCODING 20647
SWIDTH 1000 0
DWIDTH 6 0
BBX 5 7 0 0
BITMAP
50
78
D8
F0
78
40
68
ENDCHAR
STARTCHAR U+50A8
ENCODING 20648
SWIDTH 1000 0
DWIDTH 6 0
BBX 5 7 0 0
BITMAP
50
78
D0
F8
60
78
58
ENDCHAR
STARTCHAR U+50A9
ENCODING 20649
SWIDTH 1000 0
DWIDTH 6 0
BBX 5 7 0 0
BITMAP
48
70
D8
D0
78
70
58
ENDCHAR
STARTCHAR U+50AC
ENCODING 20652
SWIDTH 1000 0
DWIDTH 6 0
BBX 5 7 0 0
BITMAP
68
78
D0
F8
70
70
78
ENDCHAR
STARTCHAR U+50AD
ENCODING 20653
SWIDTH 1000 0
DWIDTH 6 0
BBX 5 7 0 0
BITMAP
50
78
D8
F0
78
78
68
ENDCHAR
STARTCHAR U+50AF
ENCODING 20655
SWIDTH 1000 0
DWIDTH 6 0
BBX 5 7 0 0
BITMAP
50
78
F8
F8
40
68
58
ENDCHAR
STARTCHAR U+50B2
ENCODING 20658
SWIDTH 1000 0
DWIDTH 6 0
BBX 5 7 0 0
BITMAP
50
78
D8
F8
58
70
68
ENDCHAR
STARTCHAR U+50B3
ENCODING 20659
SWIDTH 1000 0
DWIDTH 6 0
BBX 5 7 0 0
BITMAP
50
78
D8
F8
78
68
58
ENDCHAR
STARTCHAR U+50B4
ENCODING 20660
SWIDTH 1000 0
DWIDTH 6 0
BBX 5 7 0 0
BITMAP
78
58
D8
C0
68
68
78
ENDCHAR
STARTCHAR U+50B5
ENCODING 20661
SWIDTH 1000 0
DWIDTH 6 0
BBX 5 7 0 0
BITMAP
50
78
D0
F8
58
40
68
ENDCHAR
STARTCHAR U+50B7
ENCODING 20663
SWIDTH 1000 0
DWIDTH 6 0
BBX 5 7 0 0
BITMAP
60
78
D8
D0
68
58
68
ENDCHAR
STARTCHAR U+50BA
ENCODING 20666
SWIDTH 1000 0
DWIDTH 6 0
BBX 5 7 0 0
BITMAP
58
68
F0
C8
78
78
50
ENDCHAR
STARTCHAR U+50BB
ENCODING 20667
SWIDTH 1000 0
DWIDTH 6 0
BBX 5 7 0 0
BITMAP
50
78
F8
D8
68
50
68
ENDCHAR
STARTCHAR U+50BE
ENCODING 20670
SWIDTH 1000 0
DWIDTH 6 0
BBX 5 7 0 0
BITMAP
58
50
F8
D8
58
60
48
ENDCHAR
STARTCHAR U+50C2
ENCODING 20674
SWIDTH 1000 0
DWIDTH 6 0
BBX 5 7 0 0
BITMAP
50
78
F8
D0
68
50
68
ENDCHAR
STARTCHAR U+50C5
ENCODING 20677
SWIDTH 1000 0
DWIDTH 6 0
BBX 5 7 0 0
BITMAP
68
78
F8
D0
78
50
78
ENDCHAR
STARTCHAR U+50C9
ENCODING 20681
SWIDTH 1000 0
DWIDTH 6 0
BBX 5 7 0 0
BITMAP
20
50
F8
A8
F8
50
A8
ENDCHAR
STARTCHAR U+50CA
ENCODING 20682
SWIDTH 1000 0
DWIDTH 6 0
BBX 5 7 0 0
BITMAP
78
58
D8
F8
68
50
58
ENDCHAR
STARTCHAR U+50CD
ENCODING 20685
SWIDTH 1000 0
DWIDTH 6 0
BBX 5 7 0 0
BITMAP
70
58
F8
F8
58
78
58
ENDCHAR
STARTCHAR U+50CF
ENCODING 20687
SWIDTH 1000 0
DWIDTH 6 0
BBX 5 7 0 0
BITMAP
58
68
D8
D8
50
68
58
ENDCHAR
STARTCHAR U+50D1
ENCODING 20689
SWIDTH 1000 0
DWIDTH 6 0
BBX 5 7 0 0
BITMAP
58
78
D0
E8
40
78
68
ENDCHAR
STARTCHAR U+50D5
ENCODING 20693
SWIDTH 1000 0
DWIDTH 6 0
BBX 5 7 0 0
BITMAP
68
78
E8
F8
78
50
68
ENDCHAR
STARTCHAR U+50D6
ENCODING 20694
SWIDTH 1000 0
DWIDTH 6 0
BBX 5 7 0 0
BITMAP
50
78
D0
F8
68
78
58
ENDCHAR
STARTCHAR U+50DA
ENCODING 20698
SWIDTH 1000 0
DWIDTH 6 0
BBX 5 7 0 0
BITMAP
50
78
F8
E8
50
78
50
ENDCHAR
STARTCHAR U+50DE
ENCODING 20702
SWIDTH 1000 0
DWIDTH 6 0
BBX 5 7 0 0
BITMAP
70
68
F0
D0
78
48
68
ENDCHAR
STARTCHAR U+50E3
ENCODING 20707
SWIDTH 1000 0
DWIDTH 6 0
BBX 5 7 0 0
BITMAP
50
78
D0
E8
40
58
58
ENDCHAR
STARTCHAR U+50E5
ENCODING 20709
SWIDTH 1000 0
DWIDTH 6 0
BBX 5 7 0 0
BITMAP
50
78
F8
E8
78
50
68
ENDCHAR
STARTCHAR U+50E6
ENCODING 20710
SWIDTH 1000 0
DWIDTH 6 0
BBX 5 7 0 0
BITMAP
50
70
F8
D0
70
70
68
ENDCHAR
STARTCHAR U+50E7
ENCODING 20711
SWIDTH 1000 0
DWIDTH 6 0
BBX 5 7 0 0
BITMAP
68
78
F8
F8
40
58
58
ENDCHAR
STARTCHAR U+50EC
ENCODING 20716
SWIDTH 1000 0
DWIDTH 6 0
BBX 5 7 0 0
BITMAP
68
78
F0
F0
78
40
68
ENDCHAR
STARTCHAR U+50ED
ENCODING 20717
SWIDTH 1000 0
DWIDTH 6 0
BBX 5 7 0 0
BITMAP
70
78
D0
E8
40
58
58
ENDCHAR
STARTCHAR U+50EE
ENCODING 20718
SWIDTH 1000 0
DWIDTH 6 0
BBX 5 7 0 0
BITMAP
50
78
E8
F8
78
50
78
ENDCHAR
STARTCHAR U+50F1
ENCODING 20721
SWIDTH 1000 0
DWIDTH 6 0
BBX 5 7 0 0
BITMAP
58
70
E8
F0
78
70
58
ENDCHAR
STARTCHAR U+50F3
ENCODING 20723
SWIDTH 1000 0
DWIDTH 6 0
BBX 5 7 0 0
BITMAP
78
58
D0
E8
50
78
50
ENDCHAR
STARTCHAR U+50F5
ENCODING 20725
SWIDTH 1000 0
DWIDTH 6 0
BBX 5 7 0 0
BITMAP
78
58
C0
F8
58
40
78
ENDCHAR
STARTCHAR U+50F9
ENCODING 20729
SWIDTH 1000 0
DWIDTH 6 0
BBX 5 7 0 0
BITMAP
78
58
C0
D8
58
40
68
ENDCHAR
STARTCHAR U+50FB
ENCODING 20731
SWIDTH 1000 0
DWIDTH 6 0
BBX 5 7 0 0
BITMAP
50
78
E8
D8
70
78
50
ENDCHAR
STARTCHAR U+5100
ENCODING 20736
SWIDTH 1000 0
DWIDTH 6 0
BBX 5 7 0 0
BITMAP
68
78
D0
F8
58
70
48
ENDCHAR
STARTCHAR U+5101
ENCODING 20737
SWIDTH 1000 0
DWIDTH 6 0
BBX 5 7 0 0
BITMAP
50
58
F0
D8
78
78
68
ENDCHAR
STARTCHAR U+5102
ENCODING 20738
SWIDTH 1000 0
DWIDTH 6 0
BBX 5 7 0 0
BITMAP
68
78
F8
C0
78
70
68
ENDCHAR
STARTCHAR U+5104
ENCODING 20740
SWIDTH 1000 0
DWIDTH 6 0
BBX 5 7 0 0
BITMAP
50
78
E8
F8
58
60
58
ENDCHAR
STARTCHAR U+5106
ENCODING 20742
SWIDTH 1000 0
DWIDTH 6 0
BBX 5 7 0 0
BITMAP
50
78
D8
E8
68
50
68
ENDCHAR
STARTCHAR U+5107
ENCODING 20743
SWIDTH 1000 0
DWIDTH 6 0
BBX 5 7 0 0
BITMAP
78
78
F8
E8
78
70
68
ENDCHAR
STARTCHAR U+5108
ENCODING 20744
SWIDTH 1000 0
DWIDTH 6 0
BBX 5 7 0 0
BITMAP
50
68
D8
D8
40
58
58
ENDCHAR
STARTCHAR U+5109
ENCODING 20745
SWIDTH 1000 0
DWIDTH 6 0
BBX 5 7 0 0
BITMAP
50
68
C0
F8
78
50
68
ENDCHAR
STARTCHAR U+510B
ENCODING 20747
SWIDTH 1000 0
DWIDTH 6 0
BBX 5 7 0 0
BITMAP
58
68
F8
E8
40
78
58
ENDCHAR
STARTCHAR U+5110
ENCODING 20752
SWIDTH 1000 0
DWIDTH 6 0
BBX 5 7 0 0
BITMAP
50
78
E8
D8
58
40
68
ENDCHAR
STARTCHAR U+5112
ENCODING 20754
SWIDTH 1000 0
DWIDTH 6 0
BBX 5 7 0 0
BITMAP
78
50
E8
C0
50
78
68
ENDCHAR
STARTCHAR U+5114
ENCODING 20756
SWIDTH 1000 0
DWIDTH 6 0
BBX 5 7 0 0
BITMAP
50
78
F8
D0
78
68
58
ENDCHAR
STARTCHAR U+5115
ENCODING 20757
SWIDTH 1000 0
DWIDTH 6 0
BBX 5 7 0 0
BITMAP
50
78
E8
D0
68
78
68
ENDCHAR
STARTCHAR U+5116
ENCODING 20758
SWIDTH 1000 0
DWIDTH 6 0
BBX 5 7 0 0
BITMAP
68
68
E0
E8
40
70
78
ENDCHAR
STARTCHAR U+5118
ENCODING 20760
SWIDTH 1000 0
DWIDTH 6 0
BBX 5 7 0 0
BITMAP
50
70
D8
F0
68
70
78
ENDCHAR
STARTCHAR U+511A
ENCODING 20762
SWIDTH 1000 0
DWIDTH 6 0
BBX 5 7 0 0
BITMAP
68
78
D8
F8
68
50
60
ENDCHAR
STARTCHAR U+511F
ENCODING 20767
SWIDTH 1000 0
DWIDTH 6 0
BBX 5 7 0 0
BITMAP
68
50
E8
F8
78
40
68
ENDCHAR
STARTCHAR U+5121
ENCODING 20769
SWIDTH 1000 0
DWIDTH 6 0
BBX 5 7 0 0
BITMAP
78
78
F8
C0
68
68
68
ENDCHAR
STARTCHAR U+512A
ENCODING 20778
SWIDTH 1000 0
DWIDTH 6 0
BBX 5 7 0 0
BITMAP
78
50
F8
F8
68
50
68
ENDCHAR
STARTCHAR U+5132
ENCODING 20786
SWIDTH 1000 0
DWIDTH 6 0
BBX 5 7 0 0
BITMAP
70
58
F0
D8
60
78
58
ENDCHAR
STARTCHAR U+5137
ENCODING 20791
SWIDTH 1000 0
DWIDTH 6 0
BBX 5 7 0 0
BITMAP
68
40
F8
F0
78
70
78
ENDCHAR
STARTCHAR U+513A
ENCODING 20794
SWIDTH 1000 0
DWIDTH 6 0
BBX 5 7 0 0
BITMAP
68
70
D8
F0
78
50
78
ENDCHAR
STARTCHAR U+513B
ENCODING 20795
SWIDTH 1000 0
DWIDTH 6 0
BBX 5 7 0 0
BITMAP
68
78
E8
D0
78
40
68
ENDCHAR
STARTCHAR U+513C
ENCODING 20796
SWIDTH 1000 0
DWIDTH 6 0
BBX 5 7 0 0
BITMAP
68
78
F0
F8
68
70
68
ENDCHAR
STARTCHAR U+513F
ENCODING 20799
SWIDTH 1000 0
DWIDTH 6 0
BBX 5 7 0 0
BITMAP
50
50
50
50
50
50
98
ENDCHAR
STARTCHAR U+5140
ENCODING 20800
SWIDTH 1000 0
DWIDTH 6 0
BBX 5 7 0 0
BITMAP
F8
50
50
50
50
50
98
ENDCHAR
STARTCHAR U+5141
ENCODING 20801
SWIDTH 1000 0
DWIDTH 6 0
BBX 5 7 0 0
BITMAP
20
48
F8
50
50
50
98
ENDCHAR
STARTCHAR U+5143
ENCODING 20803
SWIDTH 1000 0
DWIDTH 6 0
BBX 5 7 0 0
BITMAP
70
00
F8
50
50
50
98
ENDCHAR
STARTCHAR U+5144
ENCODING 20804
SWIDTH 1000 0
DWIDTH 6 0
BBX 5 7 0 0
BITMAP
F8
88
88
F8
50
50
98
ENDCHAR
STARTCHAR U+5145
ENCODING 20805
SWIDTH 1000 0
DWIDTH 6 0
BBX 5 7 0 0
BITMAP
20
F8
50
E8
50
50
98
ENDCHAR
STARTCHAR U+5146
ENCODING 20806
SWIDTH 1000 0
DWIDTH 6 0
BBX 5 7 0 0
BITMAP
50
D8
50
D8
50
50
98
ENDCHAR
STARTCHAR U+5147
ENCODING 20807
SWIDTH 1000 0
DWIDTH 6 0
BBX 5 7 0 0
BITMAP
D8
A8
D8
88
F8
50
98
ENDCHAR
STARTCHAR U+5148
ENCODING 20808
SWIDTH 1000 0
DWIDTH 6 0
BBX 5 7 0 0
BITMAP
60
70
A0
F8
50
50
98
ENDCHAR
STARTCHAR U+5149
ENCODING 20809
SWIDTH 1000 0
DWIDTH 6 0
BBX 5 7 0 0
BITMAP
20
A8
20
F8
50
50
98
ENDCHAR
STARTCHAR U+514B
ENCODING 20811
SWIDTH 1000 0
DWIDTH 6 0
BBX 5 7 0 0
BITMAP
20
F8
78
48
78
50
98
ENDCHAR
STARTCHAR U+514C
ENCODING 20812
SWIDTH 1000 0
DWIDTH 6 0
BBX 5 7 0 0
BITMAP
50
88
F8
88
F8
50
98
ENDCHAR
STARTCHAR U+514D
ENCODING 20813
SWIDTH 1000 0
DWIDTH 6 0
BBX 5 7 0 0
BITMAP
30
D0
78
A8
F8
50
98
ENDCHAR
STARTCHAR U+514E
ENCODING 20814
SWIDTH 1000 0
DWIDTH 6 0
BBX 5 7 0 0
BITMAP
18
E0
F8
A8
F8
50
98
ENDCHAR
STARTCHAR U+5150
ENCODING 20816
SWIDTH 1000 0
DWIDTH 6 0
BBX 5 7 0 0
BITMAP
B8
A8
B8
A8
B8
50
98
ENDCHAR
STARTCHAR U+5151
ENCODING 20817
SWIDTH 1000 0
DWIDTH 6 0
BBX 5 7 0 0
BITMAP
50
F8
88
F8
50
50
98
ENDCHAR
STARTCHAR U+5152
ENCODING 20818
SWIDTH 1000 0
DWIDTH 6 0
BBX 5 7 0 0
BITMAP
58
88
D8
88
F8
50
98
ENDCHAR
STARTCHAR U+5154
ENCODING 20820
SWIDTH 1000 0
DWIDTH 6 0
BBX 5 7 0 0
BITMAP
30
D0
78
A8
F8
70
B8
ENDCHAR
STARTCHAR U+5155
ENCODING 20821
SWIDTH 1000 0
DWIDTH 6 0
BBX 5 7 0 0
BITMAP
D8
D8
F8
88
F8
50
98
ENDCHAR
STARTCHAR U+5156
ENCODING 20822
SWIDTH 1000 0
DWIDTH 6 0
BBX 5 7 0 0
BITMAP
20
F8
50
A8
50
70
98
ENDCHAR
STARTCHAR U+5157
ENCODING 20823
SWIDTH 1000 0
DWIDTH 6 0
BBX 5 7 0 0
BITMAP
20
F8
50
88
70
70
98
ENDCHAR
STARTCHAR U+5159
ENCODING 20825
SWIDTH 1000 0
DWIDTH 6 0
BBX 5 7 0 0
BITMAP
48
E8
58
A8
E8
40
B8
ENDCHAR
STARTCHAR U+515A
ENCODING 20826
SWIDTH 1000 0
DWIDTH 6 0
BBX 5 7 0 0
BITMAP
A8
F8
88
70
50
70
98
ENDCHAR
STARTCHAR U+515B
ENCODING 20827
SWIDTH 1000 0
DWIDTH 6 0
BBX 5 7 0 0
BITMAP
48
F0
50
B8
D0
50
B8
ENDCHAR
STARTCHAR U+515C
ENCODING 20828
SWIDTH 1000 0
DWIDTH 6 0
BBX 5 7 0 0
BITMAP
A8
D8
F8
D8
F8
50
98
ENDCHAR
STARTCHAR U+515D
ENCODING 20829
SWIDTH 1000 0
DWIDTH 6 0
BBX 5 7 0 0
BITMAP
68
E8
40
B8
D8
68
B8
ENDCHAR
STARTCHAR U+515E
ENCODING 20830
SWIDTH 1000 0
DWIDTH 6 0
BBX 5 7 0 0
BITMAP
48
F0
58
B0
F8
50
B8
ENDCHAR
STARTCHAR U+5161
ENCODING 20833
SWIDTH 1000 0
DWIDTH 6 0
BBX 5 7 0 0
BITMAP
58
E8
58
B8
F8
40
B8
ENDCHAR
STARTCHAR U+5162
ENCODING 20834
SWIDTH 1000 0
DWIDTH 6 0
BBX 5 7 0 0
BITMAP
50
F8
50
A8
F8
50
A8
ENDCHAR
STARTCHAR U+5163
ENCODING 20835
SWIDTH 1000 0
DWIDTH 6 0
BBX 5 7 0 0
BITMAP
58
E0
78
B8
E8
58
B8
ENDCHAR
STARTCHAR U+5165
ENCODING 20837
SWIDTH 1000 0
DWIDTH 6 0
BBX 5 7 0 0
BITMAP
60
20
20
20
50
50
88
ENDCHAR
STARTCHAR U+5167
ENCODING 20839
SWIDTH 1000 0
DWIDTH 6 0
BBX 5 7 0 0
BITMAP
60
20
F8
A8
D8
88
98
ENDCHAR
STARTCHAR U+5168
ENCODING 20840
SWIDTH 1000 0
DWIDTH 6 0
BBX 5 7 0 0
BITMAP
20
50
F8
20
70
20
F8
ENDCHAR
STARTCHAR U+5169
ENCODING 20841
SWIDTH 1000 0
DWIDTH 6 0
BBX 5 7 0 0
BITMAP
F8
20
F8
A8
F8
F8
A8
ENDCHAR
STARTCHAR U+516A
ENCODING 20842
SWIDTH 1000 0
DWIDTH 6 0
BBX 5 7 0 0
BITMAP
E0
50
B8
00
E8
F0
A8
ENDCHAR
STARTCHAR U+516B
ENCODING 20843
SWIDTH 1000 0
DWIDTH 6 0
BBX 5 7 0 0
BITMAP
50
50
50
50
50
50
88
ENDCHAR
STARTCHAR U+516C
ENCODING 20844
SWIDTH 1000 0
DWIDTH 6 0
BBX 5 7 0 0
BITMAP
50
50
88
20
20
50
E8
ENDCHAR
STARTCHAR U+516D
ENCODING 20845
SWIDTH 1000 0
DWIDTH 6 0
BBX 5 7 0 0
BITMAP
20
F8
00
50
50
50
88
ENDCHAR
STARTCHAR U+516E
ENCODING 20846
SWIDTH 1000 0
DWIDTH 6 0
BBX 5 7 0 0
BITMAP
50
88
F8
40
78
08
18
ENDCHAR
STARTCHAR U+5170
ENCODING 20848
SWIDTH 1000 0
DWIDTH 6 0
BBX 5 7 0 0
BITMAP
50
F8
00
70
00
00
F8
ENDCHAR
STARTCHAR U+5171
ENCODING 20849
SWIDTH 1000 0
DWIDTH 6 0
BBX 5 7 0 0
BITMAP
50
F8
50
50
F8
00
88
ENDCHAR
STARTCHAR U+5173
ENCODING 20851
SWIDTH 1000 0
DWIDTH 6 0
BBX 5 7 0 0
BITMAP
50
F8
20
F8
20
50
88
ENDCHAR
STARTCHAR U+5174
ENCODING 20852
SWIDTH 1000 0
DWIDTH 6 0
BBX 5 7 0 0
BITMAP
A8
A8
10
F8
00
50
88
ENDCHAR
STARTCHAR U+5175
ENCODING 20853
SWIDTH 1000 0
DWIDTH 6 0
BBX 5 7 0 0
BITMAP
10
60
78
50
F8
00
88
ENDCHAR
STARTCHAR U+5176
ENCODING 20854
SWIDTH 1000 0
DWIDTH 6 0
BBX 5 7 0 0
BITMAP
50
F8
50
70
F8
00
88
ENDCHAR
STARTCHAR U+5177
ENCODING 20855
SWIDTH 1000 0
DWIDTH 6 0
BBX 5 7 0 0
BITMAP
70
50
70
50
F8
00
88
ENDCHAR
STARTCHAR U+5178
ENCODING 20856
SWIDTH 1000 0
DWIDTH 6 0
BBX 5 7 0 0
BITMAP
50
70
70
70
F8
00
88
ENDCHAR
STARTCHAR U+5179
ENCODING 20857
SWIDTH 1000 0
DWIDTH 6 0
BBX 5 7 0 0
BITMAP
50
F8
48
90
48
90
D8
ENDCHAR
STARTCHAR U+517B
ENCODING 20859
SWIDTH 1000 0
DWIDTH 6 0
BBX 5 7 0 0
BITMAP
50
F8
20
F8
50
D8
50
ENDCHAR
STARTCHAR U+517C
ENCODING 20860
SWIDTH 1000 0
DWIDTH 6 0
BBX 5 7 0 0
BITMAP
50
F8
30
F8
38
70
A8
ENDCHAR
STARTCHAR U+517D
ENCODING 20861
SWIDTH 1000 0
DWIDTH 6 0
BBX 5 7 0 0
BITMAP
50
F8
F8
00
F8
50
70
ENDCHAR
STARTCHAR U+5180
ENCODING 20864
SWIDTH 1000 0
DWIDTH 6 0
BBX 5 7 0 0
BITMAP
50
D8
50
F8
70
F8
88
ENDCHAR
STARTCHAR U+5181
ENCODING 20865
SWIDTH 1000 0
DWIDTH 6 0
BBX 5 7 0 0
BITMAP
B8
48
F8
F0
78
F0
68
ENDCHAR
STARTCHAR U+5182
ENCODING 20866
SWIDTH 1000 0
DWIDTH 6 0
BBX 5 7 0 0
BITMAP
F8
88
88
88
88
88
98
ENDCHAR
STARTCHAR U+5183
ENCODING 20867
SWIDTH 1000 0
DWIDTH 6 0
BBX 5 7 0 0
BITMAP
F8
88
B8
88
B8
88
98
ENDCHAR
STARTCHAR U+5184
ENCODING 20868
SWIDTH 1000 0
DWIDTH 6 0
BBX 5 7 0 0
BITMAP
70
50
F8
50
F8
50
50
ENDCHAR
STARTCHAR U+5185
ENCODING 20869
SWIDTH 1000 0
DWIDTH 6 0
BBX 5 7 0 0
BITMAP
20
F8
A8
A8
D8
88
98
ENDCHAR
STARTCHAR U+5186
ENCODING 20870
SWIDTH 1000 0
DWIDTH 6 0
BBX 5 7 0 0
BITMAP
F8
A8
A8
F8
88
88
98
ENDCHAR
STARTCHAR U+5187
ENCODING 20871
SWIDTH 1000 0
DWIDTH 6 0
BBX 5 7 0 0
BITMAP
20
F8
20
78
C8
48
58
ENDCHAR
STARTCHAR U+5188
ENCODING 20872
SWIDTH 1000 0
DWIDTH 6 0
BBX 5 7 0 0
BITMAP
F8
88
D8
A8
D8
88
98
ENDCHAR
STARTCHAR U+5189
ENCODING 20873
SWIDTH 1000 0
DWIDTH 6 0
BBX 5 7 0 0
BITMAP
20
78
68
78
68
F8
48
ENDCHAR
STARTCHAR U+518A
ENCODING 20874
SWIDTH 1000 0
DWIDTH 6 0
BBX 5 7 0 0
BITMAP
78
68
68
F8
68
68
48
ENDCHAR
STARTCHAR U+518B
ENCODING 20875
SWIDTH 1000 0
DWIDTH 6 0
BBX 5 7 0 0
BITMAP
F8
88
F8
D8
F8
88
98
ENDCHAR
STARTCHAR U+518C
ENCODING 20876
SWIDTH 1000 0
DWIDTH 6 0
BBX 5 7 0 0
BITMAP
78
68
68
F8
68
68
A8
ENDCHAR
STARTCHAR U+518D
ENCODING 20877
SWIDTH 1000 0
DWIDTH 6 0
BBX 5 7 0 0
BITMAP
F8
20
70
70
F8
50
50
ENDCHAR
STARTCHAR U+518F
ENCODING 20879
SWIDTH 1000 0
DWIDTH 6 0
BBX 5 7 0 0
BITMAP
F8
D8
88
F8
D8
F8
88
ENDCHAR
STARTCHAR U+5190
ENCODING 20880
SWIDTH 1000 0
DWIDTH 6 0
BBX 5 7 0 0
BITMAP
F8
88
B8
70
50
70
50
ENDCHAR
STARTCHAR U+5191
ENCODING 20881
SWIDTH 1000 0
DWIDTH 6 0
BBX 5 7 0 0
BITMAP
20
F8
A8
F8
50
70
50
ENDCHAR
STARTCHAR U+5192
ENCODING 20882
SWIDTH 1000 0
DWIDTH 6 0
BBX 5 7 0 0
BITMAP
F8
88
B8
50
70
50
70
ENDCHAR
STARTCHAR U+5193
ENCODING 20883
SWIDTH 1000 0
DWIDTH 6 0
BBX 5 7 0 0
BITMAP
50
F8
50
F8
70
F8
50
ENDCHAR
STARTCHAR U+5195
ENCODING 20885
SWIDTH 1000 0
DWIDTH 6 0
BBX 5 7 0 0
BITMAP
F8
88
78
A8
F8
50
98
ENDCHAR
STARTCHAR U+5196
ENCODING 20886
SWIDTH 1000 0
DWIDTH 6 0
BBX 5 2 0 5
BITMAP
F8
88
ENDCHAR
STARTCHAR U+5197
ENCODING 20887
SWIDTH 1000 0
DWIDTH 6 0
BBX 5 7 0 0
BITMAP
F8
88
70
50
50
50
98
ENDCHAR
STARTCHAR U+5199
ENCODING 20889
SWIDTH 1000 0
DWIDTH 6 0
BBX 5 7 0 0
BITMAP
F8
A8
30
40
78
E8
18
ENDCHAR
STARTCHAR U+519A
ENCODING 20890
SWIDTH 1000 0
DWIDTH 6 0
BBX 5 7 0 0
BITMAP
F8
88
20
A8
A8
A8
F8
ENDCHAR
STARTCHAR U+519B
ENCODING 20891
SWIDTH 1000 0
DWIDTH 6 0
BBX 5 7 0 0
BITMAP
F8
C8
F8
70
20
F8
20
ENDCHAR
STARTCHAR U+519C
ENCODING 20892
SWIDTH 1000 0
DWIDTH 6 0
BBX 5 7 0 0
BITMAP
20
F8
A8
40
E8
50
68
ENDCHAR
STARTCHAR U+51A0
ENCODING 20896
SWIDTH 1000 0
DWIDTH 6 0
BBX 5 7 0 0
BITMAP
F8
88
60
18
E8
58
B8
ENDCHAR
STARTCHAR U+51A2
ENCODING 20898
SWIDTH 1000 0
DWIDTH 6 0
BBX 5 7 0 0
BITMAP
F8
88
70
68
B0
58
B0
ENDCHAR
STARTCHAR U+51A4
ENCODING 20900
SWIDTH 1000 0
DWIDTH 6 0
BBX 5 7 0 0
BITMAP
F8
B8
78
A8
F8
50
98
ENDCHAR
STARTCHAR U+51A5
ENCODING 20901
SWIDTH 1000 0
DWIDTH 6 0
BBX 5 7 0 0
BITMAP
F8
88
70
50
F8
00
88
ENDCHAR
STARTCHAR U+51A6
ENCODING 20902
SWIDTH 1000 0
DWIDTH 6 0
BBX 5 7 0 0
BITMAP
F8
88
D0
18
D0
68
B8
ENDCHAR
STARTCHAR U+51A8
ENCODING 20904
SWIDTH 1000 0
DWIDTH 6 0
BBX 5 7 0 0
BITMAP
F8
88
70
50
F8
A8
F8
ENDCHAR
STARTCHAR U+51A9
ENCODING 20905
SWIDTH 1000 0
DWIDTH 6 0
BBX 5 7 0 0
BITMAP
F8
A8
50
70
78
88
58
ENDCHAR
STARTCHAR U+51AA
ENCODING 20906
SWIDTH 1000 0
DWIDTH 6 0
BBX 5 7 0 0
BITMAP
F8
D8
70
70
A8
70
50
ENDCHAR
STARTCHAR U+51AB
ENCODING 20907
SWIDTH 1000 0
DWIDTH 6 0
BBX 2 7 2 0
BITMAP
80
40
00
00
40
80
80
ENDCHAR
STARTCHAR U+51AC
ENCODING 20908
SWIDTH 1000 0
DWIDTH 6 0
BBX 5 7 0 0
BITMAP
30
50
20
D8
20
00
30
ENDCHAR
STARTCHAR U+51AF
ENCODING 20911
SWIDTH 1000 0
DWIDTH 6 0
BBX 5 7 0 0
BITMAP
B8
08
20
38
88
E8
98
ENDCHAR
STARTCHAR U+51B0
ENCODING 20912
SWIDTH 1000 0
DWIDTH 6 0
BBX 5 7 0 0
BITMAP
90
18
70
30
D0
98
B0
ENDCHAR
STARTCHAR U+51B1
ENCODING 20913
SWIDTH 1000 0
DWIDTH 6 0
BBX 5 7 0 0
BITMAP
B8
10
18
28
B0
90
B8
ENDCHAR
STARTCHAR U+51B2
ENCODING 20914
SWIDTH 1000 0
DWIDTH 6 0
BBX 5 7 0 0
BITMAP
90
78
58
58
F8
90
90
ENDCHAR
STARTCHAR U+51B3
ENCODING 20915
SWIDTH 1000 0
DWIDTH 6 0
BBX 5 7 0 0
BITMAP
90
38
18
78
90
90
A8
ENDCHAR
STARTCHAR U+51B4
ENCODING 20916
SWIDTH 1000 0
DWIDTH 6 0
BBX 5 7 0 0
BITMAP
B8
28
28
78
98
E8
98
ENDCHAR
STARTCHAR U+51B5
ENCODING 20917
SWIDTH 1000 0
DWIDTH 6 0
BBX 5 7 0 0
BITMAP
B8
28
28
38
90
B0
D8
ENDCHAR
STARTCHAR U+51B6
ENCODING 20918
SWIDTH 1000 0
DWIDTH 6 0
BBX 5 7 0 0
BITMAP
90
10
28
78
80
B8
B8
ENDCHAR
STARTCHAR U+51B7
ENCODING 20919
SWIDTH 1000 0
DWIDTH 6 0
BBX 5 7 0 0
BITMAP
90
28
50
38
88
B0
88
ENDCHAR
STARTCHAR U+51BB
ENCODING 20923
SWIDTH 1000 0
DWIDTH 6 0
BBX 5 7 0 0
BITMAP
90
78
20
50
F8
90
D8
ENDCHAR
STARTCHAR U+51BC
ENCODING 20924
SWIDTH 1000 0
DWIDTH 6 0
BBX 5 7 0 0
BITMAP
B0
38
50
78
B0
B0
D8
ENDCHAR
STARTCHAR U+51BD
ENCODING 20925
SWIDTH 1000 0
DWIDTH 6 0
BBX 5 7 0 0
BITMAP
B8
18
18
28
98
98
A8
ENDCHAR
STARTCHAR U+51C0
ENCODING 20928
SWIDTH 1000 0
DWIDTH 6 0
BBX 5 7 0 0
BITMAP
98
28
10
38
98
B8
90
ENDCHAR
STARTCHAR U+51C4
ENCODING 20932
SWIDTH 1000 0
DWIDTH 6 0
BBX 5 7 0 0
BITMAP
90
78
10
30
F8
B0
E8
ENDCHAR
STARTCHAR U+51C5
ENCODING 20933
SWIDTH 1000 0
DWIDTH 6 0
BBX 5 7 0 0
BITMAP
F8
58
78
58
E8
F8
F8
ENDCHAR
STARTCHAR U+51C6
ENCODING 20934
SWIDTH 1000 0
DWIDTH 6 0
BBX 5 7 0 0
BITMAP
A8
38
70
38
B0
B0
B8
ENDCHAR
STARTCHAR U+51C7
ENCODING 20935
SWIDTH 1000 0
DWIDTH 6 0
BBX 5 7 0 0
BITMAP
B0
68
20
70
E0
A8
B8
ENDCHAR
STARTCHAR U+51C9
ENCODING 20937
SWIDTH 1000 0
DWIDTH 6 0
BBX 5 7 0 0
BITMAP
90
78
28
38
90
D8
B0
ENDCHAR
STARTCHAR U+51CB
ENCODING 20939
SWIDTH 1000 0
DWIDTH 6 0
BBX 5 7 0 0
BITMAP
F8
58
78
58
E8
F8
C8
ENDCHAR
STARTCHAR U+51CC
ENCODING 20940
SWIDTH 1000 0
DWIDTH 6 0
BBX 5 7 0 0
BITMAP
90
38
10
78
A8
D0
A8
ENDCHAR
STARTCHAR U+51CD
ENCODING 20941
SWIDTH 1000 0
DWIDTH 6 0
BBX 5 7 0 0
BITMAP
90
78
38
38
B0
D8
90
ENDCHAR
STARTCHAR U+51CF
ENCODING 20943
SWIDTH 1000 0
DWIDTH 6 0
BBX 5 7 0 0
BITMAP
90
78
50
70
D8
F0
E8
ENDCHAR
STARTCHAR U+51D1
ENCODING 20945
SWIDTH 1000 0
DWIDTH 6 0
BBX 5 7 0 0
BITMAP
90
78
30
78
D8
90
A8
ENDCHAR
STARTCHAR U+51D6
ENCODING 20950
SWIDTH 1000 0
DWIDTH 6 0
BBX 5 7 0 0
BITMAP
A8
38
30
B8
20
F8
20
ENDCHAR
STARTCHAR U+51DB
ENCODING 20955
SWIDTH 1000 0
DWIDTH 6 0
BBX 5 7 0 0
BITMAP
90
78
28
78
90
D8
90
ENDCHAR
STARTCHAR U+51DC
ENCODING 20956
SWIDTH 1000 0
DWIDTH 6 0
BBX 5 7 0 0
BITMAP
90
78
28
38
F0
B8
D0
ENDCHAR
STARTCHAR U+51DD
ENCODING 20957
SWIDTH 1000 0
DWIDTH 6 0
BBX 5 7 0 0
BITMAP
D8
68
58
70
F8
D0
A8
ENDCHAR
STARTCHAR U+51E0
ENCODING 20960
SWIDTH 1000 0
DWIDTH 6 0
BBX 5 7 0 0
BITMAP
70
50
50
50
50
50
98
ENDCHAR
STARTCHAR U+51E1
ENCODING 20961
SWIDTH 1000 0
DWIDTH 6 0
BBX 5 7 0 0
BITMAP
F8
88
C8
A8
A8
88
88
ENDCHAR
STARTCHAR U+51E2
ENCODING 20962
SWIDTH 1000 0
DWIDTH 6 0
BBX 5 7 0 0
BITMAP
10
20
70
50
50
50
98
ENDCHAR
STARTCHAR U+51E3
ENCODING 20963
SWIDTH 1000 0
DWIDTH 6 0
BBX 5 7 0 0
BITMAP
20
20
70
50
50
50
98
ENDCHAR
STARTCHAR U+51E4
ENCODING 20964
SWIDTH 1000 0
DWIDTH 6 0
BBX 5 7 0 0
BITMAP
F8
88
F8
D8
A8
D8
88
ENDCHAR
STARTCHAR U+51E6
ENCODING 20966
SWIDTH 1000 0
DWIDTH 6 0
BBX 5 7 0 0
BITMAP
40
78
A8
A8
48
60
98
ENDCHAR
STARTCHAR U+51E7
ENCODING 20967
SWIDTH 1000 0
DWIDTH 6 0
BBX 5 7 0 0
BITMAP
F8
88
A8
F8
F8
A8
A8
ENDCHAR
STARTCHAR U+51E9
ENCODING 20969
SWIDTH 1000 0
DWIDTH 6 0
BBX 5 7 0 0
BITMAP
F8
88
A8
F8
A8
F8
A8
ENDCHAR
STARTCHAR U+51EA
ENCODING 20970
SWIDTH 1000 0
DWIDTH 6 0
BBX 5 7 0 0
BITMAP
F8
88
A8
B8
E8
F8
88
ENDCHAR
STARTCHAR U+51EB
ENCODING 20971
SWIDTH 1000 0
DWIDTH 6 0
BBX 5 7 0 0
BITMAP
20
F0
D0
F8
08
70
98
ENDCHAR
STARTCHAR U+51ED
ENCODING 20973
SWIDTH 1000 0
DWIDTH 6 0
BBX 5 7 0 0
BITMAP
78
50
F8
50
78
50
98
ENDCHAR
STARTCHAR U+51EF
ENCODING 20975
SWIDTH 1000 0
DWIDTH 6 0
BBX 5 7 0 0
BITMAP
B8
E8
28
E8
68
A8
E8
ENDCHAR
STARTCHAR U+51F0
ENCODING 20976
SWIDTH 1000 0
DWIDTH 6 0
BBX 5 7 0 0
BITMAP
F8
A8
D8
F8
A8
F8
88
ENDCHAR
STARTCHAR U+51F1
ENCODING 20977
SWIDTH 1000 0
DWIDTH 6 0
BBX 5 7 0 0
BITMAP
B8
E8
28
E8
A8
68
E8
ENDCHAR
STARTCHAR U+51F3
ENCODING 20979
SWIDTH 1000 0
DWIDTH 6 0
BBX 5 7 0 0
BITMAP
E8
50
F8
70
F8
50
98
ENDCHAR
STARTCHAR U+51F5
ENCODING 20981
SWIDTH 1000 0
DWIDTH 6 0
BBX 5 7 0 0
BITMAP
88
88
88
88
88
88
F8
ENDCHAR
STARTCHAR U+51F6
ENCODING 20982
SWIDTH 1000 0
DWIDTH 6 0
BBX 5 7 0 0
BITMAP
88
D8
A8
A8
D8
88
F8
ENDCHAR
STARTCHAR U+51F7
ENCODING 20983
SWIDTH 1000 0
DWIDTH 6 0
BBX 5 7 0 0
BITMAP
20
70
A8
A8
F8
88
F8
ENDCHAR
STARTCHAR U+51F8
ENCODING 20984
SWIDTH 1000 0
DWIDTH 6 0
BBX 5 7 0 0
BITMAP
70
50
50
D8
88
88
F8
ENDCHAR
STARTCHAR U+51F9
ENCODING 20985
SWIDTH 1000 0
DWIDTH 6 0
BBX 5 7 0 0
BITMAP
D8
D8
D8
F8
88
88
F8
ENDCHAR
STARTCHAR U+51FA
ENCODING 20986
SWIDTH 1000 0
DWIDTH 6 0
BBX 5 7 0 0
BITMAP
20
A8
F8
20
A8
A8
F8
ENDCHAR
STARTCHAR U+51FB
ENCODING 20987
SWIDTH 1000 0
DWIDTH 6 0
BBX 5 7 0 0
BITMAP
20
70
20
F8
20
A8
F8
ENDCHAR
STARTCHAR U+51FC
ENCODING 20988
SWIDTH 1000 0
DWIDTH 6 0
BBX 5 7 0 0
BITMAP
20
E8
70
A8
E8
88
F8
ENDCHAR
STARTCHAR U+51FD
ENCODING 20989
SWIDTH 1000 0
DWIDTH 6 0
BBX 5 7 0 0
BITMAP
F8
10
E8
B8
F8
A8
F8
ENDCHAR
STARTCHAR U+51FE
ENCODING 20990
SWIDTH 1000 0
DWIDTH 6 0
BBX 5 7 0 0
BITMAP
F8
10
A8
F8
B8
E8
F8
ENDCHAR
STARTCHAR U+51FF
ENCODING 20991
SWIDTH 1000 0
DWIDTH 6 0
BBX 5 7 0 0
BITMAP
A8
F8
50
A8
F8
A8
F8
ENDCHAR
STARTCHAR U+5200
ENCODING 20992
SWIDTH 1000 0
DWIDTH 6 0
BBX 5 7 0 0
BITMAP
F8
28
28
28
48
48
98
ENDCHAR
STARTCHAR U+5201
ENCODING 20993
SWIDTH 1000 0
DWIDTH 6 0
BBX 5 7 0 0
BITMAP
F8
08
08
28
C8
08
18
ENDCHAR
STARTCHAR U+5202
ENCODING 20994
SWIDTH 1000 0
DWIDTH 6 0
BBX 3 7 1 0
BITMAP
20
A0
A0
A0
20
20
60
ENDCHAR
STARTCHAR U+5203
ENCODING 20995
SWIDTH 1000 0
DWIDTH 6 0
BBX 5 7 0 0
BITMAP
F8
28
A8
A8
28
48
98
ENDCHAR
STARTCHAR U+5204
ENCODING 20996
SWIDTH 1000 0
DWIDTH 6 0
BBX 5 7 0 0
BITMAP
F0
50
D0
50
70
58
B0
ENDCHAR
STARTCHAR U+5206
ENCODING 20998
SWIDTH 1000 0
DWIDTH 6 0
BBX 5 7 0 0
BITMAP
50
50
88
70
50
50
B0
ENDCHAR
STARTCHAR U+5207
ENCODING 20999
SWIDTH 1000 0
DWIDTH 6 0
BBX 5 7 0 0
BITMAP
58
58
F8
58
78
18
28
ENDCHAR
STARTCHAR U+5208
ENCODING 21000
SWIDTH 1000 0
DWIDTH 6 0
BBX 5 7 0 0
BITMAP
28
28
A8
48
68
88
98
ENDCHAR
STARTCHAR U+520A
ENCODING 21002
SWIDTH 1000 0
DWIDTH 6 0
BBX 5 7 0 0
BITMAP
E8
58
58
F8
48
48
58
ENDCHAR
STARTCHAR U+520B
ENCODING 21003
SWIDTH 1000 0
DWIDTH 6 0
BBX 5 7 0 0
BITMAP
28
D8
58
F8
48
48
98
ENDCHAR
STARTCHAR U+520D
ENCODING 21005
SWIDTH 1000 0
DWIDTH 6 0
BBX 5 7 0 0
BITMAP
30
50
F8
08
78
08
F8
ENDCHAR
STARTCHAR U+520E
ENCODING 21006
SWIDTH 1000 0
DWIDTH 6 0
BBX 5 7 0 0
BITMAP
88
E8
68
A8
68
A8
68
ENDCHAR
STARTCHAR U+5211
ENCODING 21009
SWIDTH 1000 0
DWIDTH 6 0
BBX 5 7 0 0
BITMAP
E8
78
78
F8
68
68
A8
ENDCHAR
STARTCHAR U+5212
ENCODING 21010
SWIDTH 1000 0
DWIDTH 6 0
BBX 5 7 0 0
BITMAP
68
58
F8
58
68
48
A8
ENDCHAR
STARTCHAR U+5214
ENCODING 21012
SWIDTH 1000 0
DWIDTH 6 0
BBX 5 7 0 0
BITMAP
48
E8
68
E8
48
68
98
ENDCHAR
STARTCHAR U+5215
ENCODING 21013
SWIDTH 1000 0
DWIDTH 6 0
BBX 5 7 0 0
BITMAP
F8
28
D8
00
F8
58
A8
ENDCHAR
STARTCHAR U+5216
ENCODING 21014
SWIDTH 1000 0
DWIDTH 6 0
BBX 5 7 0 0
BITMAP
E8
A8
E8
A8
E8
A8
B8
ENDCHAR
STARTCHAR U+5217
ENCODING 21015
SWIDTH 1000 0
DWIDTH 6 0
BBX 5 7 0 0
BITMAP
E8
48
68
A8
68
48
98
ENDCHAR
STARTCHAR U+5218
ENCODING 21016
SWIDTH 1000 0
DWIDTH 6 0
BBX 5 7 0 0
BITMAP
48
F8
28
A8
48
48
A8
ENDCHAR
STARTCHAR U+5219
ENCODING 21017
SWIDTH 1000 0
DWIDTH 6 0
BBX 5 7 0 0
BITMAP
E8
A8
E8
E8
E8
48
A8
ENDCHAR
STARTCHAR U+521A
ENCODING 21018
SWIDTH 1000 0
DWIDTH 6 0
BBX 5 7 0 0
BITMAP
E8
A8
E8
E8
E8
A8
A8
ENDCHAR
STARTCHAR U+521B
ENCODING 21019
SWIDTH 1000 0
DWIDTH 6 0
BBX 5 7 0 0
BITMAP
48
A8
08
E8
A8
88
68
ENDCHAR
STARTCHAR U+521D
ENCODING 21021
SWIDTH 1000 0
DWIDTH 6 0
BBX 5 7 0 0
BITMAP
78
D8
58
98
58
68
68
ENDCHAR
STARTCHAR U+5220
ENCODING 21024
SWIDTH 1000 0
DWIDTH 6 0
BBX 5 7 0 0
BITMAP
78
58
58
F8
58
58
A8
ENDCHAR
STARTCHAR U+5224
ENCODING 21028
SWIDTH 1000 0
DWIDTH 6 0
BBX 5 7 0 0
BITMAP
A8
48
E8
48
E8
48
98
ENDCHAR
STARTCHAR U+5225
ENCODING 21029
SWIDTH 1000 0
DWIDTH 6 0
BBX 5 7 0 0
BITMAP
E8
A8
E8
48
68
68
A8
ENDCHAR
STARTCHAR U+5227
ENCODING 21031
SWIDTH 1000 0
DWIDTH 6 0
BBX 5 7 0 0
BITMAP
58
F8
58
F8
58
A8
E8
ENDCHAR
STARTCHAR U+5228
ENCODING 21032
SWIDTH 1000 0
DWIDTH 6 0
BBX 5 7 0 0
BITMAP
48
68
A8
68
68
48
68
ENDCHAR
STARTCHAR U+5229
ENCODING 21033
SWIDTH 1000 0
DWIDTH 6 0
BBX 5 7 0 0
BITMAP
E8
58
F8
58
E8
C8
58
ENDCHAR
STARTCHAR U+522A
ENCODING 21034
SWIDTH 1000 0
DWIDTH 6 0
BBX 5 7 0 0
BITMAP
78
58
58
F8
58
58
58
ENDCHAR
STARTCHAR U+522B
ENCODING 21035
SWIDTH 1000 0
DWIDTH 6 0
BBX 5 7 0 0
BITMAP
E8
A8
E8
48
E8
68
A8
ENDCHAR
STARTCHAR U+522C
ENCODING 21036
SWIDTH 1000 0
DWIDTH 6 0
BBX 5 7 0 0
BITMAP
58
78
C8
78
D8
28
D8
ENDCHAR
STARTCHAR U+522D
ENCODING 21037
SWIDTH 1000 0
DWIDTH 6 0
BBX 5 7 0 0
BITMAP
E8
28
48
A8
E8
48
F8
ENDCHAR
STARTCHAR U+522E
ENCODING 21038
SWIDTH 1000 0
DWIDTH 6 0
BBX 5 7 0 0
BITMAP
E8
58
F8
58
E8
A8
E8
ENDCHAR
STARTCHAR U+5230
ENCODING 21040
SWIDTH 1000 0
DWIDTH 6 0
BBX 5 7 0 0
BITMAP
E8
48
A8
48
E8
48
E8
ENDCHAR
STARTCHAR U+5233
ENCODING 21043
SWIDTH 1000 0
DWIDTH 6 0
BBX 5 7 0 0
BITMAP
48
F8
58
B8
48
68
28
ENDCHAR
STARTCHAR U+5234
ENCODING 21044
SWIDTH 1000 0
DWIDTH 6 0
BBX 5 7 0 0
BITMAP
E8
78
58
A8
F8
68
A8
ENDCHAR
STARTCHAR U+5236
ENCODING 21046
SWIDTH 1000 0
DWIDTH 6 0
BBX 5 7 0 0
BITMAP
C8
E8
48
E8
48
E8
A8
ENDCHAR
STARTCHAR U+5237
ENCODING 21047
SWIDTH 1000 0
DWIDTH 6 0
BBX 5 7 0 0
BITMAP
E8
A8
E8
88
E8
E8
48
ENDCHAR
STARTCHAR U+5238
ENCODING 21048
SWIDTH 1000 0
DWIDTH 6 0
BBX 5 7 0 0
BITMAP
A8
70
F8
50
88
30
50
ENDCHAR
STARTCHAR U+5239
ENCODING 21049
SWIDTH 1000 0
DWIDTH 6 0
BBX 5 7 0 0
BITMAP
A8
58
B8
58
E8
E8
58
ENDCHAR
STARTCHAR U+523A
ENCODING 21050
SWIDTH 1000 0
DWIDTH 6 0
BBX 5 7 0 0
BITMAP
28
F8
28
F8
A8
78
A8
ENDCHAR
STARTCHAR U+523B
ENCODING 21051
SWIDTH 1000 0
DWIDTH 6 0
BBX 5 7 0 0
BITMAP
48
E8
88
48
A8
48
A8
ENDCHAR
STARTCHAR U+523D
ENCODING 21053
SWIDTH 1000 0
DWIDTH 6 0
BBX 5 7 0 0
BITMAP
48
A8
E8
08
E8
88
E8
ENDCHAR
STARTCHAR U+523F
ENCODING 21055
SWIDTH 1000 0
DWIDTH 6 0
BBX 5 7 0 0
BITMAP
28
A8
F8
78
D8
28
C8
ENDCHAR
STARTCHAR U+5240
ENCODING 21056
SWIDTH 1000 0
DWIDTH 6 0
BBX 5 7 0 0
BITMAP
A8
F8
18
D8
48
88
D8
ENDCHAR
STARTCHAR U+5241
ENCODING 21057
SWIDTH 1000 0
DWIDTH 6 0
BBX 5 7 0 0
BITMAP
E8
A8
08
48
E8
E8
58
ENDCHAR
STARTCHAR U+5242
ENCODING 21058
SWIDTH 1000 0
DWIDTH 6 0
BBX 5 7 0 0
BITMAP
48
E8
A8
48
A8
28
A8
ENDCHAR
STARTCHAR U+5243
ENCODING 21059
SWIDTH 1000 0
DWIDTH 6 0
BBX 5 7 0 0
BITMAP
A8
E8
68
C8
E8
68
A8
ENDCHAR
STARTCHAR U+5244
ENCODING 21060
SWIDTH 1000 0
DWIDTH 6 0
BBX 5 7 0 0
BITMAP
E8
58
98
58
E8
48
E8
ENDCHAR
STARTCHAR U+5247
ENCODING 21063
SWIDTH 1000 0
DWIDTH 6 0
BBX 5 7 0 0
BITMAP
E8
A8
E8
A8
E8
08
A8
ENDCHAR
STARTCHAR U+524A
ENCODING 21066
SWIDTH 1000 0
DWIDTH 6 0
BBX 5 7 0 0
BITMAP
A8
48
E8
A8
E8
A8
A8
ENDCHAR
STARTCHAR U+524B
ENCODING 21067
SWIDTH 1000 0
DWIDTH 6 0
BBX 5 7 0 0
BITMAP
48
E8
48
A8
E8
40
B8
ENDCHAR
STARTCHAR U+524C
ENCODING 21068
SWIDTH 1000 0
DWIDTH 6 0
BBX 5 7 0 0
BITMAP
28
F8
78
78
28
78
A8
ENDCHAR
STARTCHAR U+524D
ENCODING 21069
SWIDTH 1000 0
DWIDTH 6 0
BBX 5 7 0 0
BITMAP
50
F8
00
E8
A8
E8
A8
ENDCHAR
STARTCHAR U+524E
ENCODING 21070
SWIDTH 1000 0
DWIDTH 6 0
BBX 5 7 0 0
BITMAP
A8
48
A8
58
E8
E8
58
ENDCHAR
STARTCHAR U+524F
ENCODING 21071
SWIDTH 1000 0
DWIDTH 6 0
BBX 5 7 0 0
BITMAP
B8
18
F8
78
F8
68
A8
ENDCHAR
STARTCHAR U+5250
ENCODING 21072
SWIDTH 1000 0
DWIDTH 6 0
BBX 5 7 0 0
BITMAP
E8
E8
48
F8
D8
B8
98
ENDCHAR
STARTCHAR U+5251
ENCODING 21073
SWIDTH 1000 0
DWIDTH 6 0
BBX 5 7 0 0
BITMAP
48
A8
68
08
A8
48
E8
ENDCHAR
STARTCHAR U+5254
ENCODING 21076
SWIDTH 1000 0
DWIDTH 6 0
BBX 5 7 0 0
BITMAP
E8
B8
F8
58
A8
68
A8
ENDCHAR
STARTCHAR U+5256
ENCODING 21078
SWIDTH 1000 0
DWIDTH 6 0
BBX 5 7 0 0
BITMAP
48
E8
A8
E8
08
C8
D8
ENDCHAR
STARTCHAR U+5257
ENCODING 21079
SWIDTH 1000 0
DWIDTH 6 0
BBX 5 7 0 0
BITMAP
48
E8
48
28
E8
48
A8
ENDCHAR
STARTCHAR U+525B
ENCODING 21083
SWIDTH 1000 0
DWIDTH 6 0
BBX 5 7 0 0
BITMAP
E8
A8
E8
E8
E8
E8
A8
ENDCHAR
STARTCHAR U+525C
ENCODING 21084
SWIDTH 1000 0
DWIDTH 6 0
BBX 5 7 0 0
BITMAP
28
F8
88
78
B8
68
B8
ENDCHAR
STARTCHAR U+525D
ENCODING 21085
SWIDTH 1000 0
DWIDTH 6 0
BBX 5 7 0 0
BITMAP
38
58
F8
28
A8
78
A8
ENDCHAR
STARTCHAR U+525E
ENCODING 21086
SWIDTH 1000 0
DWIDTH 6 0
BBX 5 7 0 0
BITMAP
48
F8
58
B8
E8
28
A8
ENDCHAR
STARTCHAR U+5261
ENCODING 21089
SWIDTH 1000 0
DWIDTH 6 0
BBX 5 7 0 0
BITMAP
28
B8
28
D8
B8
28
D8
ENDCHAR
STARTCHAR U+5263
ENCODING 21091
SWIDTH 1000 0
DWIDTH 6 0
BBX 5 7 0 0
BITMAP
48
A8
48
E8
E8
48
A8
ENDCHAR
STARTCHAR U+5264
ENCODING 21092
SWIDTH 1000 0
DWIDTH 6 0
BBX 5 7 0 0
BITMAP
48
E8
A8
48
A8
E8
A8
ENDCHAR
STARTCHAR U+5265
ENCODING 21093
SWIDTH 1000 0
DWIDTH 6 0
BBX 5 7 0 0
BITMAP
68
28
F8
28
A8
78
A8
ENDCHAR
STARTCHAR U+5267
ENCODING 21095
SWIDTH 1000 0
DWIDTH 6 0
BBX 5 7 0 0
BITMAP
E8
E8
A8
F8
A8
D8
78
ENDCHAR
STARTCHAR U+5269
ENCODING 21097
SWIDTH 1000 0
DWIDTH 6 0
BBX 5 7 0 0
BITMAP
68
F8
58
D8
28
78
A8
ENDCHAR
STARTCHAR U+526A
ENCODING 21098
SWIDTH 1000 0
DWIDTH 6 0
BBX 5 7 0 0
BITMAP
50
F8
68
68
F8
28
D8
ENDCHAR
STARTCHAR U+526E
ENCODING 21102
SWIDTH 1000 0
DWIDTH 6 0
BBX 5 7 0 0
BITMAP
E8
A8
A8
F8
98
B8
B8
ENDCHAR
STARTCHAR U+526F
ENCODING 21103
SWIDTH 1000 0
DWIDTH 6 0
BBX 5 7 0 0
BITMAP
E8
68
68
08
E8
E8
E8
ENDCHAR
STARTCHAR U+5270
ENCODING 21104
SWIDTH 1000 0
DWIDTH 6 0
BBX 5 7 0 0
BITMAP
78
28
F8
78
E8
78
A8
ENDCHAR
STARTCHAR U+5271
ENCODING 21105
SWIDTH 1000 0
DWIDTH 6 0
BBX 5 7 0 0
BITMAP
78
B8
58
F8
F8
58
A8
ENDCHAR
STARTCHAR U+5272
ENCODING 21106
SWIDTH 1000 0
DWIDTH 6 0
BBX 5 7 0 0
BITMAP
48
E8
A8
48
E8
68
68
ENDCHAR
STARTCHAR U+5273
ENCODING 21107
SWIDTH 1000 0
DWIDTH 6 0
BBX 5 7 0 0
BITMAP
A8
E8
48
A8
08
E8
E8
ENDCHAR
STARTCHAR U+5274
ENCODING 21108
SWIDTH 1000 0
DWIDTH 6 0
BBX 5 7 0 0
BITMAP
A8
F8
18
F8
A8
48
E8
ENDCHAR
STARTCHAR U+5275
ENCODING 21109
SWIDTH 1000 0
DWIDTH 6 0
BBX 5 7 0 0
BITMAP
48
A8
68
68
48
E8
68
ENDCHAR
STARTCHAR U+5277
ENCODING 21111
SWIDTH 1000 0
DWIDTH 6 0
BBX 5 7 0 0
BITMAP
48
E8
A8
E8
E8
C8
E8
ENDCHAR
STARTCHAR U+527D
ENCODING 21117
SWIDTH 1000 0
DWIDTH 6 0
BBX 5 7 0 0
BITMAP
E8
68
08
E8
48
E8
58
ENDCHAR
STARTCHAR U+527F
ENCODING 21119
SWIDTH 1000 0
DWIDTH 6 0
BBX 5 7 0 0
BITMAP
58
A8
78
78
F8
78
A8
ENDCHAR
STARTCHAR U+5281
ENCODING 21121
SWIDTH 1000 0
DWIDTH 6 0
BBX 5 7 0 0
BITMAP
A8
E8
C8
C8
E8
08
A8
ENDCHAR
STARTCHAR U+5282
ENCODING 21122
SWIDTH 1000 0
DWIDTH 6 0
BBX 6 7 0 0
BITMAP
F4
A4
F4
D4
64
A4
54
ENDCHAR
STARTCHAR U+5283
ENCODING 21123
SWIDTH 1000 0
DWIDTH 6 0
BBX 5 7 0 0
BITMAP
48
E8
78
E8
68
78
C8
ENDCHAR
STARTCHAR U+5287
ENCODING 21127
SWIDTH 1000 0
DWIDTH 6 0
BBX 5 7 0 0
BITMAP
48
68
C8
A8
C8
A8
D8
ENDCHAR
STARTCHAR U+5288
ENCODING 21128
SWIDTH 1000 0
DWIDTH 6 0
BBX 5 7 0 0
BITMAP
D0
F8
A8
D0
F8
28
D8
ENDCHAR
STARTCHAR U+5289
ENCODING 21129
SWIDTH 1000 0
DWIDTH 6 0
BBX 5 7 0 0
BITMAP
48
98
F8
58
A8
78
E8
ENDCHAR
STARTCHAR U+528A
ENCODING 21130
SWIDTH 1000 0
DWIDTH 6 0
BBX 5 7 0 0
BITMAP
48
A8
68
68
08
68
68
ENDCHAR
STARTCHAR U+528D
ENCODING 21133
SWIDTH 1000 0
DWIDTH 6 0
BBX 5 7 0 0
BITMAP
48
A8
08
E8
E8
48
A8
ENDCHAR
STARTCHAR U+5290
ENCODING 21136
SWIDTH 1000 0
DWIDTH 6 0
BBX 5 7 0 0
BITMAP
A8
E8
C8
E8
A8
48
A8
ENDCHAR
STARTCHAR U+5291
ENCODING 21137
SWIDTH 1000 0
DWIDTH 6 0
BBX 5 7 0 0
BITMAP
48
E8
A8
48
A8
E8
A8
ENDCHAR
STARTCHAR U+5292
ENCODING 21138
SWIDTH 1000 0
DWIDTH 6 0
BBX 5 7 0 0
BITMAP
78
B8
18
F8
F8
58
A8
ENDCHAR
STARTCHAR U+5293
ENCODING 21139
SWIDTH 1000 0
DWIDTH 6 0
BBX 5 7 0 0
BITMAP
48
68
E8
E8
08
E8
B8
ENDCHAR
STARTCHAR U+5294
ENCODING 21140
SWIDTH 1000 0
DWIDTH 6 0
BBX 5 7 0 0
BITMAP
78
B8
18
F8
F8
58
A8
ENDCHAR
ENDFONT
